<svg width="40" height="40" viewBox="0 0 40 40" fill="none" xmlns="http://www.w3.org/2000/svg">
<rect width="40" height="40" rx="5" fill="#F4F4F4"/>
<path d="M21.7622 20.0002L27.7444 14.0178C27.9089 13.8531 27.9997 13.6334 28 13.3991C28 13.1647 27.9092 12.9447 27.7444 12.7803L27.2202 12.2562C27.0553 12.0911 26.8356 12.0007 26.6011 12.0007C26.367 12.0007 26.1473 12.0911 25.9824 12.2562L20.0003 18.2383L14.0178 12.2562C13.8533 12.0911 13.6334 12.0007 13.399 12.0007C13.1649 12.0007 12.945 12.0911 12.7805 12.2562L12.256 12.7803C11.9147 13.1216 11.9147 13.6768 12.256 14.0178L18.2383 20.0002L12.256 25.9824C12.0913 26.1473 12.0007 26.367 12.0007 26.6013C12.0007 26.8356 12.0913 27.0553 12.256 27.2201L12.7804 27.7442C12.9449 27.9092 13.1649 27.9997 13.3989 27.9997C13.6333 27.9997 13.8531 27.9092 14.0177 27.7442L20.0001 21.762L25.9823 27.7442C26.1471 27.9092 26.3668 27.9997 26.601 27.9997H26.6012C26.8355 27.9997 27.0552 27.9092 27.22 27.7442L27.7443 27.2201C27.9088 27.0554 27.9996 26.8356 27.9996 26.6013C27.9996 26.367 27.9088 26.1473 27.7443 25.9825L21.7622 20.0002Z" fill="#999999"/>
</svg>
