<svg width="80" height="80" viewBox="0 0 80 80" fill="none" xmlns="http://www.w3.org/2000/svg">
<rect width="80" height="80" rx="5" fill="#FA0E9B" fill-opacity="0.1"/>
<circle cx="40" cy="40" r="18.75" stroke="#E20B8C" stroke-width="1.8"/>
<path d="M36.7896 35.7106C36.7896 34.4729 37.7417 33.6976 39.0338 33.548V37.914C38.8978 37.8868 38.7754 37.846 38.653 37.8052C37.4152 37.3972 36.7896 36.6899 36.7896 35.7106ZM43.5902 44.1978C43.5902 45.5307 42.5701 46.4148 41.1284 46.5372V41.8448C41.2236 41.872 41.3188 41.8992 41.4004 41.9128C42.9238 42.3344 43.5902 43.0825 43.5902 44.1978ZM41.1556 51.2025L41.142 49.4751C44.8688 49.1215 47.2354 47.0677 47.2354 43.8306C47.2354 40.5391 45.0184 39.1517 42.2845 38.5669L41.1284 38.322V33.5752C42.5701 33.8064 43.3726 34.8945 43.4134 35.9826H46.8953C46.8409 33.1536 44.6239 31.0045 41.1828 30.6373V28.8691H38.9794V30.6237C35.6879 30.9229 33.1036 32.7319 33.1036 35.9962C33.1036 39.0837 35.3342 40.6615 37.8641 41.2191L39.0338 41.4775V46.5372C37.2928 46.306 36.3815 45.2587 36.3135 44.0074H32.75C32.7772 46.5236 34.4638 49.1759 38.9658 49.5023L38.9522 51.2025H41.1556Z" fill="#E20B8C"/>
</svg>
