<svg width="40" height="40" viewBox="0 0 40 40" fill="none" xmlns="http://www.w3.org/2000/svg">
<rect opacity="0.5" width="40" height="40" rx="5" fill="#F4F4F4"/>
<path fill-rule="evenodd" clip-rule="evenodd" d="M9.89961 20.0016C9.89961 14.4235 14.4215 9.90156 19.9996 9.90156C25.5737 9.90156 30.0996 14.4946 30.0996 20.0016C30.0996 23.42 28.5841 25.5482 27.827 26.3999C27.4967 26.7714 27.5302 27.3402 27.9016 27.6705C28.2731 28.0008 28.842 27.9673 29.1722 27.5959C30.1219 26.5276 31.8996 23.9916 31.8996 20.0016C31.8996 13.5085 26.5758 8.10156 19.9996 8.10156C13.4274 8.10156 8.09961 13.4294 8.09961 20.0016C8.09961 26.5777 13.5066 31.9016 19.9996 31.9016C23.2307 31.9016 25.2115 30.6742 26.1045 29.0628C26.5389 28.279 26.6931 27.435 26.6066 26.6804C26.5419 26.115 26.332 25.5448 25.9478 25.1114C26.0917 24.6758 25.9292 24.1919 25.5415 23.9334L23.7428 22.7344C23.2702 22.4193 22.6315 22.547 22.3164 23.0197L21.8932 23.6545C21.8087 23.7813 21.6969 23.8894 21.5497 23.9283C21.0674 24.0557 19.7869 24.1133 17.8374 22.1638C15.8879 20.2143 15.9454 18.9338 16.0729 18.4515C16.1118 18.3042 16.2199 18.1925 16.3466 18.108L16.9815 17.6848C17.4542 17.3696 17.5819 16.731 17.2668 16.2583L16.0677 14.4597C15.7927 14.0471 15.2624 13.8895 14.8067 14.0848L14.2658 14.3167C13.8549 14.4928 13.5197 14.8088 13.3197 15.2087C13.1527 15.5427 13.0232 15.8945 13.0057 16.2676C12.9504 17.4433 13.2082 20.34 16.4347 23.5665C19.6612 26.793 22.5578 27.0507 23.7336 26.9955C24.103 26.9781 24.4516 26.851 24.7828 26.6863C24.7977 26.746 24.81 26.8121 24.8184 26.8853C24.8608 27.2556 24.7884 27.7242 24.5301 28.1903C24.0377 29.0789 22.7685 30.1016 19.9996 30.1016C14.4927 30.1016 9.89961 25.5756 9.89961 20.0016ZM19.0996 13.0016C19.0996 12.5045 19.5026 12.1016 19.9996 12.1016C24.3627 12.1016 27.8996 15.6385 27.8996 20.0016C27.8996 20.4986 27.4967 20.9016 26.9996 20.9016C26.5026 20.9016 26.0996 20.4986 26.0996 20.0016C26.0996 16.6326 23.3685 13.9016 19.9996 13.9016C19.5026 13.9016 19.0996 13.4986 19.0996 13.0016ZM19.9996 15.1016C19.5026 15.1016 19.0996 15.5045 19.0996 16.0016C19.0996 16.4986 19.5026 16.9016 19.9996 16.9016C21.7117 16.9016 23.0996 18.2895 23.0996 20.0016C23.0996 20.4986 23.5026 20.9016 23.9996 20.9016C24.4967 20.9016 24.8996 20.4986 24.8996 20.0016C24.8996 17.2954 22.7058 15.1016 19.9996 15.1016Z" fill="white"/>
</svg>
