<svg width="40" height="40" viewBox="0 0 40 40" fill="none" xmlns="http://www.w3.org/2000/svg">
<path fill-rule="evenodd" clip-rule="evenodd" d="M9.89961 19.9996C9.89961 14.4215 14.4215 9.89961 19.9996 9.89961C25.5737 9.89961 30.0996 14.4927 30.0996 19.9996C30.0996 23.418 28.5841 25.5463 27.827 26.3979C27.4967 26.7694 27.5302 27.3383 27.9016 27.6685C28.2731 27.9988 28.842 27.9654 29.1722 27.5939C30.1219 26.5257 31.8996 23.9897 31.8996 19.9996C31.8996 13.5066 26.5758 8.09961 19.9996 8.09961C13.4274 8.09961 8.09961 13.4274 8.09961 19.9996C8.09961 26.5758 13.5066 31.8996 19.9996 31.8996C23.2307 31.8996 25.2115 30.6723 26.1045 29.0609C26.5389 28.277 26.6931 27.433 26.6066 26.6784C26.5419 26.1131 26.332 25.5428 25.9478 25.1094C26.0917 24.6738 25.9292 24.19 25.5415 23.9315L23.7428 22.7324C23.2702 22.4173 22.6315 22.545 22.3164 23.0177L21.8932 23.6526C21.8087 23.7793 21.6969 23.8874 21.5497 23.9263C21.0674 24.0538 19.7869 24.1114 17.8374 22.1618C15.8879 20.2123 15.9454 18.9318 16.0729 18.4495C16.1118 18.3023 16.2199 18.1905 16.3466 18.1061L16.9815 17.6828C17.4542 17.3677 17.5819 16.7291 17.2668 16.2564L16.0677 14.4578C15.7927 14.0452 15.2624 13.8876 14.8067 14.0829L14.2658 14.3147C13.8549 14.4908 13.5197 14.8069 13.3197 15.2067C13.1527 15.5408 13.0232 15.8926 13.0057 16.2656C12.9504 17.4414 13.2082 20.338 16.4347 23.5645C19.6612 26.791 22.5578 27.0488 23.7336 26.9935C24.103 26.9761 24.4516 26.849 24.7828 26.6843C24.7977 26.744 24.81 26.8102 24.8184 26.8833C24.8608 27.2537 24.7884 27.7222 24.5301 28.1884C24.0377 29.0769 22.7685 30.0996 19.9996 30.0996C14.4927 30.0996 9.89961 25.5737 9.89961 19.9996ZM19.0996 12.9996C19.0996 12.5026 19.5026 12.0996 19.9996 12.0996C24.3627 12.0996 27.8996 15.6366 27.8996 19.9996C27.8996 20.4967 27.4967 20.8996 26.9996 20.8996C26.5026 20.8996 26.0996 20.4967 26.0996 19.9996C26.0996 16.6307 23.3685 13.8996 19.9996 13.8996C19.5026 13.8996 19.0996 13.4967 19.0996 12.9996ZM19.9996 15.0996C19.5026 15.0996 19.0996 15.5026 19.0996 15.9996C19.0996 16.4967 19.5026 16.8996 19.9996 16.8996C21.7117 16.8996 23.0996 18.2875 23.0996 19.9996C23.0996 20.4967 23.5026 20.8996 23.9996 20.8996C24.4967 20.8996 24.8996 20.4967 24.8996 19.9996C24.8996 17.2934 22.7058 15.0996 19.9996 15.0996Z" fill="#999999"/>
<rect opacity="0.5" width="40" height="40" rx="5" fill="#F4F4F4"/>
</svg>
