<svg width="40" height="40" viewBox="0 0 40 40" fill="none" xmlns="http://www.w3.org/2000/svg">
<rect width="40" height="40" rx="5" fill="#F4F4F4"/>
<path d="M20 10.5C16.134 10.5 13 13.634 13 17.5V21.9692C13 22.575 12.5877 23.1031 12 23.25C11.4123 23.3969 11 23.925 11 24.5308V24.8153C11 25.7458 11.7542 26.5 12.6847 26.5H27.3153C28.2458 26.5 29 25.7458 29 24.8153V24.5308C29 23.925 28.5877 23.3969 28 23.25C27.4123 23.1031 27 22.575 27 21.9692V17.5C27 13.634 23.866 10.5 20 10.5Z" stroke="#E20B8C" stroke-width="1.8"/>
<path d="M20 30C21.933 30 23.5 28.7464 23.5 27.2C23.5 26.9583 23.4617 26.7237 23.3897 26.5H16.6103C16.5383 26.7237 16.5 26.9583 16.5 27.2C16.5 28.7464 18.067 30 20 30Z" stroke="#E20B8C" stroke-width="1.8"/>
<circle cx="34" cy="7" r="3" fill="#E20B8C"/>
</svg>
