<svg width="40" height="40" viewBox="0 0 40 40" fill="none" xmlns="http://www.w3.org/2000/svg">
<circle cx="20" cy="20" r="9" stroke="#999999" stroke-width="1.8"/>
<path d="M18.4585 17.9411C18.4585 17.347 18.9155 16.9749 19.5358 16.9031V18.9988C19.4705 18.9857 19.4117 18.9661 19.353 18.9465C18.7588 18.7507 18.4585 18.4112 18.4585 17.9411ZM21.7228 22.015C21.7228 22.6548 21.2332 23.0792 20.5412 23.1379V20.8855C20.5869 20.8986 20.6326 20.9116 20.6717 20.9182C21.4029 21.1206 21.7228 21.4796 21.7228 22.015ZM20.5542 25.3772L20.5477 24.5481C22.3365 24.3783 23.4725 23.3925 23.4725 21.8387C23.4725 20.2588 22.4083 19.5929 21.0961 19.3121L20.5412 19.1946V16.9161C21.2332 17.0271 21.6184 17.5494 21.638 18.0717H23.3093C23.2832 16.7137 22.219 15.6822 20.5673 15.5059V14.6572H19.5096V15.4994C17.9297 15.643 16.6893 16.5114 16.6893 18.0782C16.6893 19.5602 17.76 20.3175 18.9743 20.5852L19.5358 20.7093V23.1379C18.7001 23.0269 18.2627 22.5242 18.23 21.9236H16.5195C16.5326 23.1314 17.3421 24.4045 19.5031 24.5611L19.4966 25.3772H20.5542Z" fill="#999999"/>
<rect opacity="0.5" width="40" height="40" rx="5" fill="#F4F4F4"/>
</svg>
