<svg width="40" height="40" viewBox="0 0 40 40" fill="none" xmlns="http://www.w3.org/2000/svg">
<rect opacity="0.5" width="40" height="40" rx="5" fill="#F4F4F4"/>
<circle cx="20" cy="20" r="9" stroke="white" stroke-width="1.8"/>
<path d="M18.4585 17.9401C18.4585 17.346 18.9155 16.9739 19.5358 16.9021V18.9978C19.4705 18.9847 19.4117 18.9651 19.353 18.9456C18.7588 18.7497 18.4585 18.4102 18.4585 17.9401ZM21.7228 22.014C21.7228 22.6538 21.2332 23.0782 20.5412 23.1369V20.8846C20.5869 20.8976 20.6326 20.9107 20.6717 20.9172C21.4029 21.1196 21.7228 21.4787 21.7228 22.014ZM20.5542 25.3763L20.5477 24.5471C22.3365 24.3774 23.4725 23.3915 23.4725 21.8377C23.4725 20.2578 22.4083 19.5919 21.0961 19.3112L20.5412 19.1936V16.9152C21.2332 17.0261 21.6184 17.5484 21.638 18.0707H23.3093C23.2832 16.7128 22.219 15.6812 20.5673 15.505V14.6562H19.5096V15.4984C17.9297 15.6421 16.6893 16.5104 16.6893 18.0772C16.6893 19.5592 17.76 20.3166 18.9743 20.5842L19.5358 20.7083V23.1369C18.7001 23.0259 18.2627 22.5232 18.23 21.9226H16.5195C16.5326 23.1304 17.3421 24.4035 19.5031 24.5602L19.4966 25.3763H20.5542Z" fill="white"/>
</svg>
