<svg width="12" height="12" viewBox="0 0 12 12" fill="none" xmlns="http://www.w3.org/2000/svg">
<path d="M5.8567 1.30787C6.03078 0.906426 6.60008 0.906426 6.77416 1.30787L7.89522 3.89314C7.96767 4.06022 8.12523 4.17469 8.30652 4.19196L11.1117 4.45927C11.5473 4.50077 11.7232 5.04221 11.3952 5.33182L9.28288 7.19691C9.14637 7.31744 9.08619 7.50266 9.12578 7.68042L9.73841 10.4309C9.83354 10.858 9.37296 11.1926 8.99617 10.9702L6.56963 9.53757C6.41281 9.44499 6.21805 9.44499 6.06123 9.53757L3.63469 10.9702C3.25789 11.1926 2.79732 10.858 2.89245 10.4309L3.50508 7.68042C3.54467 7.50266 3.48449 7.31744 3.34798 7.19691L1.23566 5.33182C0.907663 5.04221 1.08359 4.50077 1.51917 4.45927L4.32434 4.19196C4.50563 4.17469 4.66319 4.06022 4.73564 3.89314L5.8567 1.30787Z" stroke="#455AFE" stroke-width="1.5"/>
</svg>
