<svg width="40" height="40" viewBox="0 0 40 40" fill="none" xmlns="http://www.w3.org/2000/svg">
<rect opacity="0.5" width="40" height="40" rx="5" fill="#F4F4F4"/>
<circle cx="17" cy="15" r="4.5" stroke="white" stroke-width="1.8"/>
<path d="M23 19.5C25.4853 19.5 27.5 17.4853 27.5 15C27.5 12.5147 25.4853 10.5 23 10.5" stroke="white" stroke-width="1.8" stroke-linecap="round" stroke-linejoin="round"/>
<path d="M17 22.5C13 22.5 10 24.5 10 27C10 28.5 13 30 17 30C21 30 24 28.5 24 27C24 24.5 21 22.5 17 22.5Z" stroke="white" stroke-width="1.8" stroke-linecap="round" stroke-linejoin="round"/>
<path d="M25.5 22.8887C28.1 23.5878 30 25.1584 30 27.0003C30 28.1055 28.1 29.2107 25.5 29.7159" stroke="white" stroke-width="1.8" stroke-linecap="round" stroke-linejoin="round"/>
</svg>
