<svg width="243" height="212" viewBox="0 0 243 212" fill="none" xmlns="http://www.w3.org/2000/svg">
<path opacity="0.3" d="M191.168 14.7992C191.168 14.7992 191.168 1.31588 175.631 1.00422C162.408 0.758974 161.836 11.2687 160.39 16.2503C158.944 21.2318 156.579 16.2503 151.01 17.4203C145.441 18.5903 145.441 24.1645 144.557 27.6848C143.673 31.2051 139.856 27.1023 135.769 28.2826C131.682 29.4628 129.613 33.8517 128.734 35.6144C127.855 37.3771 121.806 34.71 118.245 36.0078C114.684 37.3055 110.847 42.941 110.847 42.941H214.91C214.91 42.941 218.997 33.2692 211.982 26.8162C204.967 20.3632 200.257 24.4711 195.858 22.4222C191.459 20.3734 191.168 14.7992 191.168 14.7992Z" stroke="black" stroke-miterlimit="10"/>
<path opacity="0.3" d="M50.0376 66.0962C50.0376 66.0962 50.0376 57.8601 40.555 57.6812C32.4826 57.5331 32.1454 63.9452 31.2462 66.9903C30.347 70.0354 28.9215 66.9903 25.5188 67.7056C22.1161 68.4209 22.1212 71.8237 21.5848 73.9696C21.0483 76.1155 18.7185 73.6119 16.215 74.3272C13.7116 75.0425 12.4547 77.73 11.9183 78.8029C11.3818 79.8759 7.68788 78.2511 5.51649 79.0431C3.3451 79.835 1 83.3042 1 83.3042H64.5374C64.5374 83.3042 67.0409 77.3979 62.7492 73.4586C58.4575 69.5194 55.5964 72.028 52.9038 70.7763C50.2113 69.5245 50.0376 66.0962 50.0376 66.0962Z" stroke="black" stroke-miterlimit="10"/>
<g opacity="0.3">
<path opacity="0.3" d="M42.9666 131.888H37.8574V136.4H42.9666V131.888Z" stroke="black" stroke-miterlimit="10"/>
<path opacity="0.3" d="M34.4039 134.622H32.3296V136.4H34.4039V134.622Z" stroke="black" stroke-miterlimit="10"/>
<path opacity="0.3" d="M242.3 160.372H222.931V124.577H224.224V120.873H178.834V124.577H180.408V177.81H168.504V63.6028H127.682V149.975H112.753V140.41H116.661V136.369H84.0238V78.4299H86.1339V75.395H46.5176V78.4299H49.3582V136.466H18.0443V177.979H1.60303" stroke="black" stroke-miterlimit="10"/>
<path opacity="0.3" d="M170.128 62.3562H125.863V63.5977H170.128V62.3562Z" stroke="black" stroke-miterlimit="10"/>
<path opacity="0.3" d="M57.8903 81.7969H52.9038V86.4718H57.8903V81.7969Z" stroke="black" stroke-miterlimit="10"/>
<path opacity="0.3" d="M65.2019 81.7969H60.2153V86.4718H65.2019V81.7969Z" stroke="black" stroke-miterlimit="10"/>
<path opacity="0.3" d="M72.5129 81.7969H67.5264V86.4718H72.5129V81.7969Z" stroke="black" stroke-miterlimit="10"/>
<path opacity="0.3" d="M79.8293 81.7969H74.8428V86.4718H79.8293V81.7969Z" stroke="black" stroke-miterlimit="10"/>
<path opacity="0.3" d="M57.8903 89.2053H52.9038V93.8803H57.8903V89.2053Z" stroke="black" stroke-miterlimit="10"/>
<path opacity="0.3" d="M65.2019 89.2053H60.2153V93.8803H65.2019V89.2053Z" stroke="black" stroke-miterlimit="10"/>
<path opacity="0.3" d="M72.5129 89.2053H67.5264V93.8803H72.5129V89.2053Z" stroke="black" stroke-miterlimit="10"/>
<path opacity="0.3" d="M79.8293 89.2053H74.8428V93.8803H79.8293V89.2053Z" stroke="black" stroke-miterlimit="10"/>
<path opacity="0.3" d="M57.8903 96.6189H52.9038V101.294H57.8903V96.6189Z" stroke="black" stroke-miterlimit="10"/>
<path opacity="0.3" d="M65.2019 96.6189H60.2153V101.294H65.2019V96.6189Z" stroke="black" stroke-miterlimit="10"/>
<path opacity="0.3" d="M72.5129 96.6189H67.5264V101.294H72.5129V96.6189Z" stroke="black" stroke-miterlimit="10"/>
<path opacity="0.3" d="M79.8293 96.6189H74.8428V101.294H79.8293V96.6189Z" stroke="black" stroke-miterlimit="10"/>
<path opacity="0.3" d="M57.8903 104.027H52.9038V108.702H57.8903V104.027Z" stroke="black" stroke-miterlimit="10"/>
<path opacity="0.3" d="M65.2019 104.027H60.2153V108.702H65.2019V104.027Z" stroke="black" stroke-miterlimit="10"/>
<path opacity="0.3" d="M72.5129 104.027H67.5264V108.702H72.5129V104.027Z" stroke="black" stroke-miterlimit="10"/>
<path opacity="0.3" d="M79.8293 104.027H74.8428V108.702H79.8293V104.027Z" stroke="black" stroke-miterlimit="10"/>
<path opacity="0.3" d="M57.8903 111.441H52.9038V116.116H57.8903V111.441Z" stroke="black" stroke-miterlimit="10"/>
<path opacity="0.3" d="M65.2019 111.441H60.2153V116.116H65.2019V111.441Z" stroke="black" stroke-miterlimit="10"/>
<path opacity="0.3" d="M72.5129 111.441H67.5264V116.116H72.5129V111.441Z" stroke="black" stroke-miterlimit="10"/>
<path opacity="0.3" d="M79.8293 111.441H74.8428V116.116H79.8293V111.441Z" stroke="black" stroke-miterlimit="10"/>
<path opacity="0.3" d="M57.8903 118.854H52.9038V123.529H57.8903V118.854Z" stroke="black" stroke-miterlimit="10"/>
<path opacity="0.3" d="M65.2019 118.854H60.2153V123.529H65.2019V118.854Z" stroke="black" stroke-miterlimit="10"/>
<path opacity="0.3" d="M72.5129 118.854H67.5264V123.529H72.5129V118.854Z" stroke="black" stroke-miterlimit="10"/>
<path opacity="0.3" d="M79.8293 118.854H74.8428V123.529H79.8293V118.854Z" stroke="black" stroke-miterlimit="10"/>
<path opacity="0.3" d="M57.8903 126.263H52.9038V130.938H57.8903V126.263Z" stroke="black" stroke-miterlimit="10"/>
<path opacity="0.3" d="M65.2019 126.263H60.2153V130.938H65.2019V126.263Z" stroke="black" stroke-miterlimit="10"/>
<path opacity="0.3" d="M72.5129 126.263H67.5264V130.938H72.5129V126.263Z" stroke="black" stroke-miterlimit="10"/>
<path opacity="0.3" d="M79.8293 126.263H74.8428V130.938H79.8293V126.263Z" stroke="black" stroke-miterlimit="10"/>
<path opacity="0.3" d="M57.8903 133.676H52.9038V138.351H57.8903V133.676Z" stroke="black" stroke-miterlimit="10"/>
<path opacity="0.3" d="M65.2019 133.676H60.2153V138.351H65.2019V133.676Z" stroke="black" stroke-miterlimit="10"/>
<path opacity="0.3" d="M72.5129 133.676H67.5264V138.351H72.5129V133.676Z" stroke="black" stroke-miterlimit="10"/>
<path opacity="0.3" d="M79.8293 133.676H74.8428V138.351H79.8293V133.676Z" stroke="black" stroke-miterlimit="10"/>
<path opacity="0.3" d="M57.8903 140.452H52.9038V145.127H57.8903V140.452Z" stroke="black" stroke-miterlimit="10"/>
<path opacity="0.3" d="M65.2019 140.452H60.2153V145.127H65.2019V140.452Z" stroke="black" stroke-miterlimit="10"/>
<path opacity="0.3" d="M72.5129 140.452H67.5264V145.127H72.5129V140.452Z" stroke="black" stroke-miterlimit="10"/>
<path opacity="0.3" d="M79.8293 140.452H74.8428V145.127H79.8293V140.452Z" stroke="black" stroke-miterlimit="10"/>
<path opacity="0.3" d="M57.8903 147.865H52.9038V152.54H57.8903V147.865Z" stroke="black" stroke-miterlimit="10"/>
<path opacity="0.3" d="M65.2019 147.865H60.2153V152.54H65.2019V147.865Z" stroke="black" stroke-miterlimit="10"/>
<path opacity="0.3" d="M72.5129 147.865H67.5264V152.54H72.5129V147.865Z" stroke="black" stroke-miterlimit="10"/>
<path opacity="0.3" d="M79.8293 147.865H74.8428V152.54H79.8293V147.865Z" stroke="black" stroke-miterlimit="10"/>
<path opacity="0.3" d="M57.8903 155.273H52.9038V159.948H57.8903V155.273Z" stroke="black" stroke-miterlimit="10"/>
<path opacity="0.3" d="M65.2019 155.273H60.2153V159.948H65.2019V155.273Z" stroke="black" stroke-miterlimit="10"/>
<path opacity="0.3" d="M72.5129 155.273H67.5264V159.948H72.5129V155.273Z" stroke="black" stroke-miterlimit="10"/>
<path opacity="0.3" d="M79.8293 155.273H74.8428V159.948H79.8293V155.273Z" stroke="black" stroke-miterlimit="10"/>
<path opacity="0.3" d="M57.8903 162.687H52.9038V167.362H57.8903V162.687Z" stroke="black" stroke-miterlimit="10"/>
<path opacity="0.3" d="M65.2019 162.687H60.2153V167.362H65.2019V162.687Z" stroke="black" stroke-miterlimit="10"/>
<path opacity="0.3" d="M72.5129 162.687H67.5264V167.362H72.5129V162.687Z" stroke="black" stroke-miterlimit="10"/>
<path opacity="0.3" d="M79.8293 162.687H74.8428V167.362H79.8293V162.687Z" stroke="black" stroke-miterlimit="10"/>
<path opacity="0.3" d="M57.8903 170.101H52.9038V174.776H57.8903V170.101Z" stroke="black" stroke-miterlimit="10"/>
<path opacity="0.3" d="M65.2019 170.101H60.2153V174.776H65.2019V170.101Z" stroke="black" stroke-miterlimit="10"/>
<path opacity="0.3" d="M72.5129 170.101H67.5264V174.776H72.5129V170.101Z" stroke="black" stroke-miterlimit="10"/>
<path opacity="0.3" d="M79.8293 170.101H74.8428V174.776H79.8293V170.101Z" stroke="black" stroke-miterlimit="10"/>
<path opacity="0.3" d="M57.8903 177.509H52.9038V182.184H57.8903V177.509Z" stroke="black" stroke-miterlimit="10"/>
<path opacity="0.3" d="M65.2019 177.509H60.2153V182.184H65.2019V177.509Z" stroke="black" stroke-miterlimit="10"/>
<path opacity="0.3" d="M72.5129 177.509H67.5264V182.184H72.5129V177.509Z" stroke="black" stroke-miterlimit="10"/>
<path opacity="0.3" d="M79.8293 177.509H74.8428V182.184H79.8293V177.509Z" stroke="black" stroke-miterlimit="10"/>
<path opacity="0.3" d="M57.8903 184.922H52.9038V189.597H57.8903V184.922Z" stroke="black" stroke-miterlimit="10"/>
<path opacity="0.3" d="M65.2019 184.922H60.2153V189.597H65.2019V184.922Z" stroke="black" stroke-miterlimit="10"/>
<path opacity="0.3" d="M72.5129 184.922H67.5264V189.597H72.5129V184.922Z" stroke="black" stroke-miterlimit="10"/>
<path opacity="0.3" d="M79.8293 184.922H74.8428V189.597H79.8293V184.922Z" stroke="black" stroke-miterlimit="10"/>
<path opacity="0.3" d="M57.8903 192.331H52.9038V197.006H57.8903V192.331Z" stroke="black" stroke-miterlimit="10"/>
<path opacity="0.3" d="M65.2019 192.331H60.2153V197.006H65.2019V192.331Z" stroke="black" stroke-miterlimit="10"/>
<path opacity="0.3" d="M72.5129 192.331H67.5264V197.006H72.5129V192.331Z" stroke="black" stroke-miterlimit="10"/>
<path opacity="0.3" d="M79.8293 192.331H74.8428V197.006H79.8293V192.331Z" stroke="black" stroke-miterlimit="10"/>
<path opacity="0.3" d="M86.4509 140.452H81.4644V145.127H86.4509V140.452Z" stroke="black" stroke-miterlimit="10"/>
<path opacity="0.3" d="M93.7668 140.452H88.7803V145.127H93.7668V140.452Z" stroke="black" stroke-miterlimit="10"/>
<path opacity="0.3" d="M101.078 140.452H96.0918V145.127H101.078V140.452Z" stroke="black" stroke-miterlimit="10"/>
<path opacity="0.3" d="M108.389 140.452H103.403V145.127H108.389V140.452Z" stroke="black" stroke-miterlimit="10"/>
<path opacity="0.3" d="M86.4509 147.865H81.4644V152.54H86.4509V147.865Z" stroke="black" stroke-miterlimit="10"/>
<path opacity="0.3" d="M93.7668 147.865H88.7803V152.54H93.7668V147.865Z" stroke="black" stroke-miterlimit="10"/>
<path opacity="0.3" d="M101.078 147.865H96.0918V152.54H101.078V147.865Z" stroke="black" stroke-miterlimit="10"/>
<path opacity="0.3" d="M108.389 147.865H103.403V152.54H108.389V147.865Z" stroke="black" stroke-miterlimit="10"/>
<path opacity="0.3" d="M86.4509 155.273H81.4644V159.948H86.4509V155.273Z" stroke="black" stroke-miterlimit="10"/>
<path opacity="0.3" d="M93.7668 155.273H88.7803V159.948H93.7668V155.273Z" stroke="black" stroke-miterlimit="10"/>
<path opacity="0.3" d="M101.078 155.273H96.0918V159.948H101.078V155.273Z" stroke="black" stroke-miterlimit="10"/>
<path opacity="0.3" d="M108.389 155.273H103.403V159.948H108.389V155.273Z" stroke="black" stroke-miterlimit="10"/>
<path opacity="0.3" d="M86.4509 162.687H81.4644V167.362H86.4509V162.687Z" stroke="black" stroke-miterlimit="10"/>
<path opacity="0.3" d="M93.7668 162.687H88.7803V167.362H93.7668V162.687Z" stroke="black" stroke-miterlimit="10"/>
<path opacity="0.3" d="M101.078 162.687H96.0918V167.362H101.078V162.687Z" stroke="black" stroke-miterlimit="10"/>
<path opacity="0.3" d="M108.389 162.687H103.403V167.362H108.389V162.687Z" stroke="black" stroke-miterlimit="10"/>
<path opacity="0.3" d="M86.4509 170.101H81.4644V174.776H86.4509V170.101Z" stroke="black" stroke-miterlimit="10"/>
<path opacity="0.3" d="M93.7668 170.101H88.7803V174.776H93.7668V170.101Z" stroke="black" stroke-miterlimit="10"/>
<path opacity="0.3" d="M101.078 170.101H96.0918V174.776H101.078V170.101Z" stroke="black" stroke-miterlimit="10"/>
<path opacity="0.3" d="M108.389 170.101H103.403V174.776H108.389V170.101Z" stroke="black" stroke-miterlimit="10"/>
<path opacity="0.3" d="M86.4509 177.509H81.4644V182.184H86.4509V177.509Z" stroke="black" stroke-miterlimit="10"/>
<path opacity="0.3" d="M93.7668 177.509H88.7803V182.184H93.7668V177.509Z" stroke="black" stroke-miterlimit="10"/>
<path opacity="0.3" d="M101.078 177.509H96.0918V182.184H101.078V177.509Z" stroke="black" stroke-miterlimit="10"/>
<path opacity="0.3" d="M108.389 177.509H103.403V182.184H108.389V177.509Z" stroke="black" stroke-miterlimit="10"/>
<path opacity="0.3" d="M86.4509 184.922H81.4644V189.597H86.4509V184.922Z" stroke="black" stroke-miterlimit="10"/>
<path opacity="0.3" d="M93.7668 184.922H88.7803V189.597H93.7668V184.922Z" stroke="black" stroke-miterlimit="10"/>
<path opacity="0.3" d="M101.078 184.922H96.0918V189.597H101.078V184.922Z" stroke="black" stroke-miterlimit="10"/>
<path opacity="0.3" d="M108.389 184.922H103.403V189.597H108.389V184.922Z" stroke="black" stroke-miterlimit="10"/>
<path opacity="0.3" d="M86.4509 192.331H81.4644V197.006H86.4509V192.331Z" stroke="black" stroke-miterlimit="10"/>
<path opacity="0.3" d="M93.7668 192.331H88.7803V197.006H93.7668V192.331Z" stroke="black" stroke-miterlimit="10"/>
<path opacity="0.3" d="M101.078 192.331H96.0918V197.006H101.078V192.331Z" stroke="black" stroke-miterlimit="10"/>
<path opacity="0.3" d="M108.389 192.331H103.403V197.006H108.389V192.331Z" stroke="black" stroke-miterlimit="10"/>
<path opacity="0.3" d="M28.9216 140.452H23.9351V145.127H28.9216V140.452Z" stroke="black" stroke-miterlimit="10"/>
<path opacity="0.3" d="M36.238 140.452H31.2515V145.127H36.238V140.452Z" stroke="black" stroke-miterlimit="10"/>
<path opacity="0.3" d="M43.549 140.452H38.5625V145.127H43.549V140.452Z" stroke="black" stroke-miterlimit="10"/>
<path opacity="0.3" d="M50.8605 140.452H45.874V145.127H50.8605V140.452Z" stroke="black" stroke-miterlimit="10"/>
<path opacity="0.3" d="M28.9216 147.865H23.9351V152.54H28.9216V147.865Z" stroke="black" stroke-miterlimit="10"/>
<path opacity="0.3" d="M36.238 147.865H31.2515V152.54H36.238V147.865Z" stroke="black" stroke-miterlimit="10"/>
<path opacity="0.3" d="M43.549 147.865H38.5625V152.54H43.549V147.865Z" stroke="black" stroke-miterlimit="10"/>
<path opacity="0.3" d="M50.8605 147.865H45.874V152.54H50.8605V147.865Z" stroke="black" stroke-miterlimit="10"/>
<path opacity="0.3" d="M28.9216 155.273H23.9351V159.948H28.9216V155.273Z" stroke="black" stroke-miterlimit="10"/>
<path opacity="0.3" d="M36.238 155.273H31.2515V159.948H36.238V155.273Z" stroke="black" stroke-miterlimit="10"/>
<path opacity="0.3" d="M43.549 155.273H38.5625V159.948H43.549V155.273Z" stroke="black" stroke-miterlimit="10"/>
<path opacity="0.3" d="M50.8605 155.273H45.874V159.948H50.8605V155.273Z" stroke="black" stroke-miterlimit="10"/>
<path opacity="0.3" d="M28.9216 162.687H23.9351V167.362H28.9216V162.687Z" stroke="black" stroke-miterlimit="10"/>
<path opacity="0.3" d="M36.238 162.687H31.2515V167.362H36.238V162.687Z" stroke="black" stroke-miterlimit="10"/>
<path opacity="0.3" d="M43.549 162.687H38.5625V167.362H43.549V162.687Z" stroke="black" stroke-miterlimit="10"/>
<path opacity="0.3" d="M50.8605 162.687H45.874V167.362H50.8605V162.687Z" stroke="black" stroke-miterlimit="10"/>
<path opacity="0.3" d="M28.9216 170.101H23.9351V174.776H28.9216V170.101Z" stroke="black" stroke-miterlimit="10"/>
<path opacity="0.3" d="M36.238 170.101H31.2515V174.776H36.238V170.101Z" stroke="black" stroke-miterlimit="10"/>
<path opacity="0.3" d="M43.549 170.101H38.5625V174.776H43.549V170.101Z" stroke="black" stroke-miterlimit="10"/>
<path opacity="0.3" d="M50.8605 170.101H45.874V174.776H50.8605V170.101Z" stroke="black" stroke-miterlimit="10"/>
<path opacity="0.3" d="M28.9216 177.509H23.9351V182.184H28.9216V177.509Z" stroke="black" stroke-miterlimit="10"/>
<path opacity="0.3" d="M36.238 177.509H31.2515V182.184H36.238V177.509Z" stroke="black" stroke-miterlimit="10"/>
<path opacity="0.3" d="M43.549 177.509H38.5625V182.184H43.549V177.509Z" stroke="black" stroke-miterlimit="10"/>
<path opacity="0.3" d="M50.8605 177.509H45.874V182.184H50.8605V177.509Z" stroke="black" stroke-miterlimit="10"/>
<path opacity="0.3" d="M28.9216 184.922H23.9351V189.597H28.9216V184.922Z" stroke="black" stroke-miterlimit="10"/>
<path opacity="0.3" d="M36.238 184.922H31.2515V189.597H36.238V184.922Z" stroke="black" stroke-miterlimit="10"/>
<path opacity="0.3" d="M43.549 184.922H38.5625V189.597H43.549V184.922Z" stroke="black" stroke-miterlimit="10"/>
<path opacity="0.3" d="M50.8605 184.922H45.874V189.597H50.8605V184.922Z" stroke="black" stroke-miterlimit="10"/>
<path opacity="0.3" d="M28.9216 192.331H23.9351V197.006H28.9216V192.331Z" stroke="black" stroke-miterlimit="10"/>
<path opacity="0.3" d="M36.238 192.331H31.2515V197.006H36.238V192.331Z" stroke="black" stroke-miterlimit="10"/>
<path opacity="0.3" d="M43.549 192.331H38.5625V197.006H43.549V192.331Z" stroke="black" stroke-miterlimit="10"/>
<path opacity="0.3" d="M50.8605 192.331H45.874V197.006H50.8605V192.331Z" stroke="black" stroke-miterlimit="10"/>
<path opacity="0.3" d="M192.287 125.926H187.3V130.601H192.287V125.926Z" stroke="black" stroke-miterlimit="10"/>
<path opacity="0.3" d="M199.598 125.926H194.611V130.601H199.598V125.926Z" stroke="black" stroke-miterlimit="10"/>
<path opacity="0.3" d="M206.909 125.926H201.922V130.601H206.909V125.926Z" stroke="black" stroke-miterlimit="10"/>
<path opacity="0.3" d="M214.225 125.926H209.239V130.601H214.225V125.926Z" stroke="black" stroke-miterlimit="10"/>
<path opacity="0.3" d="M192.287 133.339H187.3V138.014H192.287V133.339Z" stroke="black" stroke-miterlimit="10"/>
<path opacity="0.3" d="M199.598 133.339H194.611V138.014H199.598V133.339Z" stroke="black" stroke-miterlimit="10"/>
<path opacity="0.3" d="M206.909 133.339H201.922V138.014H206.909V133.339Z" stroke="black" stroke-miterlimit="10"/>
<path opacity="0.3" d="M214.225 133.339H209.239V138.014H214.225V133.339Z" stroke="black" stroke-miterlimit="10"/>
<path opacity="0.3" d="M192.287 140.748H187.3V145.423H192.287V140.748Z" stroke="black" stroke-miterlimit="10"/>
<path opacity="0.3" d="M199.598 140.748H194.611V145.423H199.598V140.748Z" stroke="black" stroke-miterlimit="10"/>
<path opacity="0.3" d="M206.909 140.748H201.922V145.423H206.909V140.748Z" stroke="black" stroke-miterlimit="10"/>
<path opacity="0.3" d="M214.225 140.748H209.239V145.423H214.225V140.748Z" stroke="black" stroke-miterlimit="10"/>
<path opacity="0.3" d="M192.287 148.161H187.3V152.836H192.287V148.161Z" stroke="black" stroke-miterlimit="10"/>
<path opacity="0.3" d="M199.598 148.161H194.611V152.836H199.598V148.161Z" stroke="black" stroke-miterlimit="10"/>
<path opacity="0.3" d="M206.909 148.161H201.922V152.836H206.909V148.161Z" stroke="black" stroke-miterlimit="10"/>
<path opacity="0.3" d="M214.225 148.161H209.239V152.836H214.225V148.161Z" stroke="black" stroke-miterlimit="10"/>
<path opacity="0.3" d="M192.287 155.57H187.3V160.245H192.287V155.57Z" stroke="black" stroke-miterlimit="10"/>
<path opacity="0.3" d="M199.598 155.57H194.611V160.245H199.598V155.57Z" stroke="black" stroke-miterlimit="10"/>
<path opacity="0.3" d="M206.909 155.57H201.922V160.245H206.909V155.57Z" stroke="black" stroke-miterlimit="10"/>
<path opacity="0.3" d="M214.225 155.57H209.239V160.245H214.225V155.57Z" stroke="black" stroke-miterlimit="10"/>
<path opacity="0.3" d="M192.287 162.983H187.3V167.658H192.287V162.983Z" stroke="black" stroke-miterlimit="10"/>
<path opacity="0.3" d="M199.598 162.983H194.611V167.658H199.598V162.983Z" stroke="black" stroke-miterlimit="10"/>
<path opacity="0.3" d="M206.909 162.983H201.922V167.658H206.909V162.983Z" stroke="black" stroke-miterlimit="10"/>
<path opacity="0.3" d="M214.225 162.983H209.239V167.658H214.225V162.983Z" stroke="black" stroke-miterlimit="10"/>
<path opacity="0.3" d="M192.287 170.392H187.3V175.067H192.287V170.392Z" stroke="black" stroke-miterlimit="10"/>
<path opacity="0.3" d="M199.598 170.392H194.611V175.067H199.598V170.392Z" stroke="black" stroke-miterlimit="10"/>
<path opacity="0.3" d="M206.909 170.392H201.922V175.067H206.909V170.392Z" stroke="black" stroke-miterlimit="10"/>
<path opacity="0.3" d="M214.225 170.392H209.239V175.067H214.225V170.392Z" stroke="black" stroke-miterlimit="10"/>
<path opacity="0.3" d="M192.287 177.805H187.3V182.48H192.287V177.805Z" stroke="black" stroke-miterlimit="10"/>
<path opacity="0.3" d="M199.598 177.805H194.611V182.48H199.598V177.805Z" stroke="black" stroke-miterlimit="10"/>
<path opacity="0.3" d="M206.909 177.805H201.922V182.48H206.909V177.805Z" stroke="black" stroke-miterlimit="10"/>
<path opacity="0.3" d="M214.225 177.805H209.239V182.48H214.225V177.805Z" stroke="black" stroke-miterlimit="10"/>
<path opacity="0.3" d="M131.523 66.3008V201.722" stroke="black" stroke-miterlimit="10"/>
<path opacity="0.3" d="M136.469 66.3008V201.722" stroke="black" stroke-miterlimit="10"/>
<path opacity="0.3" d="M141.415 66.3008V201.722" stroke="black" stroke-miterlimit="10"/>
<path opacity="0.3" d="M146.36 66.3008V201.722" stroke="black" stroke-miterlimit="10"/>
<path opacity="0.3" d="M151.306 66.3008V201.722" stroke="black" stroke-miterlimit="10"/>
<path opacity="0.3" d="M156.252 66.3008V201.722" stroke="black" stroke-miterlimit="10"/>
<path opacity="0.3" d="M161.197 66.3008V201.722" stroke="black" stroke-miterlimit="10"/>
<path opacity="0.3" d="M166.143 66.3008V201.722" stroke="black" stroke-miterlimit="10"/>
</g>
<path d="M4.55583 176.344C6.04752 176.614 7.57551 176.614 9.06721 176.344C9.06721 177.259 9.06721 178.224 9.1745 179.226C9.29006 180.688 9.53455 182.138 9.90511 183.558V183.609C9.65476 183.211 8.91393 182.128 8.84751 182.051C7.91254 180.973 5.46526 179.43 3.99382 180.058C3.75155 180.169 3.53531 180.329 3.35926 180.529C3.1832 180.728 3.05131 180.963 2.97221 181.217C2.89311 181.471 2.86858 181.739 2.90024 182.004C2.9319 182.268 3.01903 182.523 3.15592 182.751C3.69749 183.737 5.00033 184.228 6.05792 184.381C7.24835 184.555 9.75694 183.829 9.9562 183.773C10.373 185.207 10.8851 186.612 11.4889 187.978C11.8313 188.78 12.2042 189.572 12.5874 190.364C12.3575 190.027 12.1531 189.73 12.1174 189.689C11.1824 188.611 8.74022 187.073 7.26879 187.697C7.02664 187.807 6.81046 187.967 6.63434 188.167C6.45822 188.367 6.32609 188.601 6.24657 188.855C6.16704 189.109 6.1419 189.377 6.17278 189.641C6.20365 189.906 6.28986 190.16 6.42578 190.389C6.97246 191.381 8.27529 191.871 9.33288 192.024C10.3905 192.178 12.5568 191.6 13.1239 191.442L13.5684 192.346C14.299 193.792 15.0296 195.233 15.6989 196.669C15.939 197.18 16.1536 197.69 16.3733 198.201C16.1689 197.905 15.9952 197.655 15.9646 197.619C15.0296 196.536 12.5874 194.998 11.1109 195.626C10.8693 195.737 10.6537 195.897 10.4782 196.096C10.3026 196.295 10.171 196.529 10.092 196.783C10.0129 197.037 9.98816 197.304 10.0194 197.568C10.0505 197.831 10.137 198.086 10.273 198.314C10.8196 199.305 12.1225 199.795 13.175 199.949C14.2274 200.102 16.1894 199.586 16.8638 199.397C17.0732 199.908 17.2776 200.449 17.4564 200.965C17.5688 201.323 17.7017 201.655 17.7936 202.023C17.8856 202.391 17.9929 202.733 18.0951 203.086C18.2586 203.77 18.4323 204.476 18.5753 205.13C18.6775 205.594 18.7695 206.044 18.8614 206.494C18.6264 205.983 18.1564 205.007 18.1053 204.93C17.344 203.719 15.1675 201.829 13.6143 202.222C13.3556 202.294 13.1152 202.42 12.909 202.592C12.7029 202.765 12.5358 202.979 12.4188 203.22C12.3018 203.462 12.2377 203.726 12.2306 203.994C12.2236 204.263 12.2738 204.53 12.3779 204.777C12.7662 205.835 13.9771 206.519 14.9989 206.821C16.1229 207.163 18.6111 206.851 18.9228 206.821C19.0709 207.562 19.2089 208.287 19.3315 208.972C19.4235 209.483 19.5052 209.994 19.5818 210.504H20.5781C20.481 209.968 20.3789 209.406 20.2614 208.824C20.1132 208.067 19.9395 207.265 19.7504 206.438C20.4993 206.141 21.2295 205.8 21.9372 205.416C22.7546 206.305 24.8545 207.342 25.1304 207.459C24.8443 208.159 24.5581 208.839 24.2771 209.478C24.129 209.83 23.9808 210.162 23.8326 210.499H24.9005C24.9873 210.285 25.0793 210.075 25.1661 209.856C25.4625 209.14 25.7588 208.374 26.0602 207.582C26.3617 207.648 28.8243 208.149 29.9738 207.889C30.9957 207.654 32.2781 207.066 32.743 206.034C32.8609 205.797 32.9279 205.538 32.9397 205.274C32.9515 205.01 32.9079 204.746 32.8117 204.499C32.7154 204.253 32.5687 204.03 32.3809 203.843C32.1931 203.657 31.9683 203.512 31.7212 203.418C30.1884 202.907 27.8893 204.629 27.0412 205.778C26.9901 205.845 26.5303 206.642 26.2442 207.153C26.3668 206.826 26.4894 206.514 26.6069 206.182C26.8522 205.523 27.0718 204.854 27.312 204.138C27.4193 203.791 27.5266 203.438 27.6287 203.081C27.7309 202.723 27.8178 202.34 27.9149 201.972C28.1243 201.103 28.2878 200.214 28.4258 199.315C29.0082 199.53 31.0723 200.245 32.1401 200.174C33.2079 200.102 34.5414 199.704 35.1596 198.758C35.3124 198.54 35.4176 198.293 35.4683 198.031C35.5189 197.77 35.514 197.501 35.4537 197.241C35.3935 196.982 35.2793 196.738 35.1186 196.526C34.9579 196.314 34.7542 196.138 34.521 196.01C33.0751 195.228 30.5205 196.582 29.4987 197.588C29.4374 197.65 28.7936 198.457 28.4462 198.906C28.528 198.365 28.6199 197.823 28.6863 197.277C28.8805 195.688 29.0338 194.073 29.1973 192.469L29.3505 190.992C29.56 191.069 31.992 191.978 33.1926 191.891C34.2553 191.82 35.5939 191.427 36.2121 190.481C36.3649 190.263 36.4701 190.016 36.5207 189.754C36.5714 189.493 36.5665 189.224 36.5062 188.964C36.446 188.705 36.3318 188.461 36.1711 188.249C36.0103 188.037 35.8067 187.861 35.5735 187.733C34.1531 187.002 31.5986 188.351 30.5869 189.362C30.5103 189.439 29.5651 190.599 29.3607 190.895C29.4783 189.812 29.6009 188.734 29.7644 187.676C29.9826 186.248 30.2932 184.834 30.6942 183.446C30.7862 183.482 33.3254 184.468 34.5568 184.355C35.6195 184.279 36.958 183.885 37.5711 182.94C37.7233 182.722 37.828 182.475 37.8786 182.215C37.9291 181.954 37.9244 181.686 37.8647 181.427C37.805 181.169 37.6916 180.925 37.5319 180.713C37.3722 180.501 37.1697 180.325 36.9376 180.196C35.5122 179.461 32.9627 180.815 31.9511 181.821C31.8847 181.888 31.1745 182.771 30.8475 183.201L30.7658 183.155C31.2041 181.77 31.7666 180.427 32.4467 179.144C32.8094 178.429 33.1977 177.769 33.5911 177.136C34.0458 177.361 36.1457 178.377 37.2493 178.418C38.3528 178.459 39.6863 178.219 40.4016 177.345C40.5771 177.146 40.7085 176.911 40.7874 176.657C40.8663 176.403 40.8909 176.135 40.8596 175.871C40.8282 175.607 40.7417 175.353 40.6056 175.124C40.4695 174.896 40.2868 174.699 40.0695 174.545C38.736 173.662 36.0537 174.724 34.9604 175.618C34.9195 175.649 34.6385 175.93 34.3371 176.232C34.3371 176.165 34.3371 176.088 34.3371 176.002C34.3371 175.915 34.4239 175.859 34.4699 175.792C35.1392 174.77 35.8136 173.902 36.4165 173.125C36.7639 172.686 37.0858 172.297 37.3923 171.935C37.9543 171.935 40.2228 171.858 41.214 171.393C42.2051 170.928 43.2576 170.09 43.5182 168.987C43.5823 168.728 43.5913 168.459 43.5446 168.197C43.498 167.935 43.3966 167.686 43.2472 167.466C43.0978 167.246 42.9037 167.059 42.6775 166.919C42.4513 166.779 42.1981 166.688 41.9344 166.652C40.3403 166.483 38.4499 168.665 37.847 169.968C37.7959 170.08 37.2135 171.94 37.2442 171.94H37.2799C36.9785 172.282 36.6566 172.655 36.3194 173.064C35.6961 173.825 35.0064 174.694 34.3166 175.68C34.3166 174.147 34.0305 170.943 31.9971 170.749C29.3148 170.494 28.5484 173.559 30.2089 175.22C31.1616 176.108 32.4275 176.582 33.7291 176.538C33.2182 177.305 32.7072 178.127 32.1963 179.026C31.4855 180.308 30.8888 181.65 30.4132 183.037V183.088C30.4132 182.618 30.4132 181.31 30.4132 181.208C30.2293 179.788 29.044 177.156 27.4653 176.865C27.2025 176.824 26.9341 176.839 26.6775 176.908C26.4208 176.978 26.1817 177.101 25.9758 177.269C25.7699 177.437 25.6019 177.647 25.4826 177.885C25.3633 178.122 25.2955 178.383 25.2836 178.648C25.1917 179.777 26.0091 180.901 26.8164 181.617C27.7156 182.419 30.2089 183.195 30.3928 183.257C29.945 184.681 29.5934 186.134 29.3403 187.605C29.187 188.458 29.0593 189.327 28.9418 190.2C28.9418 189.792 28.9418 189.429 28.9418 189.378C28.7579 187.962 27.5725 185.331 25.9938 185.04C25.7311 184.999 25.4627 185.013 25.206 185.083C24.9494 185.153 24.7103 185.275 24.5044 185.444C24.2985 185.612 24.1304 185.822 24.0112 186.06C23.8919 186.297 23.8241 186.557 23.8122 186.823C23.7202 187.947 24.5377 189.076 25.345 189.786C26.1522 190.497 28.2674 191.212 28.8294 191.391C28.7885 191.728 28.7425 192.06 28.7017 192.413C28.5126 194.017 28.3236 195.621 28.0988 197.19C28.017 197.742 27.9149 198.283 27.8178 198.825C27.8178 198.467 27.8178 198.161 27.8178 198.115C27.6339 196.699 26.4485 194.068 24.8749 193.777C24.6119 193.736 24.3433 193.75 24.0863 193.82C23.8294 193.889 23.59 194.012 23.3837 194.18C23.1774 194.349 23.0089 194.558 22.889 194.796C22.7692 195.034 22.7008 195.294 22.6882 195.56C22.5962 196.684 23.4137 197.813 24.2209 198.523C25.0282 199.233 26.9339 199.877 27.5981 200.097C27.4806 200.649 27.3682 201.201 27.2302 201.732C27.128 202.09 27.0514 202.442 26.9288 202.8L26.5916 203.852C26.3515 204.511 26.0807 205.196 25.8559 205.835C25.6822 206.279 25.5136 206.703 25.345 207.127C25.4318 206.575 25.58 205.497 25.58 205.405C25.5663 204.148 25.2266 202.916 24.5939 201.829C24.6101 201.53 24.558 201.231 24.4416 200.955C24.3252 200.68 24.1475 200.434 23.9219 200.237C23.6964 200.04 23.429 199.897 23.14 199.819C22.851 199.74 22.548 199.729 22.2539 199.785C20.7212 200.199 19.6993 202.912 19.6534 204.343C19.6534 204.424 19.7045 205.365 19.7453 205.927C19.6687 205.589 19.5972 205.262 19.5103 204.905C19.3519 204.22 19.168 203.541 18.9738 202.81C18.8717 202.463 18.7644 202.11 18.6571 201.752C18.5498 201.395 18.4067 201.037 18.279 200.669C17.9776 199.836 17.625 199.004 17.2572 198.171C17.8549 198.028 19.9752 197.486 20.8336 196.832C21.6919 196.178 22.5758 195.121 22.5707 193.991C22.578 193.726 22.5293 193.461 22.4277 193.216C22.3262 192.97 22.1742 192.748 21.9814 192.565C21.7887 192.382 21.5596 192.242 21.309 192.153C21.0585 192.064 20.792 192.029 20.527 192.05C18.9381 192.224 17.5535 194.758 17.2674 196.137C17.2674 196.224 17.155 197.256 17.1141 197.818C16.8842 197.307 16.6594 196.822 16.4142 196.326C15.704 194.896 14.9376 193.465 14.1815 192.04C13.9516 191.6 13.7268 191.161 13.4968 190.727C13.7114 190.675 16.2456 190.088 17.1959 189.357C18.044 188.708 18.9432 187.646 18.933 186.511C18.9403 186.246 18.8916 185.982 18.7901 185.736C18.6885 185.491 18.5363 185.27 18.3435 185.087C18.1507 184.904 17.9215 184.764 17.671 184.676C17.4204 184.588 17.1541 184.553 16.8893 184.575C15.2953 184.749 13.9158 187.283 13.6246 188.662C13.6246 188.77 13.4713 190.246 13.456 190.624C12.9451 189.659 12.4648 188.693 12.0203 187.722C11.4109 186.413 10.8886 185.064 10.4569 183.686C10.554 183.686 13.2005 183.063 14.1764 182.312C15.0245 181.663 15.9237 180.6 15.9135 179.471C15.9207 179.205 15.872 178.941 15.7705 178.695C15.669 178.449 15.5169 178.228 15.3242 178.045C15.1315 177.862 14.9024 177.721 14.6518 177.632C14.4013 177.544 14.1348 177.508 13.8698 177.529C12.2758 177.703 10.8963 180.237 10.6051 181.617C10.6051 181.709 10.4876 182.838 10.4467 183.374H10.3598C9.96133 181.976 9.68777 180.545 9.54236 179.098C9.4555 178.301 9.41463 177.54 9.38908 176.794C9.9 176.732 12.194 176.426 13.1494 175.848C14.1048 175.271 15.0705 174.316 15.1931 173.212C15.2298 172.949 15.2106 172.681 15.1368 172.425C15.0629 172.17 14.936 171.933 14.7643 171.73C14.5927 171.527 14.3802 171.363 14.1406 171.247C13.9011 171.132 13.6399 171.068 13.3742 171.061C11.7699 171.061 10.1197 173.427 9.6803 174.786C9.6803 174.857 9.49638 175.639 9.38908 176.206C9.38908 175.869 9.38908 175.521 9.38908 175.184C9.38908 173.973 9.46572 172.865 9.54236 171.884C9.58834 171.327 9.64454 170.826 9.70074 170.351C10.1606 170.029 12.0152 168.726 12.5823 167.796C13.1494 166.866 13.6041 165.569 13.1801 164.516C13.0903 164.266 12.949 164.037 12.7652 163.844C12.5815 163.652 12.3594 163.5 12.1133 163.399C11.8672 163.298 11.6026 163.25 11.3366 163.257C11.0706 163.265 10.8092 163.328 10.5693 163.443C9.14895 164.179 8.77599 167.02 9.01101 168.45C9.01101 168.573 9.5679 170.443 9.59345 170.427H9.619C9.55769 170.882 9.49638 171.362 9.44018 171.894C9.3431 172.875 9.24092 173.989 9.21026 175.205C9.21026 175.424 9.21026 175.654 9.21026 175.884C8.59717 174.944 6.65569 172.308 4.61203 172.87C1.93484 173.631 2.51728 175.864 4.55583 176.344Z" fill="#263238"/>
<path d="M40.6573 188.678C41.6103 188.847 42.5858 188.847 43.5389 188.678C43.5305 189.292 43.5544 189.906 43.6104 190.517C43.6805 191.45 43.8344 192.375 44.0702 193.281C44.0719 193.293 44.0719 193.305 44.0702 193.317C43.9118 193.061 43.4367 192.372 43.3958 192.321C42.798 191.631 41.2398 190.65 40.2997 191.048C40.1471 191.121 40.0115 191.226 39.9017 191.355C39.7918 191.483 39.7102 191.634 39.6621 191.796C39.614 191.958 39.6004 192.129 39.6222 192.296C39.644 192.464 39.7007 192.626 39.7888 192.77C40.0069 193.063 40.2853 193.306 40.6052 193.482C40.9251 193.659 41.2792 193.764 41.6434 193.792C42.4878 193.787 43.3267 193.654 44.1315 193.399C44.392 194.316 44.7164 195.214 45.1023 196.086C45.322 196.597 45.5621 197.108 45.8073 197.619L45.5059 197.19C44.9081 196.5 43.3498 195.519 42.4097 195.917C42.2573 195.99 42.1218 196.094 42.012 196.222C41.9022 196.35 41.8206 196.5 41.7725 196.662C41.7243 196.824 41.7107 196.994 41.7324 197.162C41.7542 197.329 41.8109 197.49 41.8988 197.634C42.1153 197.929 42.3933 198.173 42.7135 198.349C43.0338 198.526 43.3887 198.631 43.7535 198.656C44.5732 198.659 45.3884 198.535 46.1701 198.288C46.2672 198.477 46.3591 198.671 46.4562 198.866C46.9211 199.79 47.3861 200.705 47.8152 201.625C47.9685 201.946 48.1064 202.268 48.2444 202.59C48.1167 202.401 48.0043 202.243 47.9838 202.222C47.3861 201.533 45.8278 200.546 44.8877 200.945C44.7276 201.013 44.5838 201.114 44.4661 201.241C44.3483 201.369 44.2593 201.521 44.2051 201.686C44.1509 201.851 44.1327 202.026 44.1517 202.199C44.1708 202.371 44.2266 202.538 44.3155 202.687C44.5336 202.98 44.812 203.223 45.1319 203.399C45.4518 203.576 45.8059 203.681 46.1701 203.709C46.9687 203.714 47.7633 203.595 48.5254 203.357C48.6582 203.689 48.7911 204.026 48.9035 204.378C48.975 204.603 49.0619 204.818 49.1181 205.053C49.1743 205.288 49.2458 205.508 49.3071 205.732C49.4144 206.167 49.5268 206.616 49.6136 207.045C49.6801 207.342 49.7414 207.628 49.7976 207.914C49.6494 207.592 49.348 206.969 49.3173 206.918C48.8064 206.146 47.4371 204.935 46.4511 205.191C46.2876 205.237 46.1357 205.316 46.0052 205.425C45.8747 205.534 45.7686 205.668 45.6939 205.821C45.6191 205.973 45.5774 206.14 45.5714 206.309C45.5654 206.479 45.5953 206.648 45.6592 206.805C45.8254 207.133 46.0616 207.421 46.3512 207.648C46.6408 207.875 46.9766 208.035 47.335 208.118C48.1647 208.245 49.0087 208.245 49.8384 208.118C49.9355 208.588 50.0224 209.053 50.099 209.493C50.1552 209.825 50.2114 210.142 50.2574 210.453H50.896C50.8347 210.111 50.7683 209.753 50.6917 209.38C50.5997 208.9 50.4873 208.384 50.3698 207.848C50.8477 207.656 51.3135 207.436 51.7646 207.189C52.3818 207.719 53.0696 208.161 53.8083 208.502C53.6243 208.951 53.4455 209.386 53.2667 209.794L52.9806 210.443H53.655L53.8236 210.029C54.0126 209.575 54.2017 209.084 54.3958 208.583C55.2145 208.771 56.0564 208.836 56.8942 208.777C57.2567 208.719 57.6023 208.582 57.9074 208.378C58.2125 208.173 58.4698 207.905 58.662 207.592C58.7376 207.44 58.7803 207.274 58.7871 207.104C58.7939 206.934 58.7648 206.765 58.7016 206.607C58.6384 206.449 58.5426 206.306 58.4204 206.188C58.2982 206.07 58.1524 205.979 57.9926 205.921C57.0219 205.594 55.5454 206.693 55.0038 207.429C54.9731 207.475 54.6768 207.98 54.4929 208.307C54.5695 208.098 54.6462 207.899 54.7228 207.684C54.8761 207.265 55.0191 206.841 55.1724 206.381C55.2388 206.156 55.3052 205.932 55.3768 205.707C55.4483 205.482 55.4943 205.237 55.5556 204.997C55.6884 204.445 55.7957 203.878 55.8877 203.305C56.6471 203.607 57.4484 203.79 58.2634 203.847C58.6306 203.846 58.9931 203.765 59.3258 203.61C59.6585 203.455 59.9533 203.229 60.1896 202.948C60.2866 202.809 60.3532 202.651 60.3852 202.484C60.4172 202.317 60.4138 202.146 60.3753 201.981C60.3367 201.815 60.2639 201.66 60.1615 201.525C60.0591 201.39 59.9294 201.277 59.7809 201.195C58.8714 200.725 57.2263 201.589 56.5979 202.217C56.557 202.258 56.1431 202.769 55.9234 203.06C55.9796 202.713 56.0358 202.37 56.0767 202.038C56.2044 201.017 56.3015 199.995 56.3986 198.973C56.4293 198.656 56.465 198.344 56.4957 198.033C56.6285 198.084 58.1817 198.661 58.9481 198.605C59.3152 198.604 59.6777 198.523 60.0104 198.368C60.3431 198.213 60.6379 197.987 60.8742 197.706C60.9722 197.567 61.0398 197.409 61.0726 197.243C61.1054 197.076 61.1026 196.905 61.0645 196.739C61.0264 196.574 60.9538 196.418 60.8515 196.283C60.7491 196.147 60.6193 196.035 60.4706 195.953C59.5612 195.483 57.916 196.347 57.2876 196.975C57.2365 197.021 56.6438 197.762 56.5008 197.961C56.5774 197.271 56.6541 196.582 56.7613 195.917C56.8989 195.007 57.0951 194.105 57.3489 193.22C57.4102 193.22 59.0298 193.853 59.8166 193.797C60.1838 193.796 60.5463 193.716 60.879 193.56C61.2116 193.405 61.5064 193.179 61.7428 192.898C61.8398 192.758 61.9065 192.6 61.9386 192.433C61.9706 192.266 61.9673 192.094 61.9287 191.928C61.8902 191.763 61.8174 191.607 61.715 191.471C61.6125 191.336 61.4827 191.223 61.334 191.14C60.4246 190.675 58.7795 191.539 58.151 192.162C58.1102 192.203 57.6401 192.765 57.4511 193.041L57.3949 193.015C57.6756 192.134 58.0347 191.279 58.4678 190.461C58.7028 190.006 58.9481 189.582 59.1984 189.178C59.9301 189.57 60.7175 189.848 61.5333 190.001C61.8983 190.038 62.267 189.996 62.6144 189.878C62.9618 189.76 63.2796 189.568 63.5463 189.316C63.6585 189.189 63.7425 189.039 63.7931 188.877C63.8437 188.715 63.8596 188.544 63.8399 188.376C63.8201 188.207 63.7651 188.044 63.6785 187.898C63.5918 187.752 63.4754 187.626 63.3368 187.528C62.4836 186.961 60.7822 187.64 60.0567 188.213L59.6582 188.601C59.6582 188.56 59.6582 188.509 59.6582 188.453L59.74 188.325C60.1691 187.681 60.5983 187.114 60.9866 186.619C61.2063 186.338 61.4158 186.108 61.6099 185.862C62.4351 185.869 63.2566 185.752 64.047 185.515C64.3879 185.38 64.6957 185.173 64.9496 184.909C65.2035 184.644 65.3975 184.328 65.5184 183.982C65.5595 183.817 65.5649 183.644 65.5345 183.477C65.504 183.309 65.4384 183.15 65.3418 183.009C65.2452 182.869 65.12 182.75 64.9743 182.662C64.8286 182.573 64.6658 182.516 64.4966 182.495C63.4748 182.383 62.2741 183.778 61.9011 184.611C61.8705 184.682 61.4975 185.868 61.518 185.868C61.3238 186.082 61.1195 186.322 60.9049 186.583C60.5115 187.094 60.067 187.605 59.6276 188.254C59.6276 187.273 59.4436 185.229 58.1459 185.106C56.4344 184.943 55.9439 186.9 57.0066 187.962C57.6153 188.528 58.4238 188.83 59.2546 188.8C58.9225 189.311 58.5955 189.822 58.2839 190.389C57.8312 191.206 57.4517 192.061 57.1496 192.944C57.1496 192.944 57.1496 192.969 57.1496 192.98C57.1496 192.678 57.1496 191.84 57.1496 191.779C57.0321 190.87 56.2709 189.194 55.2695 189.005C55.1016 188.979 54.9302 188.988 54.7663 189.033C54.6024 189.077 54.4497 189.156 54.3182 189.263C54.1866 189.371 54.0792 189.505 54.0028 189.657C53.9263 189.808 53.8827 189.974 53.8747 190.144C53.8879 190.511 53.9818 190.871 54.1495 191.197C54.3173 191.524 54.5549 191.81 54.8454 192.034C55.5497 192.5 56.3218 192.853 57.1343 193.082C56.8509 193.993 56.6256 194.921 56.4599 195.861C56.3628 196.408 56.2811 196.96 56.2096 197.517C56.2096 197.256 56.2096 197.006 56.2096 197.006C56.092 196.096 55.3359 194.42 54.3294 194.231C54.1615 194.205 53.9901 194.215 53.8262 194.26C53.6623 194.304 53.5096 194.383 53.3781 194.49C53.2465 194.598 53.1391 194.732 53.0627 194.883C52.9863 195.035 52.9426 195.201 52.9346 195.371C52.9512 195.737 53.0466 196.096 53.2141 196.422C53.3816 196.748 53.6173 197.034 53.9053 197.261C54.5883 197.716 55.3382 198.06 56.1278 198.283C56.1278 198.498 56.0716 198.712 56.0461 198.922C55.9234 199.944 55.8059 200.965 55.6629 201.987C55.6118 202.34 55.5454 202.682 55.4841 203.009C55.4841 202.779 55.4841 202.585 55.4841 202.554C55.3717 201.65 54.6104 199.969 53.6039 199.785C53.4362 199.76 53.265 199.77 53.1015 199.815C52.9379 199.86 52.7855 199.939 52.6542 200.046C52.5228 200.153 52.4154 200.287 52.3387 200.438C52.2621 200.589 52.2179 200.755 52.2091 200.925C52.2257 201.291 52.3211 201.649 52.4886 201.976C52.6561 202.302 52.8918 202.588 53.1798 202.815C53.8435 203.264 54.5725 203.609 55.341 203.837C55.2644 204.189 55.1928 204.542 55.1009 204.859C55.0396 205.089 54.9885 205.313 54.9118 205.538C54.8352 205.763 54.7688 205.988 54.6972 206.213C54.544 206.632 54.3856 207.071 54.2272 207.48L53.9002 208.302C53.9513 207.955 54.0484 207.28 54.0484 207.204C54.038 206.401 53.8216 205.615 53.42 204.92C53.4277 204.832 53.4277 204.743 53.42 204.654C53.3988 204.486 53.3424 204.324 53.2545 204.18C53.1666 204.035 53.0491 203.91 52.9098 203.814C52.7705 203.717 52.6125 203.651 52.4459 203.62C52.2794 203.589 52.1082 203.593 51.9434 203.632C50.9574 203.893 50.3289 205.63 50.2829 206.54C50.2829 206.596 50.3136 207.178 50.3443 207.562C50.2932 207.347 50.2472 207.137 50.1961 206.918C50.0888 206.478 49.9764 206.049 49.8487 205.579C49.7822 205.359 49.7158 205.135 49.6443 204.905C49.5728 204.675 49.4859 204.445 49.4093 204.215C49.21 203.678 48.9903 203.147 48.7502 202.616C49.5494 202.451 50.3182 202.163 51.0289 201.762C51.3345 201.559 51.592 201.291 51.7835 200.978C51.975 200.665 52.0958 200.313 52.1376 199.949C52.1424 199.779 52.1115 199.611 52.0469 199.454C51.9822 199.297 51.8853 199.156 51.7623 199.039C51.6394 198.923 51.4932 198.833 51.3334 198.777C51.1736 198.721 51.0037 198.699 50.8347 198.712C49.8129 198.82 48.9341 200.439 48.7502 201.333C48.7502 201.39 48.6787 202.043 48.6531 202.406C48.505 202.089 48.3619 201.773 48.2086 201.456C47.7539 200.541 47.2634 199.627 46.7832 198.717L46.3438 197.879C46.4817 197.844 48.0962 197.471 48.7042 197.006C49.009 196.8 49.2658 196.531 49.4572 196.217C49.6485 195.903 49.7699 195.552 49.8129 195.187C49.8178 195.017 49.7869 194.849 49.7222 194.692C49.6575 194.536 49.5606 194.394 49.4377 194.278C49.3147 194.161 49.1686 194.072 49.0087 194.015C48.8489 193.959 48.679 193.937 48.5101 193.95C47.4882 194.063 46.6095 195.677 46.4255 196.571C46.4255 196.643 46.3285 197.593 46.3182 197.828C45.9964 197.21 45.6847 196.592 45.3986 195.974C45.0034 195.145 44.6621 194.292 44.3768 193.419C44.4381 193.419 46.1292 193.021 46.7525 192.54C47.0581 192.337 47.3156 192.069 47.5071 191.756C47.6986 191.443 47.8195 191.091 47.8612 190.726C47.8661 190.556 47.835 190.387 47.7701 190.23C47.7052 190.073 47.6079 189.931 47.4845 189.814C47.3611 189.696 47.2143 189.607 47.0539 189.55C46.8934 189.493 46.7229 189.471 46.5533 189.485C45.5314 189.597 44.6578 191.217 44.4738 192.111C44.4738 192.167 44.3972 192.888 44.3717 193.23H44.3155C44.063 192.338 43.892 191.425 43.8045 190.502C43.7483 189.991 43.7228 189.48 43.7075 189.03C44.5338 188.952 45.3434 188.749 46.1088 188.427C46.4344 188.259 46.7193 188.021 46.9434 187.73C47.1676 187.44 47.3256 187.104 47.4065 186.746C47.4303 186.578 47.4183 186.407 47.3714 186.244C47.3245 186.081 47.2436 185.929 47.1341 185.8C47.0247 185.67 46.889 185.565 46.7361 185.491C46.5832 185.417 46.4164 185.377 46.2467 185.372C45.2249 185.372 44.1724 186.879 43.8863 187.748C43.8863 187.794 43.7688 188.294 43.7024 188.657C43.7024 188.443 43.7024 188.218 43.7024 188.013C43.7024 187.242 43.7535 186.532 43.7994 185.908C43.8301 185.551 43.8659 185.229 43.9016 184.933C44.5937 184.484 45.2138 183.932 45.7409 183.298C45.9517 182.997 46.0951 182.654 46.1612 182.292C46.2273 181.931 46.2147 181.559 46.1241 181.203C46.0671 181.043 45.9771 180.897 45.8599 180.774C45.7427 180.651 45.6009 180.554 45.4439 180.489C45.2868 180.425 45.1179 180.394 44.9481 180.399C44.7784 180.404 44.6116 180.445 44.4585 180.518C43.5491 180.988 43.309 182.817 43.4367 183.717C43.4367 183.793 43.7892 184.989 43.8045 184.979C43.7637 185.27 43.7228 185.576 43.687 185.919C43.6257 186.542 43.5593 187.252 43.544 188.029C43.544 188.172 43.544 188.315 43.544 188.463C43.1557 187.865 41.9295 186.179 40.6011 186.537C38.9866 186.946 39.3596 188.366 40.6573 188.678Z" fill="#263238"/>
<path d="M34.0252 176.538L33.9077 176.656C33.9333 176.62 33.9537 176.579 33.9792 176.538H34.0252Z" fill="#263238"/>
<path d="M119.108 16.6846H49.7666C44.1232 16.6846 39.5483 21.2596 39.5483 26.9031V181.182C39.5483 186.826 44.1232 191.401 49.7666 191.401H119.108C124.751 191.401 129.326 186.826 129.326 181.182V26.9031C129.326 21.2596 124.751 16.6846 119.108 16.6846Z" fill="#FA0E9B" stroke="#263238" stroke-miterlimit="10"/>
<path d="M129.326 32.7736V27.46C129.327 26.0452 129.049 24.6441 128.508 23.3368C127.967 22.0295 127.174 20.8416 126.174 19.8409C125.173 18.8403 123.986 18.0465 122.679 17.5049C121.372 16.9633 119.971 16.6846 118.556 16.6846H50.3235C47.4658 16.6846 44.7251 17.8198 42.7043 19.8406C40.6836 21.8614 39.5483 24.6022 39.5483 27.46V32.7736H129.326Z" fill="white" stroke="#263238" stroke-miterlimit="10"/>
<path d="M40.0234 183.788C40.6994 185.992 42.0648 187.922 43.9189 189.292C45.773 190.662 48.0179 191.402 50.3235 191.401H118.556C120.862 191.401 123.106 190.661 124.96 189.291C126.814 187.921 128.18 185.992 128.856 183.788H40.0234Z" fill="white" stroke="#263238" stroke-miterlimit="10"/>
<path d="M118.945 22.8413H110.428V27.5112H118.945V22.8413Z" stroke="#263238" stroke-width="0.821067" stroke-linecap="round" stroke-linejoin="round"/>
<path d="M117.07 22.8413H110.428V27.5112H117.07V22.8413Z" fill="#263238" stroke="#263238" stroke-width="0.725073" stroke-linecap="round" stroke-linejoin="round"/>
<path d="M120.13 24.1492H118.929V26.2082H120.13V24.1492Z" fill="#263238" stroke="#263238" stroke-width="0.725073" stroke-linecap="round" stroke-linejoin="round"/>
<path d="M49.0566 24.2922H47.4932V26.9695H49.0566V24.2922Z" fill="#263238" stroke="#263238" stroke-width="0.883086" stroke-linecap="round" stroke-linejoin="round"/>
<path d="M51.5092 23.3521H49.9458V26.9694H51.5092V23.3521Z" fill="#263238" stroke="#263238" stroke-width="0.883086" stroke-linecap="round" stroke-linejoin="round"/>
<path d="M53.9613 22.2383H52.3979V26.9643H53.9613V22.2383Z" fill="#263238" stroke="#263238" stroke-width="0.883086" stroke-linecap="round" stroke-linejoin="round"/>
<path d="M120.677 15.2488H46.967C44.589 15.2488 42.3083 16.1935 40.6267 17.8751C38.9452 19.5567 38.0005 21.8374 38.0005 24.2155V185.239C38.0005 186.416 38.2325 187.582 38.6831 188.67C39.1338 189.757 39.7944 190.746 40.627 191.578C41.4597 192.41 42.4482 193.07 43.5361 193.52C44.6239 193.97 45.7898 194.201 46.967 194.201H120.677C123.053 194.201 125.333 193.257 127.013 191.576C128.694 189.895 129.638 187.616 129.638 185.239V24.2155C129.639 23.0382 129.408 21.8724 128.957 20.7845C128.507 19.6966 127.847 18.7081 127.015 17.8754C126.183 17.0427 125.195 16.3821 124.107 15.9314C123.02 15.4807 121.854 15.2488 120.677 15.2488ZM125.653 180.963C125.653 183.339 124.709 185.619 123.028 187.299C121.348 188.98 119.068 189.924 116.692 189.924H50.9573C48.5806 189.924 46.3012 188.98 44.6206 187.299C42.94 185.619 41.9958 183.339 41.9958 180.963V28.492C41.9952 27.3147 42.2265 26.1488 42.6765 25.0609C43.1266 23.9731 43.7866 22.9846 44.6188 22.1518C45.451 21.3191 46.4391 20.6586 47.5267 20.2079C48.6143 19.7572 49.78 19.5252 50.9573 19.5252H63.1886L63.9499 23.0608C64.1694 24.0946 64.7384 25.0212 65.561 25.6847C66.3835 26.3481 67.4096 26.708 68.4663 26.7037H101.18C102.236 26.7068 103.261 26.3464 104.082 25.683C104.904 25.0197 105.472 24.0937 105.692 23.0608L106.453 19.5252H116.671C117.85 19.5225 119.018 19.7525 120.108 20.202C121.198 20.6515 122.189 21.3116 123.023 22.1446C123.857 22.9776 124.519 23.967 124.97 25.0562C125.422 26.1454 125.654 27.313 125.653 28.492V180.963Z" fill="#263238" stroke="#263238" stroke-width="1.6935" stroke-miterlimit="10"/>
<path d="M111.966 43.5491H55.1163C52.7658 43.5491 50.8604 45.4546 50.8604 47.8051V171.454C50.8604 173.805 52.7658 175.71 55.1163 175.71H111.966C114.316 175.71 116.222 173.805 116.222 171.454V47.8051C116.222 45.4546 114.316 43.5491 111.966 43.5491Z" fill="white" stroke="#263238" stroke-miterlimit="10"/>
<path d="M75.0058 51.3306C76.0787 51.3306 76.6305 51.9692 76.6305 53.0933V53.313H75.6087V53.0217C75.6087 52.5108 75.4094 52.332 75.0569 52.332C74.7044 52.332 74.5102 52.521 74.5102 53.0217C74.5102 54.4625 76.6612 54.7333 76.6612 56.7362C76.6612 57.8551 76.0992 58.4989 75.0211 58.4989C73.9431 58.4989 73.376 57.8551 73.376 56.7362V56.307H74.3978V56.8179C74.3978 57.3288 74.6175 57.4975 74.97 57.4975C75.3226 57.4975 75.5371 57.3186 75.5371 56.8179C75.5371 55.3771 73.3862 55.1063 73.3862 53.1035C73.3862 51.9692 73.9482 51.3306 75.0058 51.3306Z" fill="#263238"/>
<path d="M77.2744 51.407H78.3729V58.4169H77.2744V51.407Z" fill="#263238"/>
<path d="M80.8252 54.5136H82.3579V56.7362C82.3579 57.8551 81.7959 58.4989 80.7179 58.4989C79.6399 58.4989 79.0728 57.8551 79.0728 56.7362V53.0933C79.0728 51.9692 79.6348 51.3306 80.7179 51.3306C81.801 51.3306 82.3579 51.9692 82.3579 53.0933V53.7728H81.3361V53.0217C81.3361 52.5108 81.1164 52.332 80.769 52.332C80.4216 52.332 80.1968 52.521 80.1968 53.0217V56.8077C80.1968 57.3186 80.4165 57.4872 80.769 57.4872C81.1215 57.4872 81.3361 57.3084 81.3361 56.8077V55.5151H80.8252V54.5136Z" fill="#263238"/>
<path d="M84.0595 53.3434V58.4169H83.0684V51.407H84.4529L85.5821 55.6068V51.407H86.563V58.4169H85.4339L84.0595 53.3434Z" fill="#263238"/>
<path d="M88.9082 51.407H90.0118V58.4169H88.9082V51.407Z" fill="#263238"/>
<path d="M91.7947 53.3434V58.4169H90.8086V51.407H92.1881L93.3223 55.6068V51.407H94.3032V58.4169H93.169L91.7947 53.3434Z" fill="#263238"/>
<path d="M56.6336 78.0979V78.6088H55.341V80.489H56.9248V80.9999H54.7534V75.7629H56.9248V76.2739H55.341V78.0774L56.6336 78.0979Z" fill="#263238"/>
<path d="M59.4177 81.0357H58.8506L57.9719 76.8308V81.0408H57.4609V75.7629H58.2835L59.1521 79.9781L59.99 75.7629H60.8125V81.0408H60.2505V76.795L59.4177 81.0357Z" fill="#263238"/>
<path d="M62.0086 79.9781L61.8043 81.0408H61.2627L62.2845 75.7629H63.1378L64.1596 81.0408H63.5669L63.3677 79.9781H62.0086ZM62.0853 79.4672H63.2604L62.6677 76.4016L62.0853 79.4672Z" fill="#263238"/>
<path d="M65.1864 75.7629V81.0408H64.5938V75.7629H65.1864Z" fill="#263238"/>
<path d="M65.7739 81.0408V75.7629H66.3615V80.5094H67.8687V81.0204L65.7739 81.0408Z" fill="#263238"/>
<path d="M70.0909 79.9781L69.8917 81.0408H69.3501L70.3719 75.7629H71.2252L72.247 81.0408H71.6594L71.4551 79.9781H70.0909ZM70.1676 79.4672H71.3478L70.75 76.4016L70.1676 79.4672Z" fill="#263238"/>
<path d="M73.9181 75.7629C74.7406 75.7629 75.1187 76.2739 75.1187 77.076V79.7277C75.1187 80.535 74.7406 81.0306 73.9181 81.0306H72.6816V75.7629H73.9181ZM73.9181 80.5094C74.3421 80.5094 74.5465 80.2438 74.5465 79.7584V77.0454C74.5465 76.56 74.3421 76.2943 73.9129 76.2943H73.2794V80.5094H73.9181Z" fill="#263238"/>
<path d="M76.9015 75.7629C77.724 75.7629 78.1021 76.2739 78.1021 77.076V79.7277C78.1021 80.535 77.724 81.0306 76.9015 81.0306H75.665V75.7629H76.9015ZM76.9015 80.5094C77.3255 80.5094 77.5299 80.2438 77.5299 79.7584V77.0454C77.5299 76.56 77.3255 76.2943 76.8912 76.2943H76.2577V80.5094H76.9015Z" fill="#263238"/>
<path d="M79.8289 75.7629C80.6617 75.7629 81.0091 76.1819 81.0091 76.9687V77.3979C81.0091 77.9804 80.8048 78.3431 80.35 78.4862C80.8354 78.6292 81.0142 79.0226 81.0142 79.5847V80.4073C80.995 80.6242 81.0319 80.8424 81.1215 81.0408H80.5238C80.4417 80.8385 80.4084 80.6197 80.4267 80.4022V79.5693C80.4267 78.9767 80.1457 78.7876 79.6552 78.7876H79.2414V81.0408H78.6538V75.7629H79.8289ZM79.6807 78.2511C80.1457 78.2511 80.4267 78.0979 80.4267 77.5256V77.0147C80.4267 76.5395 80.253 76.2892 79.8136 76.2892H79.2414V78.246L79.6807 78.2511Z" fill="#263238"/>
<path d="M83.5027 78.0979V78.6088H82.2152V80.489H83.799V80.9999H81.6123V75.7629H83.7888V76.2739H82.205V78.0774L83.5027 78.0979Z" fill="#263238"/>
<path d="M86.6241 77.0301V77.1731H86.0672V76.9994C86.0672 76.5243 85.8832 76.2433 85.4643 76.2433C85.0453 76.2433 84.8614 76.5243 84.8614 76.9892C84.8614 78.1746 86.6343 78.287 86.6343 79.7738C86.6343 80.5759 86.246 81.0971 85.4387 81.0971C84.6315 81.0971 84.2534 80.5861 84.2534 79.7738V79.4723H84.8052V79.8044C84.8052 80.2796 85.0045 80.5606 85.4234 80.5606C85.8424 80.5606 86.0416 80.2796 86.0416 79.8044C86.0416 78.6293 84.279 78.5169 84.279 77.0301C84.279 76.2126 84.657 75.7068 85.449 75.7068C86.2409 75.7068 86.6241 76.2279 86.6241 77.0301Z" fill="#263238"/>
<path d="M89.429 77.0301V77.1731H88.8721V76.9994C88.8721 76.5243 88.6933 76.2433 88.2692 76.2433C87.8452 76.2433 87.6664 76.5243 87.6664 76.9892C87.6664 78.1746 89.4392 78.287 89.4392 79.7738C89.4392 80.5759 89.0509 81.0971 88.2437 81.0971C87.4364 81.0971 87.0635 80.5861 87.0635 79.7738V79.4723H87.6102V79.8044C87.6102 80.2796 87.8094 80.5606 88.2284 80.5606C88.6473 80.5606 88.8517 80.2796 88.8517 79.8044C88.8517 78.6293 87.0839 78.5169 87.0839 77.0301C87.0839 76.2126 87.462 75.7068 88.2539 75.7068C89.0458 75.7068 89.429 76.2279 89.429 77.0301Z" fill="#263238"/>
<path d="M55.9081 102.157C56.7358 102.157 57.0934 102.668 57.0934 103.445V104.084C57.1212 104.253 57.1088 104.427 57.0574 104.591C57.006 104.756 56.9169 104.905 56.7973 105.029C56.6776 105.153 56.5308 105.246 56.3684 105.303C56.2061 105.36 56.0327 105.378 55.8621 105.356H55.3512V107.44H54.7637V102.157H55.9081ZM55.8621 104.83C56.3015 104.83 56.511 104.625 56.511 104.119V103.419C56.511 102.909 56.3373 102.694 55.9081 102.694H55.341V104.83H55.8621Z" fill="#263238"/>
<path d="M58.0487 106.373L57.8443 107.44H57.3027L58.3246 102.157H59.1778L60.1996 107.44H59.5916L59.3873 106.373H58.0487ZM58.1253 105.862H59.3004L58.7078 102.796L58.1253 105.862Z" fill="#263238"/>
<path d="M62.9229 103.425V103.568H62.366V103.394C62.366 102.919 62.1821 102.638 61.7631 102.638C61.3442 102.638 61.1551 102.919 61.1551 103.389C61.1551 104.574 62.928 104.687 62.928 106.173C62.928 106.97 62.5448 107.492 61.7376 107.492C60.9303 107.492 60.5522 106.981 60.5522 106.173V105.872H61.104V106.204C61.104 106.679 61.2982 106.955 61.7222 106.955C62.1463 106.955 62.3404 106.679 62.3404 106.204C62.3404 105.024 60.5778 104.911 60.5778 103.425C60.5778 102.612 60.9508 102.106 61.7478 102.106C62.5448 102.106 62.9229 102.622 62.9229 103.425Z" fill="#263238"/>
<path d="M65.7281 103.425V103.568H65.1712V103.394C65.1712 102.919 64.9872 102.638 64.5683 102.638C64.1493 102.638 63.9603 102.919 63.9603 103.389C63.9603 104.574 65.7332 104.687 65.7332 106.173C65.7332 106.97 65.35 107.492 64.5427 107.492C63.7355 107.492 63.3574 106.981 63.3574 106.173V105.872H63.9092V106.204C63.9092 106.679 64.1085 106.955 64.5274 106.955C64.9464 106.955 65.1456 106.679 65.1456 106.204C65.1456 105.024 63.383 104.911 63.383 103.425C63.383 102.612 63.761 102.106 64.553 102.106C65.3449 102.106 65.7281 102.622 65.7281 103.425Z" fill="#263238"/>
<path d="M67.6487 107.44H66.8415L66.1211 102.157H66.6933L67.3115 106.654L67.8991 102.163H68.4815L69.064 106.664L69.6566 102.157H70.1675L69.4472 107.44H68.6706L68.1596 103.864L67.6487 107.44Z" fill="#263238"/>
<path d="M70.5967 103.435C70.5967 102.622 71.0003 102.106 71.8075 102.106C72.6148 102.106 73.0184 102.617 73.0184 103.435V106.163C73.0184 106.965 72.6199 107.492 71.8075 107.492C70.9952 107.492 70.5967 106.981 70.5967 106.163V103.435ZM71.1791 106.194C71.1791 106.679 71.3835 106.955 71.8075 106.955C72.2316 106.955 72.4309 106.679 72.4309 106.194V103.404C72.4309 102.929 72.2367 102.638 71.8075 102.638C71.3784 102.638 71.1791 102.929 71.1791 103.404V106.194Z" fill="#263238"/>
<path d="M74.7559 102.157C75.5836 102.157 75.931 102.582 75.931 103.363V103.792C75.931 104.375 75.7266 104.738 75.277 104.881C75.7573 105.024 75.9412 105.417 75.9412 105.984V106.807C75.9238 107.023 75.9589 107.241 76.0434 107.44H75.4507C75.364 107.238 75.3288 107.016 75.3486 106.797V105.969C75.3486 105.371 75.0727 105.182 74.5822 105.182H74.1683V107.44H73.5757V102.157H74.7559ZM74.6026 104.646C75.0727 104.646 75.3486 104.498 75.3486 103.925V103.414C75.3486 102.939 75.1748 102.689 74.7406 102.689H74.1683V104.641L74.6026 104.646Z" fill="#263238"/>
<path d="M77.7852 102.157C78.6078 102.157 78.9859 102.668 78.9859 103.471V106.132C78.9859 106.94 78.6078 107.44 77.7852 107.44H76.5488V102.157H77.7852ZM77.7852 106.904C78.2042 106.904 78.4086 106.638 78.4086 106.158V103.44C78.4086 102.955 78.2042 102.694 77.775 102.694H77.1415V106.904H77.7852Z" fill="#263238"/>
<path d="M64.9102 127.837C65.7379 127.837 66.0853 128.256 66.0853 129.042V129.472C66.0853 130.054 65.8809 130.417 65.4313 130.56C65.9116 130.703 66.0955 131.096 66.0955 131.658V132.481C66.0777 132.699 66.1127 132.918 66.1977 133.12H65.605C65.5189 132.917 65.4838 132.696 65.5029 132.476V131.648C65.5029 131.05 65.227 130.861 64.7365 130.861H64.3226V133.12H63.73V127.837H64.9102ZM64.7518 130.31C65.2219 130.31 65.4977 130.161 65.4977 129.584V129.073C65.4977 128.598 65.324 128.353 64.8898 128.353H64.3175V130.31H64.7518Z" fill="#263238"/>
<path d="M68.5836 130.177V130.688H67.3063V132.568H68.8901V133.104H66.7188V127.837H68.8901V128.348H67.3063V130.151L68.5836 130.177Z" fill="#263238"/>
<path d="M71.3633 133.109H70.8013L69.9225 128.905V133.12H69.4116V127.837H70.2342L71.1027 132.052L71.9407 127.837H72.7632V133.12H72.2012V128.869L71.3633 133.109Z" fill="#263238"/>
<path d="M75.241 130.177V130.688H73.9484V132.568H75.5373V133.104H73.3608V127.837H75.5373V128.348H73.9484V130.151L75.241 130.177Z" fill="#263238"/>
<path d="M78.0357 133.109H77.4686L76.5949 128.905V133.12H76.084V127.837H76.9066L77.7751 132.052L78.613 127.837H79.4356V133.12H78.8787V128.869L78.0357 133.109Z" fill="#263238"/>
<path d="M81.2036 127.837C82.0262 127.837 82.3532 128.225 82.3532 129.007V129.252C82.3532 129.814 82.1948 130.161 81.735 130.304C82.2459 130.447 82.4452 130.851 82.4452 131.434V131.878C82.4691 132.044 82.4545 132.213 82.4025 132.373C82.3506 132.532 82.2627 132.677 82.1457 132.797C82.0287 132.917 81.8856 133.009 81.7276 133.065C81.5695 133.121 81.4008 133.139 81.2343 133.12H80.0234V127.837H81.2036ZM81.0606 130.075C81.5306 130.075 81.7708 129.926 81.7708 129.375V129.063C81.7708 128.598 81.6124 128.373 81.1934 128.373H80.5906V130.075H81.0606ZM81.2343 132.583C81.6686 132.583 81.8627 132.353 81.8627 131.863V131.398C81.8627 130.81 81.6277 130.611 81.1219 130.611H80.611V132.583H81.2343Z" fill="#263238"/>
<path d="M84.8567 130.177V130.688H83.5641V132.568H85.1531V133.104H82.9766V127.837H85.1531V128.348H83.5641V130.151L84.8567 130.177Z" fill="#263238"/>
<path d="M86.8697 127.837C87.6974 127.837 88.0448 128.256 88.0448 129.042V129.472C88.0448 130.054 87.8404 130.417 87.3908 130.56C87.8711 130.703 88.055 131.096 88.055 131.658V132.481C88.0362 132.7 88.0732 132.919 88.1623 133.12H87.5645C87.4831 132.915 87.4499 132.695 87.4675 132.476V131.648C87.4675 131.05 87.1865 130.861 86.696 130.861H86.2821V133.12H85.6997V127.837H86.8697ZM86.7215 130.31C87.1916 130.31 87.4726 130.161 87.4726 129.584V129.073C87.4726 128.598 87.2989 128.353 86.8595 128.353H86.2873V130.31H86.7215Z" fill="#263238"/>
<path d="M90.6094 133.109H90.0423L89.1686 128.905V133.12H88.6577V127.837H89.4803L90.3488 132.052L91.1816 127.837H92.0042V133.12H91.4473V128.869L90.6094 133.109Z" fill="#263238"/>
<path d="M94.4871 130.177V130.688H93.1945V132.568H94.7783V133.104H92.6069V127.837H94.7783V128.348H93.1945V130.151L94.4871 130.177Z" fill="#263238"/>
<path d="M110.213 145.898H58.3093C57.3696 145.898 56.6079 146.66 56.6079 147.599V155.687C56.6079 156.627 57.3696 157.389 58.3093 157.389H110.213C111.153 157.389 111.914 156.627 111.914 155.687V147.599C111.914 146.66 111.153 145.898 110.213 145.898Z" fill="#263238" stroke="#263238" stroke-miterlimit="10"/>
<path d="M80.8266 158.698C80.8266 158.337 80.6897 158.059 80.4158 157.862C80.1467 157.66 79.6734 157.487 78.9959 157.343C78.3232 157.198 77.7875 157.025 77.3886 156.824C76.9946 156.622 76.7015 156.382 76.5093 156.103C76.3219 155.824 76.2282 155.493 76.2282 155.108C76.2282 154.469 76.4973 153.929 77.0355 153.487C77.5784 153.045 78.2704 152.823 79.1112 152.823C79.9953 152.823 80.7113 153.052 81.259 153.508C81.8116 153.965 82.0879 154.548 82.0879 155.26H80.7473C80.7473 154.894 80.5912 154.58 80.2788 154.315C79.9713 154.051 79.5821 153.919 79.1112 153.919C78.6259 153.919 78.2463 154.025 77.9724 154.236C77.6986 154.448 77.5616 154.724 77.5616 155.065C77.5616 155.387 77.689 155.63 77.9436 155.793C78.1983 155.956 78.6572 156.112 79.3202 156.261C79.9881 156.41 80.5287 156.588 80.9419 156.795C81.3551 157.001 81.6603 157.251 81.8573 157.544C82.0591 157.833 82.16 158.186 82.16 158.604C82.16 159.301 81.8813 159.86 81.3239 160.283C80.7665 160.701 80.0434 160.91 79.1545 160.91C78.5298 160.91 77.9772 160.8 77.4968 160.579C77.0163 160.358 76.6391 160.05 76.3652 159.656C76.0961 159.257 75.9616 158.827 75.9616 158.366H77.2949C77.319 158.813 77.4968 159.168 77.8283 159.433C78.1646 159.692 78.6067 159.822 79.1545 159.822C79.659 159.822 80.0626 159.721 80.3653 159.519C80.6728 159.313 80.8266 159.039 80.8266 158.698ZM88.7116 159.995C88.1926 160.605 87.431 160.91 86.4268 160.91C85.5955 160.91 84.9613 160.67 84.524 160.19C84.0916 159.704 83.8729 158.988 83.8681 158.042V152.968H85.2015V158.006C85.2015 159.188 85.682 159.779 86.643 159.779C87.6617 159.779 88.3392 159.399 88.6755 158.64V152.968H90.0089V160.766H88.7404L88.7116 159.995ZM82.8879 173.953C82.8879 175.145 82.614 176.104 82.0663 176.829C81.5185 177.55 80.7834 177.91 79.8608 177.91C78.8758 177.91 78.1142 177.562 77.576 176.865L77.5112 177.766H76.2859V166.695H77.6193V170.825C78.1574 170.157 78.8998 169.823 79.8464 169.823C80.793 169.823 81.5353 170.181 82.0735 170.897C82.6164 171.613 82.8879 172.594 82.8879 173.838V173.953ZM81.5545 173.802C81.5545 172.894 81.3792 172.192 81.0284 171.697C80.6776 171.203 80.1731 170.955 79.5148 170.955C78.6355 170.955 78.0037 171.363 77.6193 172.18V175.553C78.0277 176.37 78.6644 176.779 79.5293 176.779C80.1683 176.779 80.6656 176.531 81.0212 176.036C81.3768 175.541 81.5545 174.797 81.5545 173.802ZM85.8286 169.968L85.8646 170.833C86.4364 170.16 87.2076 169.823 88.1782 169.823C89.2689 169.823 90.0113 170.242 90.4053 171.078C90.6648 170.703 91.0011 170.4 91.4143 170.169C91.8324 169.939 92.3249 169.823 92.8919 169.823C94.6024 169.823 95.4721 170.729 95.501 172.541V177.766H94.1676V172.62C94.1676 172.063 94.0403 171.647 93.7856 171.373C93.5309 171.094 93.1033 170.955 92.5027 170.955C92.0078 170.955 91.5969 171.104 91.2702 171.402C90.9435 171.695 90.7537 172.091 90.7008 172.591V177.766H89.3602V172.656C89.3602 171.522 88.8053 170.955 87.6953 170.955C86.8208 170.955 86.2226 171.327 85.9006 172.072V177.766H84.5673V169.968H85.8286ZM77.7346 194.766H76.4012V186.968H77.7346V194.766ZM76.2931 184.899C76.2931 184.683 76.358 184.5 76.4877 184.351C76.6222 184.202 76.8193 184.128 77.0787 184.128C77.3382 184.128 77.5352 184.202 77.6697 184.351C77.8043 184.5 77.8715 184.683 77.8715 184.899C77.8715 185.115 77.8043 185.296 77.6697 185.44C77.5352 185.584 77.3382 185.656 77.0787 185.656C76.8193 185.656 76.6222 185.584 76.4877 185.44C76.358 185.296 76.2931 185.115 76.2931 184.899ZM81.6843 185.079V186.968H83.1402V187.998H81.6843V192.835C81.6843 193.147 81.7492 193.382 81.8789 193.541C82.0086 193.695 82.2296 193.771 82.542 193.771C82.6957 193.771 82.9071 193.743 83.1762 193.685V194.766C82.8255 194.862 82.4843 194.91 82.1528 194.91C81.557 194.91 81.1077 194.73 80.805 194.37C80.5023 194.009 80.3509 193.498 80.3509 192.835V187.998H78.931V186.968H80.3509V185.079H81.6843Z" fill="white"/>
<path d="M111.552 83.769H54.8096V92.3884H111.552V83.769Z" fill="white" stroke="#263238" stroke-miterlimit="10"/>
<path d="M111.552 110.526H54.8096V119.146H111.552V110.526Z" fill="white" stroke="#263238" stroke-miterlimit="10"/>
<path d="M60.5572 127.586H55.5298V132.614H60.5572V127.586Z" fill="white" stroke="#263238" stroke-miterlimit="10"/>
<path d="M164.993 198.222C162.638 198.575 160.239 198.536 157.897 198.104C153.871 197.394 149.615 193.966 149.615 193.966L146.187 194.201V179.302C146.187 179.302 152.118 178.234 153.993 178.336C155.868 178.439 164.993 187.446 164.993 187.446V198.222Z" fill="white" stroke="#263238" stroke-miterlimit="10"/>
<path d="M149.543 199.8H138.569L136.725 178.04H151.388L149.543 199.8Z" fill="#FA0E9B" stroke="#263238" stroke-miterlimit="10"/>
<path d="M151.056 174.382H137.399V175.583H151.056V174.382Z" fill="white" stroke="#263238" stroke-miterlimit="10"/>
<path d="M151.863 175.358H136.249V179.614H151.863V175.358Z" fill="white" stroke="#263238" stroke-miterlimit="10"/>
<path d="M158.602 194.793C153.165 194.201 152.573 188.289 152.573 188.289C152.573 188.289 148.434 191.13 146.656 191.13C144.878 191.13 144.408 189.827 144.056 188.918C143.703 188.008 151.98 182.613 151.98 182.613C151.98 182.613 153.513 181.08 154.821 181.08C156.129 181.08 161.677 188.647 162.745 189.95" fill="white"/>
<path d="M158.602 194.793C153.165 194.201 152.573 188.289 152.573 188.289C152.573 188.289 148.434 191.13 146.656 191.13C144.878 191.13 144.408 189.827 144.056 188.918C143.703 188.008 151.98 182.613 151.98 182.613C151.98 182.613 153.513 181.08 154.821 181.08C156.129 181.08 161.677 188.647 162.745 189.95" stroke="#263238" stroke-miterlimit="10"/>
<path d="M227.156 210.53L226.727 161.92L224.561 174.494L225.414 210.53H227.156Z" fill="#263238" stroke="#263238" stroke-miterlimit="10"/>
<path d="M223.733 210.525L224.014 184.09C224.014 184.09 228.142 175.67 228.459 171.725C228.776 167.781 230.983 158.16 228.934 153.746C226.885 149.331 228.684 134.382 228.684 134.382L226.768 127.566C225.506 124.255 213.367 116.53 208.794 114.951C204.269 113.491 199.485 113.007 194.759 113.531C190.672 114.006 188.449 116.371 187.974 117.158C187.499 117.945 184.98 125.517 181.981 129.62C178.982 133.722 176.463 136.716 174.256 139.869C172.049 143.021 170.629 149.49 169.208 153.276C167.788 157.062 165.422 173.932 164.319 182.909C163.348 190.829 163.966 206.816 164.13 210.499L223.733 210.525Z" fill="#808080" stroke="#263238" stroke-miterlimit="10"/>
<path d="M180.443 143.042C182.032 141.401 183.821 139.966 185.767 138.771C190.657 135.93 194.126 133.406 194.126 133.406L193.18 127.888L198.228 130.253C198.228 130.253 199.332 126.784 202.484 120.791C205.637 114.798 205.795 113.536 205.795 113.536" stroke="#263238" stroke-miterlimit="10"/>
<path d="M176.346 147.717C177.358 146.392 178.441 145.123 179.59 143.916" stroke="#263238" stroke-miterlimit="10"/>
<path d="M198.33 141.116L190.963 210.474H193.563L200.067 143.282L198.33 141.116Z" fill="#263238" stroke="#263238" stroke-miterlimit="10"/>
<path d="M169.331 210.525C169.188 204.087 168.733 177.417 170.945 167.469C173.469 156.111 175.677 143.338 179.457 137.979C183.238 132.619 190.973 125.834 195.071 121.89C197.678 119.259 199.759 116.155 201.202 112.744L195.546 97.4519C195.546 97.4519 190.498 105.969 188.904 106.597C188.904 106.597 190.483 113.694 189.379 117.797C188.276 121.9 181.021 133.564 178.814 136.405C176.606 139.246 169.842 154.834 168.422 165.262C167.17 174.459 167.022 203.745 167.006 210.53L169.331 210.525Z" fill="white" stroke="#263238" stroke-miterlimit="10"/>
<path d="M189.39 109.178L197.355 109.009L194.642 103.077L189.39 109.178Z" fill="#263238" stroke="#263238" stroke-miterlimit="10"/>
<path d="M169.331 210.525C169.188 204.087 168.733 177.417 170.945 167.469C173.469 156.111 175.677 143.338 179.457 137.979C183.238 132.619 190.973 125.834 195.071 121.89C196.39 120.603 197.566 119.176 198.576 117.634C194.075 120.699 190.498 120.801 188.357 120.403C185.987 125.543 180.648 134.034 178.808 136.4C176.601 139.241 169.821 154.849 168.401 165.257C167.149 174.454 167.001 203.74 166.986 210.525H169.331Z" fill="#FA0E9B" stroke="#263238" stroke-miterlimit="10"/>
<path d="M189.021 108.043C189.021 108.043 190.554 113.904 190.401 116.484C190.248 119.064 187.989 126.478 185.23 130.442C182.471 134.407 177.996 140.436 174.379 141.989C170.761 143.543 169.382 143.522 169.382 143.522C171.621 142.429 173.56 140.807 175.03 138.796C176.501 136.785 177.459 134.445 177.822 131.98C179.202 123.361 174.721 102.515 174.547 101.136C174.373 99.7561 189.021 108.043 189.021 108.043Z" fill="#263238" stroke="#263238" stroke-miterlimit="10"/>
<path d="M169.203 84.1778C169.203 84.1778 168.861 90.9987 169.546 92.1891C170.23 93.3796 172.1 94.2328 172.1 96.2766C172.1 98.3203 170.394 102.076 171.247 103.266C172.1 104.456 175.166 104.462 175.166 104.462C175.166 104.462 179.764 109.745 180.965 110.94C182.165 112.136 183.861 114.006 184.715 113.668C185.568 113.331 192.046 106.679 193.579 104.119C195.112 101.56 195.965 92.5264 195.285 88.6076C194.606 84.6887 185.067 78.2051 179.769 77.8781C176.383 77.707 172.991 78.0515 169.709 78.9L169.203 84.1778Z" fill="white" stroke="#263238" stroke-miterlimit="10"/>
<path d="M175.171 91.8521L176.254 94.7132L180.239 92.2506" stroke="#263238" stroke-miterlimit="10"/>
<path d="M173.245 90.728C173.245 90.728 172.161 86.6712 178.119 87.7544" stroke="#263238" stroke-miterlimit="10"/>
<path d="M177.388 105.151C177.388 105.151 180.285 104.298 182.497 100.717" stroke="#263238" stroke-miterlimit="10"/>
<path d="M178.206 94.0337C178.369 94.3454 178.139 94.7899 177.695 95.0556C177.25 95.3213 176.745 95.2395 176.581 94.933C176.418 94.6264 176.647 94.1768 177.092 93.9111C177.536 93.6454 178.037 93.7425 178.206 94.0337Z" fill="#263238"/>
<path d="M172.953 68.6611C172.953 68.6611 161.872 75.8141 162.735 78.2103C163.598 80.6065 169.213 84.1779 169.213 84.1779L169.724 80.4277C169.724 80.4277 175.523 83.3247 180.964 85.3735L186.421 87.4172C187.228 88.3118 188.081 89.1645 188.976 89.9718C189.66 90.4828 192.041 90.4828 192.041 90.4828C192.041 90.4828 192.894 108.723 196.128 112.989C199.362 117.255 208.743 121.164 215.032 123.897C221.322 126.631 224.116 126.84 225.823 129.226C227.529 131.612 228.244 139.205 228.244 139.205C228.244 139.205 238.555 128.557 223.953 103.271C213.362 84.929 214.578 82.8342 210.996 76.6775C207.414 70.5209 198.734 61.503 190.197 60.8388C181.659 60.1746 172.953 68.6611 172.953 68.6611Z" fill="#263238" stroke="#263238" stroke-miterlimit="10"/>
<path d="M213.643 111.998C214.821 112.63 216.035 113.192 217.28 113.679" stroke="#787878" stroke-miterlimit="10"/>
<path d="M187.029 67.5779C192.4 72.1166 195.891 78.4905 196.824 85.4603C197.963 94.5701 201.8 103.68 209.903 109.658" stroke="#787878" stroke-miterlimit="10"/>
<path d="M182.216 76.5344C184.376 77.1892 186.47 78.0445 188.47 79.0891" stroke="#787878" stroke-miterlimit="10"/>
<path d="M167.149 78.8134C167.149 78.8134 164.268 77.6638 167.44 75.3595C169.316 73.9903 174.333 74.4501 179.309 75.707" stroke="#787878" stroke-miterlimit="10"/>
<path d="M192.051 88.95C192.051 88.95 190.687 77.5308 187.453 73.1113" stroke="#787878" stroke-miterlimit="10"/>
<path d="M133.414 164.95L121.198 155.611C121.1 155.536 121.026 155.434 120.986 155.317C120.946 155.2 120.941 155.074 120.973 154.955C121.005 154.835 121.071 154.728 121.164 154.647C121.257 154.565 121.372 154.513 121.494 154.497L127.911 153.628C128.354 153.567 128.804 153.596 129.235 153.714C129.667 153.832 130.069 154.035 130.42 154.313L142.876 164.158L133.414 164.95Z" fill="#263238" stroke="#263238" stroke-miterlimit="10"/>
<path d="M158.173 165.563C158.173 165.563 155.332 163.039 154.387 161.624C153.848 160.905 153.122 160.347 152.287 160.013C151.453 159.678 150.542 159.58 149.656 159.729C147.919 160.045 143.98 159.1 143.346 159.887C142.712 160.674 142.718 162.728 142.718 162.728C142.718 162.728 132.939 163.356 132.152 163.198C131.365 163.039 130.732 164.301 131.36 165.405C131.988 166.509 136.571 167.735 136.571 167.735C136.569 168.62 136.77 169.494 137.159 170.289C137.833 171.659 138.952 173.784 139.877 174.704C141.297 176.124 144.291 176.748 147.449 177.386C150.606 178.025 155.649 177.228 155.649 177.228L158.173 165.563Z" fill="white" stroke="#263238" stroke-miterlimit="10"/>
<path d="M142.717 162.743L150.126 162.268" stroke="#263238" stroke-miterlimit="10"/>
<path d="M136.571 167.75C138.305 167.655 140.044 167.713 141.767 167.924C143.847 168.266 145.579 168.614 146.79 168.266" stroke="#263238" stroke-miterlimit="10"/>
<path d="M137.159 170.31C138.658 170.577 140.139 170.937 141.593 171.388C142.978 171.899 145.231 173.289 147.479 172.599" stroke="#263238" stroke-miterlimit="10"/>
<path d="M139.345 173.81C139.345 173.81 143.157 175.542 146.1 175.368" stroke="#263238" stroke-miterlimit="10"/>
<path d="M225.036 134.668C225.036 134.668 225.69 142.061 225.69 147.446C225.69 152.831 225.062 163.688 221.434 171.097C217.807 178.505 218.752 183.717 215.125 191.13C211.497 198.544 208.994 198.697 198.566 197.772C188.138 196.848 176.331 192.883 175.702 192.883C175.074 192.883 165.739 191.11 161.315 188.918C158.311 187.373 155.41 185.635 152.629 183.717C152.768 182.417 153.087 181.143 153.575 179.931C154.367 178.04 156.89 164.317 156.89 164.317C159.794 166.03 162.857 167.457 166.036 168.578C168.824 169.456 171.67 170.139 174.553 170.622C174.553 170.622 177.547 168.731 178.492 168.414C179.437 168.098 181.333 170.305 184.015 170.938C186.47 171.504 188.955 171.927 191.459 172.206C192.092 172.206 198.535 171.439 198.101 171.572C197.523 171.746 196.987 170.55 197.156 169.528C197.684 167.889 198.368 166.305 199.199 164.797C199.669 164.164 199.669 161.798 199.669 160.224C199.669 158.651 197.462 142.086 198.566 137.514C199.669 132.941 206.275 123.473 206.275 123.473C206.275 123.473 206.567 122.048 210.061 122.053C213.556 122.058 219.207 125.839 221.572 127.888" fill="#808080"/>
<path d="M225.036 134.668C225.036 134.668 225.69 142.061 225.69 147.446C225.69 152.831 225.062 163.688 221.434 171.097C217.807 178.505 218.752 183.717 215.125 191.13C211.497 198.544 208.994 198.697 198.566 197.772C188.138 196.848 176.331 192.883 175.702 192.883C175.074 192.883 165.739 191.11 161.315 188.918C158.311 187.373 155.41 185.635 152.629 183.717C152.768 182.417 153.087 181.143 153.575 179.931C154.367 178.04 156.89 164.317 156.89 164.317C159.794 166.03 162.857 167.457 166.036 168.578C168.824 169.456 171.67 170.139 174.553 170.622C174.553 170.622 177.547 168.731 178.492 168.414C179.437 168.098 181.333 170.305 184.015 170.938C186.47 171.504 188.955 171.927 191.459 172.206C192.092 172.206 198.535 171.439 198.101 171.572C197.523 171.746 196.987 170.55 197.156 169.528C197.684 167.889 198.368 166.305 199.199 164.797C199.669 164.164 199.669 161.798 199.669 160.224C199.669 158.651 197.462 142.086 198.566 137.514C199.669 132.941 206.275 123.473 206.275 123.473C206.275 123.473 206.567 122.048 210.061 122.053C213.556 122.058 219.207 125.839 221.572 127.888" stroke="#263238" stroke-miterlimit="10"/>
<path d="M221.209 143.629C219.965 142.329 218.487 141.277 216.851 140.528C214.916 139.713 212.759 139.594 210.746 140.191" stroke="#263238" stroke-miterlimit="10"/>
<path d="M223.289 145.964C223.289 145.964 222.819 145.336 222.042 144.493" stroke="#263238" stroke-miterlimit="10"/>
<path d="M156.661 181.995C156.661 182.177 156.607 182.355 156.506 182.506C156.405 182.657 156.261 182.775 156.093 182.845C155.925 182.914 155.74 182.932 155.562 182.897C155.383 182.861 155.219 182.774 155.091 182.645C154.962 182.517 154.874 182.353 154.839 182.174C154.803 181.996 154.822 181.811 154.891 181.643C154.961 181.475 155.079 181.331 155.23 181.23C155.381 181.129 155.559 181.075 155.741 181.075C155.984 181.077 156.218 181.174 156.39 181.346C156.562 181.518 156.659 181.751 156.661 181.995V181.995Z" stroke="#263238" stroke-miterlimit="10"/>
<path d="M204.635 177.703C205.226 178.349 205.878 178.936 206.582 179.456" stroke="#263238" stroke-miterlimit="10"/>
<path d="M198.382 170.785C198.382 170.785 201.187 174.055 203.583 176.6" stroke="#263238" stroke-miterlimit="10"/>
<path d="M187.882 179.476C188.391 180.237 188.942 180.969 189.533 181.668" stroke="#263238" stroke-miterlimit="10"/>
<path d="M182.932 171.255C182.932 171.255 184.95 174.924 186.978 178.081" stroke="#263238" stroke-miterlimit="10"/>
<path d="M162.122 180.411C161.473 183.477 160.747 186.205 160.078 187.344" stroke="#263238" stroke-miterlimit="10"/>
<path d="M164.161 168.736C164.161 168.736 163.527 173.192 162.628 177.81" stroke="#263238" stroke-miterlimit="10"/>
<path d="M41.7606 210.53H5.99658" stroke="#263238" stroke-miterlimit="10"/>
<path d="M236.107 210.53H46.8696" stroke="#263238" stroke-miterlimit="10"/>
</svg>
