<svg width="242" height="216" viewBox="0 0 242 216" fill="none" xmlns="http://www.w3.org/2000/svg">
<path d="M228.84 108.456C228.84 108.456 228.84 105.433 224.608 101.245C220.377 97.0559 217.693 94.626 217.693 94.626C217.693 94.626 215.59 101.541 219.507 105.754C222.382 108.713 225.5 111.426 228.827 113.866L228.84 108.456Z" fill="#FA0E9B"/>
<path d="M222.735 127.23C222.735 127.23 222.735 124.208 218.503 120.019C214.272 115.83 211.601 113.4 211.601 113.4C211.601 113.4 209.491 120.315 213.414 124.528C216.289 127.487 219.407 130.201 222.735 132.64V127.23Z" fill="#FA0E9B"/>
<path d="M228.574 113.575C228.574 113.575 228.894 110.589 233.524 106.848C238.154 103.106 241.098 101.003 241.098 101.003C241.098 101.003 242.458 108.099 238.13 111.883C234.958 114.522 231.572 116.892 228.005 118.967L228.574 113.575Z" fill="#FA0E9B"/>
<path d="M221.199 135.746C221.199 135.746 221.804 132.809 226.827 129.575C231.85 126.341 234.969 124.558 234.969 124.558C234.969 124.558 235.573 131.763 230.877 135.057C227.445 137.349 223.828 139.351 220.063 141.041L221.199 135.746Z" fill="#FA0E9B"/>
<path d="M222.583 159.924C222.583 159.924 222.583 156.902 226.815 152.707C231.046 148.513 233.723 146.095 233.723 146.095C233.723 146.095 235.833 153.01 231.91 157.217C229.036 160.179 225.918 162.894 222.59 165.334L222.583 159.924Z" fill="#FA0E9B"/>
<path d="M222.517 165.824C222.517 165.824 222.94 162.85 219.374 158.087C215.807 153.324 213.468 150.556 213.468 150.556C213.468 150.556 210.404 157.102 213.674 161.823C216.098 165.161 218.797 168.291 221.743 171.179L222.517 165.824Z" fill="#FA0E9B"/>
<path d="M218.364 183.311C218.364 183.311 218.364 180.288 222.595 176.1C226.827 171.911 229.51 169.481 229.51 169.481C229.51 169.481 231.614 176.396 227.697 180.609C224.821 183.569 221.703 186.284 218.376 188.727L218.364 183.311Z" fill="#FA0E9B"/>
<path d="M221.175 199.165C221.175 199.165 220.413 196.258 223.418 191.12C226.422 185.982 228.434 182.972 228.434 182.972C228.434 182.972 232.218 189.125 229.504 194.191C227.474 197.782 225.147 201.197 222.547 204.4L221.175 199.165Z" fill="#FA0E9B"/>
<path d="M229.22 107.688C229.009 110.818 228.625 113.933 228.072 117.021C226.404 125.616 222.245 131.165 220.583 138.926C218.921 146.687 223.696 156.691 222.396 166.664C221.097 176.637 217.24 182.18 218.346 188.835C219.452 195.49 225.279 213.515 225.279 213.515" stroke="#263238" stroke-linecap="round" stroke-linejoin="round"/>
<path d="M228.537 115.576L233.07 112.095" stroke="#263238" stroke-linecap="round" stroke-linejoin="round"/>
<path d="M228.749 111.569L226.845 108.19" stroke="#263238" stroke-linecap="round" stroke-linejoin="round"/>
<path d="M220.836 138.569C220.836 138.569 224.632 135.722 228.537 132.875" stroke="#263238" stroke-linecap="round" stroke-linejoin="round"/>
<path d="M222.735 132.64C222.735 132.64 219.567 126.438 215.983 122.328" stroke="#263238" stroke-linecap="round" stroke-linejoin="round"/>
<path d="M222.734 164.204C224.9 160.202 227.636 156.537 230.858 153.324" stroke="#263238" stroke-linecap="round" stroke-linejoin="round"/>
<path d="M221.997 168.423C220.845 165.71 219.468 163.097 217.881 160.614C215.669 157.344 215.348 156.92 215.348 156.92" stroke="#263238" stroke-linecap="round" stroke-linejoin="round"/>
<path d="M218.364 188.835C219.328 186.453 220.472 184.147 221.785 181.938C223.1 179.886 224.582 177.945 226.216 176.136" stroke="#263238" stroke-linecap="round" stroke-linejoin="round"/>
<path d="M222.547 204.4C222.327 202.122 222.719 199.826 223.683 197.751C225.267 194.692 227.056 190.685 227.794 189.101" stroke="#263238" stroke-linecap="round" stroke-linejoin="round"/>
<path d="M194.495 148.621C194.495 148.621 194.168 146.736 196.35 143.635C198.533 140.534 199.977 138.739 199.977 138.739C199.977 138.739 202.044 142.849 200.05 145.908C198.568 148.077 196.908 150.119 195.087 152.012L194.495 148.621Z" fill="#FA0E9B"/>
<path d="M200.364 159.731C200.364 159.731 200.038 157.845 202.22 154.745C204.402 151.644 205.846 149.849 205.846 149.849C205.846 149.849 207.914 153.959 205.919 157.023C204.436 159.19 202.776 161.23 200.956 163.122L200.364 159.731Z" fill="#FA0E9B"/>
<path d="M195.214 151.801C195.214 151.801 194.694 149.988 191.382 148.12C188.069 146.252 186.002 145.273 186.002 145.273C186.002 145.273 185.918 149.873 189.024 151.771C191.299 153.08 193.679 154.198 196.139 155.113L195.214 151.801Z" fill="#FA0E9B"/>
<path d="M202.25 164.905C202.25 164.905 201.537 163.128 198.055 161.641C194.573 160.154 192.397 159.38 192.397 159.38C192.397 159.38 192.796 163.962 196.109 165.522C198.509 166.585 200.994 167.446 203.537 168.097L202.25 164.905Z" fill="#FA0E9B"/>
<path d="M204.003 180.216C204.003 180.216 203.682 178.33 200.581 176.148C197.481 173.966 195.528 172.751 195.528 172.751C195.528 172.751 194.96 177.315 197.867 179.527C199.991 181.073 202.242 182.438 204.595 183.607L204.003 180.216Z" fill="#FA0E9B"/>
<path d="M204.692 183.909C204.692 183.909 204.087 182.095 205.822 178.711C207.557 175.326 208.705 173.349 208.705 173.349C208.705 173.349 211.335 177.121 209.799 180.439C208.643 182.795 207.29 185.05 205.756 187.179L204.692 183.909Z" fill="#FA0E9B"/>
<path d="M209.975 199.111C209.975 199.111 210.192 197.213 213.16 194.88C216.128 192.547 217.996 191.199 217.996 191.199C217.996 191.199 218.824 195.726 216.049 198.102C214.017 199.764 211.85 201.254 209.57 202.556L209.975 199.111Z" fill="#FA0E9B"/>
<path d="M209.183 194.42C209.183 194.42 208.857 192.535 205.762 190.353C202.667 188.171 200.721 186.956 200.721 186.956C200.721 186.956 200.152 191.519 203.06 193.737C205.185 195.282 207.436 196.646 209.787 197.817L209.183 194.42Z" fill="#FA0E9B"/>
<path d="M209.183 204.672C209.183 204.672 209.34 202.762 206.898 199.866C204.456 196.971 202.872 195.303 202.872 195.303C202.872 195.303 201.162 199.57 203.416 202.453C205.069 204.484 206.889 206.372 208.857 208.099L209.183 204.672Z" fill="#FA0E9B"/>
<path d="M194.174 148.174C194.647 150.114 195.226 152.027 195.909 153.904C197.886 159.114 201.095 162.143 202.981 166.827C204.867 171.512 202.981 178.312 204.843 184.423C206.704 190.533 209.787 193.592 209.787 197.884C209.787 202.175 208.119 214.113 208.119 214.113" stroke="#263238" stroke-linecap="round" stroke-linejoin="round"/>
<path d="M195.462 153.046L192.24 151.36" stroke="#263238" stroke-linecap="round" stroke-linejoin="round"/>
<path d="M194.894 150.555L195.716 148.234" stroke="#263238" stroke-linecap="round" stroke-linejoin="round"/>
<path d="M202.782 166.634C202.782 166.634 200.092 165.262 197.342 163.896" stroke="#263238" stroke-linecap="round" stroke-linejoin="round"/>
<path d="M200.95 163.122C201.743 160.632 202.786 158.228 204.063 155.947" stroke="#263238" stroke-linecap="round" stroke-linejoin="round"/>
<path d="M204.378 182.912C202.584 180.642 200.471 178.645 198.104 176.982" stroke="#263238" stroke-linecap="round" stroke-linejoin="round"/>
<path d="M205.296 185.475C205.727 183.651 206.307 181.866 207.031 180.137C208.065 177.847 208.24 177.544 208.24 177.544" stroke="#263238" stroke-linecap="round" stroke-linejoin="round"/>
<path d="M209.642 201.142C210.69 199.843 211.851 198.639 213.112 197.545C213.913 196.955 214.665 196.3 215.36 195.587" stroke="#263238" stroke-linecap="round" stroke-linejoin="round"/>
<path d="M209.787 197.884C208.924 196.491 207.956 195.166 206.892 193.919C205.844 192.775 204.704 191.72 203.483 190.764" stroke="#263238" stroke-linecap="round" stroke-linejoin="round"/>
<path d="M208.856 208.099C208.748 206.645 208.253 205.247 207.424 204.049C206.1 202.302 204.54 199.981 203.906 199.068" stroke="#263238" stroke-linecap="round" stroke-linejoin="round"/>
<path d="M22.8135 122.292L20.166 114.73L22.8135 117.94L20.7342 106.594L23.9499 114.73L25.0862 98.8394L26.9781 113.969L29.0574 110.946V114.73L31.5175 109.623L30.1938 118.508L32.4605 116.997L28.8701 121.911L22.8135 122.292Z" fill="#FA0E9B"/>
<path d="M31.1371 120.4H21.3027L23.0738 140.256H29.3661L31.1371 120.4Z" fill="#263238" stroke="#263238" stroke-linecap="round" stroke-linejoin="round"/>
<path d="M49.5846 140.032H16.0801V210.994H49.5846V140.032Z" fill="white" stroke="#263238" stroke-linecap="round" stroke-linejoin="round"/>
<path d="M51.4159 140.032H32.8291V210.994H51.4159V140.032Z" fill="white" stroke="#263238" stroke-linecap="round" stroke-linejoin="round"/>
<path d="M49.3245 140.032H32.8291V210.994H49.3245V140.032Z" fill="#263238" stroke="#263238" stroke-linecap="round" stroke-linejoin="round"/>
<path d="M47.4688 194.493H32.8291V209.024H47.4688V194.493Z" fill="#FA0E9B" stroke="#263238" stroke-linecap="round" stroke-linejoin="round"/>
<path d="M47.4688 195.279H32.8291V197.14H47.4688V195.279Z" fill="white" stroke="#263238" stroke-linecap="round" stroke-linejoin="round"/>
<path d="M47.4688 205.978H32.8291V207.839H47.4688V205.978Z" fill="white" stroke="#263238" stroke-linecap="round" stroke-linejoin="round"/>
<path d="M35.604 194.795V213.171" stroke="#263238" stroke-linecap="round" stroke-linejoin="round"/>
<path d="M40.7114 194.795V213.171" stroke="#263238" stroke-linecap="round" stroke-linejoin="round"/>
<path d="M45.1963 194.795V213.171" stroke="#263238" stroke-linecap="round" stroke-linejoin="round"/>
<path d="M47.4688 142.668H32.8291V164.035H47.4688V142.668Z" fill="#FA0E9B" stroke="#263238" stroke-linecap="round" stroke-linejoin="round"/>
<path d="M47.4688 143.562H32.8291V145.678H47.4688V143.562Z" fill="white" stroke="#263238" stroke-linecap="round" stroke-linejoin="round"/>
<path d="M47.4688 157.259H32.8291V159.375H47.4688V157.259Z" fill="white" stroke="#263238" stroke-linecap="round" stroke-linejoin="round"/>
<path d="M35.604 143.006V163.89" stroke="#263238" stroke-linecap="round" stroke-linejoin="round"/>
<path d="M40.7114 143.006V163.89" stroke="#263238" stroke-linecap="round" stroke-linejoin="round"/>
<path d="M45.1963 143.006V163.89" stroke="#263238" stroke-linecap="round" stroke-linejoin="round"/>
<path d="M47.4688 168.417H32.8291V189.785H47.4688V168.417Z" fill="#FA0E9B" stroke="#263238" stroke-linecap="round" stroke-linejoin="round"/>
<path d="M47.4688 169.312H32.8291V171.428H47.4688V169.312Z" fill="white" stroke="#263238" stroke-linecap="round" stroke-linejoin="round"/>
<path d="M47.4688 183.009H32.8291V185.124H47.4688V183.009Z" fill="white" stroke="#263238" stroke-linecap="round" stroke-linejoin="round"/>
<path d="M35.604 168.762V189.639" stroke="#263238" stroke-linecap="round" stroke-linejoin="round"/>
<path d="M40.7114 168.762V189.639" stroke="#263238" stroke-linecap="round" stroke-linejoin="round"/>
<path d="M45.1963 168.762V189.639" stroke="#263238" stroke-linecap="round" stroke-linejoin="round"/>
<path d="M49.5783 163.739H32.8291V166.169H49.5783V163.739Z" fill="white" stroke="#263238" stroke-linecap="round" stroke-linejoin="round"/>
<path d="M49.5783 189.651H32.8291V192.081H49.5783V189.651Z" fill="white" stroke="#263238" stroke-linecap="round" stroke-linejoin="round"/>
<path d="M49.5786 140.032V210.988" stroke="#263238" stroke-linecap="round" stroke-linejoin="round"/>
<path d="M30.4658 140.033V210.989H32.8292V142.668H49.2883V140.002L30.4658 140.033Z" fill="white" stroke="#263238" stroke-linecap="round" stroke-linejoin="round"/>
<path d="M32.8291 142.668V140.032" stroke="#263238" stroke-linecap="round" stroke-linejoin="round"/>
<path d="M49.4514 107.435C47.6925 104.044 46.9551 101.614 46.9551 101.052C46.9551 99.9395 49.3729 99.2746 49.3729 99.2746C53.1446 97.2799 70.8851 100.163 78.8699 101.493C83.3397 102.272 87.8614 102.717 92.3974 102.823C92.3974 102.823 93.5035 101.94 94.8152 100.828C96.1268 99.7159 102.353 92.4021 104.795 91.7613C107.237 91.1206 109.449 92.6499 109.449 92.6499C109.449 92.6499 113.444 95.0677 112.773 95.5331C112.102 95.9985 102.353 104.4 99.9107 105.954C97.4687 107.507 92.3732 106.842 87.9366 107.731C84.1165 108.492 68.6426 109.435 65.0945 109.726C62.4299 110.358 59.6332 110.125 57.1098 109.061" fill="white"/>
<path d="M109.491 92.6258C109.491 92.6258 107.273 91.0724 104.837 91.7373C102.401 92.4022 96.1875 99.722 94.8577 100.804C93.5279 101.886 92.4399 102.799 92.4399 102.799C87.9039 102.693 83.3822 102.248 78.9124 101.469C70.9276 100.139 53.1871 97.2377 49.4153 99.2505C49.4153 99.2505 46.9976 99.9154 46.9976 101.028C47.0815 101.649 47.2419 102.258 47.4751 102.841L47.8075 102.962C47.8075 102.962 52.2381 102.496 61.8005 102.726C71.3628 102.956 93.4795 104.267 94.9 104.781C95.5044 105.011 99.79 104.044 104.541 102.363C108.168 99.4077 112.429 95.7145 112.858 95.4546C113.487 95.0617 109.491 92.6258 109.491 92.6258Z" fill="#FA0E9B"/>
<path opacity="0.5" d="M109.491 92.6258C109.491 92.6258 107.273 91.0724 104.837 91.7373C102.401 92.4022 96.1875 99.722 94.8577 100.804C93.5279 101.886 92.4399 102.799 92.4399 102.799C87.9039 102.693 83.3822 102.248 78.9124 101.469C70.9276 100.139 53.1871 97.2377 49.4153 99.2505C49.4153 99.2505 46.9976 99.9154 46.9976 101.028C47.0815 101.649 47.2419 102.258 47.4751 102.841L47.8075 102.962C47.8075 102.962 52.2381 102.496 61.8005 102.726C71.3628 102.956 93.4795 104.267 94.9 104.781C95.5044 105.011 99.79 104.044 104.541 102.363C108.168 99.4077 112.429 95.7145 112.858 95.4546C113.487 95.0617 109.491 92.6258 109.491 92.6258Z" fill="white"/>
<path d="M49.4514 107.435C47.6925 104.044 46.9551 101.614 46.9551 101.052C46.9551 99.9395 49.3729 99.2746 49.3729 99.2746C53.1446 97.2799 70.8851 100.163 78.8699 101.493C83.3397 102.272 87.8614 102.717 92.3974 102.823C92.3974 102.823 93.5035 101.94 94.8152 100.828C96.1268 99.7159 102.353 92.4021 104.795 91.7613C107.237 91.1206 109.449 92.6499 109.449 92.6499C109.449 92.6499 113.444 95.0677 112.773 95.5331C112.102 95.9985 102.353 104.4 99.9107 105.954C97.4687 107.507 92.3732 106.842 87.9366 107.731C84.1165 108.492 68.6426 109.435 65.0945 109.726C62.4299 110.358 59.6332 110.125 57.1098 109.061" stroke="#263238" stroke-linecap="round" stroke-linejoin="round"/>
<path d="M137.042 127.151C137.443 126.39 138.045 125.753 138.782 125.308C139.519 124.864 140.364 124.63 141.225 124.631H181.541C181.541 124.631 184.455 124.631 183.584 130.168C182.714 135.704 170.758 169.511 167.869 179.732C164.979 189.953 164.369 211.496 164.369 211.496H116.013C116.013 211.496 119.845 159.979 137.042 127.151Z" fill="white"/>
<path opacity="0.16" d="M155.199 124.631H141.225C140.364 124.63 139.519 124.864 138.782 125.308C138.045 125.753 137.443 126.39 137.042 127.151C119.845 159.979 115.971 211.478 115.971 211.478H137.658L143.008 191.162L165.312 195.762C165.469 194.058 165.65 192.323 165.862 190.612L165.372 185.172C165.372 185.172 160.803 180.367 159.364 179.164C157.925 177.961 158.88 175.791 158.639 166.416C158.397 157.041 149.983 150.302 146.852 144.529C143.721 138.757 148.538 135.148 152.866 129.376C154.407 127.29 155.036 125.755 155.199 124.631Z" fill="black"/>
<path d="M137.042 127.151C137.443 126.39 138.045 125.753 138.782 125.308C139.519 124.864 140.364 124.63 141.225 124.631H181.541C181.541 124.631 184.455 124.631 183.584 130.168C182.714 135.704 170.758 169.511 167.869 179.732C164.979 189.953 164.369 211.496 164.369 211.496H116.013C116.013 211.496 119.845 159.979 137.042 127.151Z" stroke="#263238" stroke-linecap="round" stroke-linejoin="round"/>
<path d="M174.548 134.248C170.474 143.756 161.854 181.395 160.452 211.478H164.345C164.345 211.478 164.949 189.911 167.845 179.714C170.74 169.517 182.708 135.704 183.56 130.15C184.412 124.595 181.517 124.613 181.517 124.613C181.517 124.613 177.818 126.626 174.548 134.248Z" fill="#263238" stroke="#263238" stroke-linecap="round" stroke-linejoin="round"/>
<path d="M103.725 115.244C103.725 115.244 97.2934 111.472 94.8574 104.823C92.4215 98.1743 113.928 87.5239 123.266 86.859C132.605 86.1941 135.241 88.6301 140.795 98.1682C146.35 107.706 150.11 120.787 147.227 127.218C144.344 133.649 139.466 135.203 142.996 140.516C146.526 145.829 156.523 160.916 155.858 168.012C155.193 175.108 148.321 181.31 138.329 181.987C128.338 182.664 115.04 176.662 103.954 166.876C92.8688 157.09 95.746 142.698 99.7232 138.044C103.7 133.389 109.703 131.612 110.144 126.958C110.585 122.304 103.725 115.244 103.725 115.244Z" fill="#263238" stroke="#263238" stroke-linecap="round" stroke-linejoin="round"/>
<path d="M131.136 104.721C134.551 111.079 138.825 119.596 140.161 124.74C142.494 133.746 130.489 139.416 133.82 143.75" stroke="white" stroke-linecap="round" stroke-linejoin="round"/>
<path d="M126.482 96.3911C126.482 96.3911 127.812 98.6578 129.65 101.994" stroke="white" stroke-linecap="round" stroke-linejoin="round"/>
<path d="M144.398 112.391C144.792 113.583 145.047 114.816 145.16 116.066" stroke="white" stroke-linecap="round" stroke-linejoin="round"/>
<path d="M128.791 93.085C128.791 93.085 139.296 100.846 143.491 110.136" stroke="white" stroke-linecap="round" stroke-linejoin="round"/>
<path d="M114.212 98.9058C106.711 101.009 95.9213 104.424 96.7978 106.395" stroke="white" stroke-linecap="round" stroke-linejoin="round"/>
<path d="M121.145 97.0562C121.145 97.0562 119.543 97.4551 117.156 98.0958" stroke="white" stroke-linecap="round" stroke-linejoin="round"/>
<path d="M111.867 93.1395C116.163 91.7854 120.664 91.1922 125.165 91.3866" stroke="white" stroke-linecap="round" stroke-linejoin="round"/>
<path d="M108.808 94.3904C109.487 94.0365 110.19 93.7295 110.912 93.4717" stroke="white" stroke-linecap="round" stroke-linejoin="round"/>
<path d="M46.9552 101.052C46.9524 101.094 46.9524 101.136 46.9552 101.179C46.9524 101.136 46.9524 101.094 46.9552 101.052ZM49.4516 107.435C48.4335 105.57 47.6227 103.6 47.0338 101.56C47.6199 103.601 48.4308 105.572 49.4516 107.435ZM46.9673 101.215C46.9673 101.251 46.9673 101.294 46.9673 101.348C46.9794 101.294 46.9733 101.251 46.9673 101.215ZM46.9975 101.384C47.005 101.443 47.0171 101.502 47.0338 101.56C47.0171 101.502 47.005 101.443 46.9975 101.384ZM49.4516 107.429C51.7122 111.71 54.5247 115.677 57.8171 119.227C65.8018 127.877 88.8675 150.502 91.0617 152.055C93.2558 153.608 92.6151 158.039 91.0617 162.476C89.5082 166.912 83.7418 173.356 83.9655 180.44C84.1891 187.524 86.3833 198.404 86.1838 200.622C85.9843 202.841 80.4355 210.384 80.4355 210.384H137.652C137.652 210.384 130.52 201.317 130.52 198.217C130.52 195.116 140.312 155.385 140.753 152.502C141.195 149.619 139.423 147.624 135.875 147.401C132.327 147.177 118.8 144.294 118.135 142.076C117.47 139.857 121.683 131.431 121.683 131.431L108.385 132.096C108.385 132.096 107.72 137.863 106.832 138.975C105.943 140.087 104.613 137.863 101.507 136.315C98.3997 134.768 92.4398 133.432 90.1973 131.655C87.9548 129.878 66.6904 109.895 66.6904 109.895" fill="white"/>
<path d="M93.5942 133.365C94.7004 135.299 95.8065 137.046 95.8065 137.046C95.8065 137.046 99.5359 139.144 100.467 139.144C101.398 139.144 106.995 142.166 106.995 142.166C106.995 142.166 111.661 140.999 110.017 137.034C109.498 136.019 108.844 135.08 108.071 134.242C107.793 136.001 107.345 138.304 106.82 138.962C105.931 140.069 104.601 137.85 101.494 136.303C99.4815 135.299 96.2236 134.381 93.5942 133.365Z" fill="#FA0E9B"/>
<path d="M82.2066 124.389C75.3582 118.049 66.6905 109.919 66.6905 109.919L61.6494 109.193L61.0449 109.532C61.0449 109.532 75.2736 122.122 78.3019 123.525C79.527 124.088 80.8583 124.383 82.2066 124.389Z" fill="#FA0E9B"/>
<path d="M89.3814 130.954L88.8374 130.47C89.1154 130.93 89.2726 131.22 89.2726 131.22L89.3814 130.954Z" fill="#FA0E9B"/>
<g opacity="0.5">
<path opacity="0.5" d="M93.5942 133.365C94.7004 135.299 95.8065 137.046 95.8065 137.046C95.8065 137.046 99.5359 139.144 100.467 139.144C101.398 139.144 106.995 142.166 106.995 142.166C106.995 142.166 111.661 140.999 110.017 137.034C109.498 136.019 108.844 135.08 108.071 134.242C107.793 136.001 107.345 138.304 106.82 138.962C105.931 140.069 104.601 137.85 101.494 136.303C99.4815 135.299 96.2236 134.381 93.5942 133.365Z" fill="white"/>
<path opacity="0.5" d="M82.2066 124.389C75.3582 118.049 66.6905 109.919 66.6905 109.919L61.6494 109.193L61.0449 109.532C61.0449 109.532 75.2736 122.122 78.3019 123.525C79.527 124.088 80.8583 124.383 82.2066 124.389Z" fill="white"/>
<path opacity="0.5" d="M89.3814 130.954L88.8374 130.47C89.1154 130.93 89.2726 131.22 89.2726 131.22L89.3814 130.954Z" fill="white"/>
</g>
<path d="M49.4516 107.429C51.7122 111.71 54.5247 115.677 57.8171 119.227C65.8018 127.877 88.8675 150.502 91.0617 152.055C93.2558 153.608 92.6151 158.039 91.0617 162.476C89.5082 166.912 83.7418 173.356 83.9655 180.44C84.1891 187.524 86.3833 198.404 86.1838 200.622C85.9843 202.841 80.4355 210.384 80.4355 210.384H137.652C137.652 210.384 130.52 201.317 130.52 198.217C130.52 195.116 140.312 155.385 140.753 152.502C141.195 149.619 139.423 147.624 135.875 147.401C132.327 147.177 118.8 144.294 118.135 142.076C117.47 139.857 121.683 131.431 121.683 131.431L108.385 132.096C108.385 132.096 107.72 137.863 106.832 138.975C105.943 140.087 104.613 137.863 101.507 136.315C98.3997 134.768 92.4398 133.432 90.1973 131.655C87.9548 129.878 66.6904 109.895 66.6904 109.895M46.9552 101.052C46.9524 101.094 46.9524 101.136 46.9552 101.179C46.9524 101.136 46.9524 101.094 46.9552 101.052V101.052ZM49.4516 107.435C48.4335 105.57 47.6227 103.6 47.0338 101.56C47.6199 103.601 48.4308 105.572 49.4516 107.435V107.435ZM46.9673 101.215C46.9673 101.251 46.9673 101.294 46.9673 101.348C46.9794 101.294 46.9733 101.251 46.9673 101.215V101.215ZM46.9975 101.384C47.005 101.443 47.0171 101.502 47.0338 101.56C47.0171 101.502 47.005 101.443 46.9975 101.384Z" stroke="#263238" stroke-linecap="round" stroke-linejoin="round"/>
<path d="M66.69 109.918C66.69 109.918 59.6059 110.051 55.6528 106.793" stroke="#263238" stroke-linecap="round" stroke-linejoin="round"/>
<path d="M118.141 142.075C117.476 139.863 121.689 131.431 121.689 131.431L108.391 132.096C108.391 132.096 107.726 137.862 106.838 138.974C105.949 140.086 104.62 137.862 101.513 136.315C101.277 136.194 101.017 136.079 100.751 135.964L99.9473 148.603C99.9473 148.603 101.114 160.843 115.101 158.516C120.764 157.573 126.809 152.52 132.025 146.838C126.658 145.853 118.649 143.773 118.141 142.075Z" fill="white"/>
<path d="M117.766 133.105C117.766 133.105 116.962 137.614 116.315 142.601C115.668 147.588 115.191 151.299 115.191 151.299L118.141 142.075L121.465 132.301C121.465 132.301 118.249 132.301 117.766 133.105Z" fill="#FA0E9B"/>
<path opacity="0.5" d="M117.766 133.105C117.766 133.105 116.962 137.614 116.315 142.601C115.668 147.588 115.191 151.299 115.191 151.299L118.141 142.075L121.465 132.301C121.465 132.301 118.249 132.301 117.766 133.105Z" fill="white"/>
<path d="M118.141 142.075C117.476 139.863 121.689 131.431 121.689 131.431L108.391 132.096C108.391 132.096 107.726 137.862 106.838 138.974C105.949 140.086 104.62 137.862 101.513 136.315C101.277 136.194 101.017 136.079 100.751 135.964L99.9473 148.603C99.9473 148.603 101.114 160.843 115.101 158.516C120.764 157.573 126.809 152.52 132.025 146.838C126.658 145.853 118.649 143.773 118.141 142.075Z" stroke="#263238" stroke-linecap="round" stroke-linejoin="round"/>
<path d="M106.832 138.975C105.943 140.081 104.613 137.862 101.507 136.315C99.5482 135.33 96.4292 134.435 93.8483 133.468C93.1169 131.733 92.1498 129.473 91.5272 128.107C90.421 125.689 88.644 127.218 88.644 127.218C87.7169 126.164 86.9676 124.965 86.4256 123.67C85.3195 121.252 83.5424 121.452 81.1065 121.01C78.6706 120.569 73.563 115.909 73.563 115.909C73.563 115.909 71.1754 114.095 70.1902 113.195C69.0417 115.455 66.2915 119.433 60.3438 121.917C69.8275 131.824 89.0671 150.646 91.0859 152.061C93.3042 153.608 92.6394 158.045 91.0859 162.481C89.5325 166.918 83.7661 173.361 83.9897 180.446C84.2134 187.53 86.4075 198.41 86.208 200.628C86.0086 202.605 81.584 208.8 80.6229 210.13L82.8775 210.384H94.6159C94.5494 204.436 94.5555 180.162 98.6234 170.49C103.284 159.375 106.832 138.975 106.832 138.975Z" fill="#FA0E9B"/>
<path opacity="0.16" d="M101.507 136.315C99.5482 135.33 96.4293 134.435 93.8483 133.468C93.1169 131.733 92.1498 129.473 91.5272 128.107C90.4211 125.689 88.644 127.218 88.644 127.218C87.7169 126.164 86.9676 124.965 86.4257 123.67C85.3195 121.252 83.5424 121.452 81.1065 121.01C78.6706 120.569 73.563 115.909 73.563 115.909C73.563 115.909 71.1755 114.095 70.1902 113.195C69.6986 114.155 69.1135 115.064 68.4434 115.909C72.4085 119.263 76.7847 122.818 78.314 123.525C81.3362 124.921 82.0434 123.755 84.3585 125.157C86.6735 126.559 89.2545 131.201 89.2545 131.201C89.2545 131.201 90.6568 127.466 91.8234 130.035C92.99 132.604 95.7885 137.028 95.7885 137.028C95.7885 137.028 99.518 139.126 100.449 139.126C101.18 139.126 104.765 140.987 106.288 141.791C106.626 140.02 106.814 138.956 106.814 138.956C105.943 140.081 104.613 137.862 101.507 136.315Z" fill="black"/>
<path d="M106.832 138.975C105.943 140.081 104.613 137.862 101.507 136.315C99.5482 135.33 96.4292 134.435 93.8483 133.468C93.1169 131.733 92.1498 129.473 91.5272 128.107C90.421 125.689 88.644 127.218 88.644 127.218C87.7169 126.164 86.9676 124.965 86.4256 123.67C85.3195 121.252 83.5424 121.452 81.1065 121.01C78.6706 120.569 73.563 115.909 73.563 115.909C73.563 115.909 71.1754 114.095 70.1902 113.195C69.0417 115.455 66.2915 119.433 60.3438 121.917C69.8275 131.824 89.0671 150.646 91.0859 152.061C93.3042 153.608 92.6394 158.045 91.0859 162.481C89.5325 166.918 83.7661 173.361 83.9897 180.446C84.2134 187.53 86.4075 198.41 86.208 200.628C86.0086 202.605 81.584 208.8 80.6229 210.13L82.8775 210.384H94.6159C94.5494 204.436 94.5555 180.162 98.6234 170.49C103.284 159.375 106.832 138.975 106.832 138.975Z" stroke="#263238" stroke-linecap="round" stroke-linejoin="round"/>
<path d="M106.989 138.201C106.989 138.201 104.232 137.355 102.534 138.841C100.835 140.328 98.3027 147.956 96.8097 156.231C95.8895 161.049 96.5245 166.033 98.623 170.466C98.623 170.466 102.111 161.321 103.168 156.866C104.226 152.411 106.989 138.201 106.989 138.201Z" fill="#FA0E9B"/>
<path opacity="0.16" d="M101.7 139.549C101.7 139.549 103.694 139.065 104.516 139.343C105.209 139.64 105.856 140.033 106.439 140.51L106.989 138.201C106.164 137.779 105.228 137.625 104.311 137.76C102.939 138.038 101.7 139.549 101.7 139.549Z" fill="black"/>
<path d="M106.989 138.201C106.989 138.201 104.232 137.355 102.534 138.841C100.835 140.328 98.3027 147.956 96.8097 156.231C95.8895 161.049 96.5245 166.033 98.623 170.466C98.623 170.466 102.111 161.321 103.168 156.866C104.226 152.411 106.989 138.201 106.989 138.201Z" stroke="#263238" stroke-linecap="round" stroke-linejoin="round"/>
<path d="M88.4264 138.926L91.9745 153.342L83.9897 135.154" stroke="#263238" stroke-linecap="round" stroke-linejoin="round"/>
<path d="M111.8 210.384H137.659C137.659 210.384 130.526 201.317 130.526 198.216C130.526 195.115 140.318 155.385 140.759 152.502C141.201 149.619 139.43 147.624 135.881 147.4C132.333 147.177 118.806 144.294 118.141 142.075C118.141 142.075 113.039 160.039 111.268 172.237C109.745 182.7 111.323 204.412 111.8 210.384Z" fill="#FA0E9B"/>
<path opacity="0.16" d="M135.882 147.401C132.974 147.219 123.369 145.249 119.628 143.327L120.988 146.47C123.452 147.777 126.102 148.698 128.846 149.202C133.349 150.006 137.538 149.849 140.276 153.874L140.409 154.074C140.578 153.3 140.693 152.756 140.729 152.502C141.207 149.619 139.43 147.624 135.882 147.401Z" fill="black"/>
<path d="M111.8 210.384H137.659C137.659 210.384 130.526 201.317 130.526 198.216C130.526 195.115 140.318 155.385 140.759 152.502C141.201 149.619 139.43 147.624 135.881 147.4C132.333 147.177 118.806 144.294 118.141 142.075C118.141 142.075 113.039 160.039 111.268 172.237C109.745 182.7 111.323 204.412 111.8 210.384Z" stroke="#263238" stroke-linecap="round" stroke-linejoin="round"/>
<path d="M118.141 142.075C118.141 142.075 111.299 163.835 111.269 172.237C111.269 172.237 120.988 160.469 122.257 152.2C123.527 143.931 118.141 142.075 118.141 142.075Z" fill="#FA0E9B"/>
<path opacity="0.16" d="M116.962 144.856C117.99 144.821 119.011 145.038 119.937 145.486C120.863 145.935 121.665 146.602 122.275 147.431C122.275 147.431 120.933 143.484 118.141 142.075L116.962 144.856Z" fill="black"/>
<path d="M118.141 142.075C118.141 142.075 111.299 163.835 111.269 172.237C111.269 172.237 120.988 160.469 122.257 152.2C123.527 143.931 118.141 142.075 118.141 142.075Z" stroke="#263238" stroke-linecap="round" stroke-linejoin="round"/>
<path d="M191.188 206.292C191.188 206.292 196.199 206.497 199.481 206.969C201.67 207.265 203.874 207.441 206.082 207.494C206.082 207.494 204.268 203.831 202.334 202.798C200.4 201.764 196.894 199.915 193.956 200.326C191.019 200.737 186.818 203.699 187.169 204.641C187.519 205.584 189.085 206.007 191.188 206.292Z" fill="white"/>
<path d="M191.188 206.292C191.188 206.292 196.199 206.497 199.481 206.969C201.67 207.265 203.874 207.441 206.082 207.494C206.082 207.494 204.268 203.831 202.334 202.798C200.4 201.764 196.894 199.915 193.956 200.326C191.019 200.737 186.818 203.699 187.169 204.641C187.519 205.584 189.085 206.007 191.188 206.292Z" fill="#FA0E9B"/>
<path opacity="0.5" d="M191.188 206.292C191.188 206.292 196.199 206.497 199.481 206.969C201.67 207.265 203.874 207.441 206.082 207.494C206.082 207.494 204.268 203.831 202.334 202.798C200.4 201.764 196.894 199.915 193.956 200.326C191.019 200.737 186.818 203.699 187.169 204.641C187.519 205.584 189.085 206.007 191.188 206.292Z" fill="white"/>
<path d="M191.188 206.292C191.188 206.292 196.199 206.497 199.481 206.969C201.67 207.265 203.874 207.441 206.082 207.494C206.082 207.494 204.268 203.831 202.334 202.798C200.4 201.764 196.894 199.915 193.956 200.326C191.019 200.737 186.818 203.699 187.169 204.641C187.519 205.584 189.085 206.007 191.188 206.292Z" stroke="#263238" stroke-linecap="round" stroke-linejoin="round"/>
<path d="M199.512 204.793C199.512 204.793 203.483 202.732 204.474 202.762C205.466 202.792 212.054 207.247 211.728 207.96C211.506 208.291 211.186 208.544 210.813 208.683C210.44 208.821 210.032 208.839 209.648 208.734C208.917 208.389 204.48 206.504 204.48 206.504L201.579 207.187L199.512 204.793Z" fill="white"/>
<path d="M199.512 204.793C199.512 204.793 203.483 202.732 204.474 202.762C205.466 202.792 212.054 207.247 211.728 207.96C211.401 208.674 209.842 209.254 209.648 208.734C209.455 208.214 204.48 206.504 204.48 206.504L201.579 207.187L199.512 204.793Z" fill="#FA0E9B"/>
<path opacity="0.5" d="M199.512 204.793C199.512 204.793 203.483 202.732 204.474 202.762C205.466 202.792 212.054 207.247 211.728 207.96C211.401 208.674 209.842 209.254 209.648 208.734C209.455 208.214 204.48 206.504 204.48 206.504L201.579 207.187L199.512 204.793Z" fill="white"/>
<path d="M199.512 204.793C199.512 204.793 203.483 202.732 204.474 202.762C205.466 202.792 212.054 207.247 211.728 207.96C211.506 208.291 211.186 208.544 210.813 208.683C210.44 208.821 210.032 208.839 209.648 208.734C208.917 208.389 204.48 206.504 204.48 206.504L201.579 207.187L199.512 204.793Z" stroke="#263238" stroke-linecap="round" stroke-linejoin="round"/>
<path d="M196.677 201.402C196.677 201.402 201.972 201.232 203.023 201.764C204.075 202.296 208.826 210.444 208.113 211.036C207.4 211.629 205.429 211.454 205.49 210.795C205.55 210.136 201.113 205.772 201.113 205.772L197.662 205.016L196.677 201.402Z" fill="white"/>
<path d="M196.677 201.402C196.677 201.402 201.972 201.232 203.023 201.764C204.075 202.296 208.826 210.444 208.113 211.036C207.4 211.629 205.429 211.454 205.49 210.795C205.55 210.136 201.113 205.772 201.113 205.772L197.662 205.016L196.677 201.402Z" fill="#FA0E9B"/>
<path opacity="0.5" d="M196.677 201.402C196.677 201.402 201.972 201.232 203.023 201.764C204.075 202.296 208.826 210.444 208.113 211.036C207.4 211.629 205.429 211.454 205.49 210.795C205.55 210.136 201.113 205.772 201.113 205.772L197.662 205.016L196.677 201.402Z" fill="white"/>
<path d="M196.677 201.402C196.677 201.402 201.972 201.232 203.023 201.764C204.075 202.296 208.826 210.444 208.113 211.036C207.4 211.629 205.429 211.454 205.49 210.795C205.55 210.136 201.113 205.772 201.113 205.772L197.662 205.016L196.677 201.402Z" stroke="#263238" stroke-linecap="round" stroke-linejoin="round"/>
<path d="M193.54 200.308C193.54 200.308 198.901 200.132 199.965 200.676C201.029 201.22 205.84 209.459 205.115 210.063C204.389 210.668 202.407 210.481 202.467 209.816C202.528 209.151 198.037 204.732 198.037 204.732L194.543 203.965L193.54 200.308Z" fill="white"/>
<path d="M193.54 200.308C193.54 200.308 198.901 200.132 199.965 200.676C201.029 201.22 205.84 209.459 205.115 210.063C204.389 210.668 202.407 210.481 202.467 209.816C202.528 209.151 198.037 204.732 198.037 204.732L194.543 203.965L193.54 200.308Z" fill="#FA0E9B"/>
<path opacity="0.5" d="M193.54 200.308C193.54 200.308 198.901 200.132 199.965 200.676C201.029 201.22 205.84 209.459 205.115 210.063C204.389 210.668 202.407 210.481 202.467 209.816C202.528 209.151 198.037 204.732 198.037 204.732L194.543 203.965L193.54 200.308Z" fill="white"/>
<path d="M193.54 200.308C193.54 200.308 198.901 200.132 199.965 200.676C201.029 201.22 205.84 209.459 205.115 210.063C204.389 210.668 202.407 210.481 202.467 209.816C202.528 209.151 198.037 204.732 198.037 204.732L194.543 203.965L193.54 200.308Z" stroke="#263238" stroke-linecap="round" stroke-linejoin="round"/>
<path d="M132.581 169.59C136.462 175.568 144.253 190.715 146.526 192.42C150.074 195.079 173.793 201.535 176.077 203.3C178.362 205.065 178.205 206.836 180.369 207.482C182.533 208.129 190.645 209.985 193.739 210.275C196.834 210.565 195.45 208.649 195.45 208.649L190.173 205.022L194.773 203.886C194.773 203.886 199.385 209.435 200.249 209.737C201.114 210.039 202.637 209.737 202.54 209.054C202.371 207.96 197.451 199.008 195.704 198.627C193.957 198.246 183.355 199.715 183.355 199.715C183.355 199.715 161.117 184.719 160.718 184.187C160.718 184.187 159.389 180.415 158.301 178.862C157.213 177.308 156.524 177.756 156.524 177.756C156.524 177.756 156.971 175.755 156.306 175.09L152.758 171.542L152.631 171.711C152.026 170.502 151.422 169.124 150.757 167.553C148.901 163.183 142.331 150.918 141.225 149.147C140.397 147.824 133.458 146.875 129.94 146.476" fill="#FA0E9B"/>
<path opacity="0.16" d="M148.031 169.97C150.932 172.545 149.965 172.545 149.318 174.806C148.671 177.067 149.802 174.002 152.54 174.165C155.278 174.328 154.474 177.864 154.148 178.511C153.821 179.158 157.533 179.962 156.886 181.406C156.239 182.851 152.54 184.949 150.448 187.046C148.357 189.143 155.919 183.661 158.494 183.504C159.279 183.449 159.926 183.552 160.47 183.54C159.899 181.923 159.166 180.367 158.282 178.898C157.17 177.345 156.505 177.792 156.505 177.792C156.505 177.792 156.952 175.791 156.287 175.126L152.739 171.578L152.612 171.747C152.008 170.538 151.403 169.16 150.739 167.589C148.883 163.219 142.313 150.954 141.206 149.183C140.378 147.86 133.439 146.911 129.921 146.512L130.242 149.31L130.32 149.371C130.32 149.371 134.666 150.175 136.117 150.338C137.568 150.501 139.339 151.782 139.175 152.756C139.012 153.729 134.829 158.069 136.117 158.395C137.404 158.722 138.855 155.173 140.306 155.657C141.756 156.141 145.111 167.395 148.031 169.97Z" fill="black"/>
<path d="M132.581 169.59C136.462 175.568 144.253 190.715 146.526 192.42C150.074 195.079 173.793 201.535 176.077 203.3C178.362 205.065 178.205 206.836 180.369 207.482C182.533 208.129 190.645 209.985 193.739 210.275C196.834 210.565 195.45 208.649 195.45 208.649L190.173 205.022L194.773 203.886C194.773 203.886 199.385 209.435 200.249 209.737C201.114 210.039 202.637 209.737 202.54 209.054C202.371 207.96 197.451 199.008 195.704 198.627C193.957 198.246 183.355 199.715 183.355 199.715C183.355 199.715 161.117 184.719 160.718 184.187C160.718 184.187 159.389 180.415 158.301 178.862C157.213 177.308 156.524 177.756 156.524 177.756C156.524 177.756 156.971 175.755 156.306 175.09L152.758 171.542L152.631 171.711C152.026 170.502 151.422 169.124 150.757 167.553C148.901 163.183 142.331 150.918 141.225 149.147C140.397 147.824 133.458 146.875 129.94 146.476" stroke="#263238" stroke-linecap="round" stroke-linejoin="round"/>
<path d="M132.641 161.387C132.478 161.931 132.339 162.475 132.23 163.031" stroke="#263238" stroke-linecap="round" stroke-linejoin="round"/>
<path d="M138.517 151.384C136.618 153.549 135.016 155.958 133.754 158.546" stroke="#263238" stroke-linecap="round" stroke-linejoin="round"/>
<path d="M147.396 185.704C149.028 183.286 151.627 180.222 154.492 179.345" stroke="#263238" stroke-linecap="round" stroke-linejoin="round"/>
<path d="M145.589 188.678C145.589 188.678 145.879 188.11 146.399 187.251" stroke="#263238" stroke-linecap="round" stroke-linejoin="round"/>
<path d="M145.589 184.858C145.589 184.858 148.557 177.436 151.525 175.526C154.492 173.615 152.794 177.436 152.794 177.436" stroke="#263238" stroke-linecap="round" stroke-linejoin="round"/>
<path d="M176.077 203.306C178.368 205.077 178.205 206.842 180.369 207.488C182.533 208.135 190.644 209.991 193.739 210.281C196.834 210.571 195.45 208.655 195.45 208.655L190.173 205.028L194.773 203.892C194.773 203.892 199.385 209.441 200.249 209.743C201.113 210.045 202.757 210.154 202.54 209.06C202.117 206.944 197.45 199.014 195.704 198.633C193.957 198.253 183.355 199.721 183.355 199.721C183.355 199.721 163.1 185.819 160.881 184.314C152.28 185.142 148.188 189.645 146.465 192.347L146.526 192.395C150.074 195.079 173.792 201.535 176.077 203.306Z" fill="white"/>
<path d="M202.534 209.084C201.433 206.395 197.444 199.039 195.697 198.658C193.95 198.277 183.348 199.746 183.348 199.746C183.348 199.746 163.093 185.843 160.875 184.338C158.617 184.535 156.402 185.071 154.305 185.928C157.502 187.741 178.815 199.83 181.505 200.368C184.358 200.973 193.878 199.407 195.552 200.532C196.616 201.245 199.783 206.268 201.923 209.834C202.534 209.743 202.757 209.628 202.534 209.084Z" fill="#FA0E9B"/>
<path opacity="0.5" d="M202.534 209.084C200.817 205.234 197.444 199.039 195.697 198.658C193.95 198.277 183.348 199.746 183.348 199.746C183.348 199.746 163.093 185.843 160.875 184.338C158.617 184.535 156.402 185.071 154.305 185.928C157.502 187.741 178.815 199.83 181.505 200.368C184.358 200.973 193.878 199.407 195.552 200.532C196.616 201.245 199.783 206.268 201.923 209.834C202.534 209.743 202.775 209.622 202.534 209.084Z" fill="white"/>
<path d="M176.077 203.306C178.368 205.077 178.205 206.842 180.369 207.488C182.533 208.135 190.644 209.991 193.739 210.281C196.834 210.571 195.45 208.655 195.45 208.655L190.173 205.028L194.773 203.892C194.773 203.892 199.385 209.441 200.249 209.743C201.113 210.045 202.757 210.154 202.54 209.06C202.117 206.944 197.45 199.014 195.704 198.633C193.957 198.253 183.355 199.721 183.355 199.721C183.355 199.721 163.1 185.819 160.881 184.314C152.28 185.142 148.188 189.645 146.465 192.347L146.526 192.395C150.074 195.079 173.792 201.535 176.077 203.306Z" stroke="#263238" stroke-linecap="round" stroke-linejoin="round"/>
<path d="M122.656 97.7573L104.45 105.355C104.229 108.555 103.437 111.689 102.111 114.609C99.959 119.161 101.216 127.774 103.283 132.422C105.351 137.071 114.46 135.251 117.79 134.671C120.049 134.241 122.261 133.596 124.397 132.743C125.369 133.117 126.421 133.239 127.453 133.095C128.485 132.951 129.463 132.547 130.296 131.921C130.296 131.921 120.553 104.569 122.656 97.7573Z" fill="white"/>
<path d="M122.656 97.7573L104.45 105.355C104.229 108.555 103.437 111.689 102.111 114.609C99.959 119.161 101.216 127.774 103.283 132.422C103.63 133.17 104.186 133.8 104.885 134.236V133.885C104.885 133.885 101.506 125.514 102.147 120.684C102.788 115.854 105.532 113.431 105.852 110.378C106.173 107.326 106.01 105.875 112.133 103.62C118.256 101.366 120.825 99.2745 121.465 101.523C122.106 103.772 124.687 118.593 126.458 122.135C128.229 125.677 128.066 129.388 125.334 130.99C122.572 132.647 119.614 133.951 116.527 134.87L117.814 134.647C120.073 134.217 122.286 133.571 124.421 132.719C125.393 133.093 126.445 133.214 127.477 133.071C128.509 132.927 129.488 132.523 130.32 131.896C130.32 131.896 120.553 104.569 122.656 97.7573Z" fill="#FA0E9B"/>
<path opacity="0.5" d="M122.656 97.7573L104.45 105.355C104.229 108.555 103.437 111.689 102.111 114.609C99.959 119.161 101.216 127.774 103.283 132.422C103.63 133.17 104.186 133.8 104.885 134.236V133.885C104.885 133.885 101.506 125.514 102.147 120.684C102.788 115.854 105.532 113.431 105.852 110.378C106.173 107.326 106.01 105.875 112.133 103.62C118.256 101.366 120.825 99.2745 121.465 101.523C122.106 103.772 124.687 118.593 126.458 122.135C128.229 125.677 128.066 129.388 125.334 130.99C122.572 132.647 119.614 133.951 116.527 134.87L117.814 134.647C120.073 134.217 122.286 133.571 124.421 132.719C125.393 133.093 126.445 133.214 127.477 133.071C128.509 132.927 129.488 132.523 130.32 131.896C130.32 131.896 120.553 104.569 122.656 97.7573Z" fill="white"/>
<path d="M122.656 97.7573L104.45 105.355C104.229 108.555 103.437 111.689 102.111 114.609C99.959 119.161 101.216 127.774 103.283 132.422C105.351 137.071 114.46 135.251 117.79 134.671C120.049 134.241 122.261 133.596 124.397 132.743C125.369 133.117 126.421 133.239 127.453 133.095C128.485 132.951 129.463 132.547 130.296 131.921C130.296 131.921 120.553 104.569 122.656 97.7573Z" stroke="#263238" stroke-linecap="round" stroke-linejoin="round"/>
<path d="M113.456 109.671C113.506 110.741 113.373 111.812 113.064 112.838C112.58 114.047 108.016 118.798 108.155 119.312C108.294 119.826 108.706 121.476 109.515 121.633" stroke="#263238" stroke-linecap="round" stroke-linejoin="round"/>
<path d="M118.516 113.92C119.15 112.651 121.236 113.89 121.205 116.749" stroke="#263238" stroke-linecap="round" stroke-linejoin="round"/>
<path d="M108.18 110.185C108.18 110.185 109.957 109.405 111.546 112.282" stroke="#263238" stroke-linecap="round" stroke-linejoin="round"/>
<path d="M115.989 118.109C118.042 118.212 119.995 119.031 121.507 120.424" stroke="#263238" stroke-width="0.5" stroke-linecap="round" stroke-linejoin="round"/>
<path d="M106.034 114.331C107.095 114.473 108.133 114.76 109.116 115.183" stroke="#263238" stroke-width="0.5" stroke-linecap="round" stroke-linejoin="round"/>
<path d="M113.257 106.987C112.788 106.739 112.267 106.603 111.736 106.591C111.205 106.578 110.679 106.689 110.198 106.915C108.572 107.694 107.575 108.553 107.684 107.555C107.793 106.558 109.703 105.458 110.277 105.313C110.851 105.168 113.42 104.769 113.257 106.987Z" fill="#263238"/>
<path d="M117.814 104.733C119.509 106.104 120.855 107.856 121.743 109.846C122.952 112.868 123.907 109.568 122.952 107.592C121.997 105.615 119.235 103.512 117.814 104.733Z" fill="#263238"/>
<path d="M130.562 137.088C130.562 138.497 129.764 139.639 128.785 139.639C127.806 139.639 127.014 138.497 127.014 137.088C127.014 135.68 127.806 132.096 128.785 132.096C129.764 132.096 130.562 135.68 130.562 137.088Z" fill="#FA0E9B" stroke="#263238" stroke-linecap="round" stroke-linejoin="round"/>
<path d="M118.673 113.37C118.603 113.555 118.549 113.745 118.51 113.938C118.334 114.833 118.159 116.701 118.51 116.779C118.86 116.858 119.718 115.111 119.87 114.216C119.904 114.041 119.924 113.863 119.93 113.684C119.517 113.555 119.098 113.45 118.673 113.37Z" fill="#263238"/>
<path d="M108.361 110.009C108.307 110.167 108.265 110.329 108.234 110.493C108.053 111.387 108.059 113.352 108.439 113.424C108.82 113.497 109.443 111.66 109.618 110.765C109.662 110.548 109.686 110.327 109.691 110.106C109.258 109.987 108.806 109.954 108.361 110.009Z" fill="#263238"/>
<path d="M118.516 113.95L119.12 112.826C120.078 113.013 120.947 113.515 121.586 114.253" stroke="#263238" stroke-width="0.75" stroke-linecap="round" stroke-linejoin="round"/>
<path d="M108.361 110.009L108.965 109.302C108.965 109.302 109.225 109.175 110.652 109.822" stroke="#263238" stroke-width="0.75" stroke-linecap="round" stroke-linejoin="round"/>
<path d="M106.07 126.402C106.07 126.402 107.086 124.534 108.446 124.534C109.806 124.534 110.821 127.587 110.821 127.587" stroke="#263238" stroke-linecap="round" stroke-linejoin="round"/>
<path d="M62.3021 206.951C60.9878 206.886 59.6968 206.578 58.4941 206.044C58.3264 205.982 58.173 205.887 58.0434 205.764C57.9138 205.64 57.8106 205.492 57.7401 205.328C57.6696 205.164 57.6333 204.987 57.6334 204.808C57.6335 204.629 57.6699 204.452 57.7406 204.288C57.8112 204.124 57.9145 203.975 58.0442 203.852C58.1739 203.729 58.3274 203.634 58.4951 203.572C58.6629 203.51 58.8415 203.483 59.02 203.493C59.1986 203.502 59.3734 203.547 59.5337 203.627C60.7426 204.14 62.3081 204.461 62.7252 204.279C63.4928 203.421 64.6715 198.235 63.1483 195.732C62.8038 195.176 62.4834 195.074 62.2719 195.049C61.4075 194.929 60.1261 195.817 59.6727 196.258C59.5465 196.377 59.3981 196.47 59.2359 196.532C59.0738 196.594 58.901 196.623 58.7276 196.618C58.5542 196.613 58.3834 196.574 58.2251 196.503C58.0668 196.432 57.9241 196.33 57.805 196.204C57.6859 196.078 57.5929 195.929 57.5312 195.767C57.4695 195.605 57.4403 195.432 57.4454 195.259C57.4504 195.085 57.4896 194.915 57.5606 194.756C57.6317 194.598 57.7332 194.455 57.8594 194.336C58.0951 194.106 60.2772 192.142 62.6043 192.456C63.1815 192.541 63.7315 192.757 64.2116 193.088C64.6917 193.419 65.089 193.857 65.3727 194.366C67.6152 198.023 66.0799 204.98 64.3572 206.359C63.7586 206.782 63.0343 206.991 62.3021 206.951Z" fill="white"/>
<path d="M64.0728 195.333C63.9143 194.958 63.6661 194.627 63.3499 194.37C63.0338 194.113 62.6593 193.937 62.2595 193.859C60.7483 193.617 59.3279 195.134 59.1707 195.303C59.0263 195.477 58.937 195.69 58.9144 195.915C58.8918 196.14 58.9368 196.367 59.0438 196.566C59.2816 196.519 59.5013 196.406 59.6785 196.24C60.1318 195.817 61.4132 194.928 62.2776 195.031C62.4892 195.031 62.8095 195.158 63.154 195.714C64.6773 198.192 63.4986 203.403 62.7309 204.261C62.3139 204.442 60.7544 204.122 59.5394 203.608C59.3899 203.545 59.2301 203.511 59.068 203.506C59.079 203.671 59.1312 203.832 59.2199 203.972C59.3085 204.112 59.4309 204.228 59.5757 204.309C60.34 204.718 61.1831 204.957 62.0479 205.011C62.5414 205.034 63.0247 204.865 63.3958 204.539C64.5322 203.493 65.5356 198.144 64.0728 195.333Z" fill="#FA0E9B"/>
<path opacity="0.5" d="M64.0728 195.333C63.9143 194.958 63.6661 194.627 63.3499 194.37C63.0338 194.113 62.6593 193.937 62.2595 193.859C60.7483 193.617 59.3279 195.134 59.1707 195.303C59.0263 195.477 58.937 195.69 58.9144 195.915C58.8918 196.14 58.9368 196.367 59.0438 196.566C59.2816 196.519 59.5013 196.406 59.6785 196.24C60.1318 195.817 61.4132 194.928 62.2776 195.031C62.4892 195.031 62.8095 195.158 63.154 195.714C64.6773 198.192 63.4986 203.403 62.7309 204.261C62.3139 204.442 60.7544 204.122 59.5394 203.608C59.3899 203.545 59.2301 203.511 59.068 203.506C59.079 203.671 59.1312 203.832 59.2199 203.972C59.3085 204.112 59.4309 204.228 59.5757 204.309C60.34 204.718 61.1831 204.957 62.0479 205.011C62.5414 205.034 63.0247 204.865 63.3958 204.539C64.5322 203.493 65.5356 198.144 64.0728 195.333Z" fill="white"/>
<path d="M62.3021 206.951C60.9878 206.886 59.6968 206.578 58.4941 206.044C58.3264 205.982 58.173 205.887 58.0434 205.764C57.9138 205.64 57.8106 205.492 57.7401 205.328C57.6696 205.164 57.6333 204.987 57.6334 204.808C57.6335 204.629 57.6699 204.452 57.7406 204.288C57.8112 204.124 57.9145 203.975 58.0442 203.852C58.1739 203.729 58.3274 203.634 58.4951 203.572C58.6629 203.51 58.8415 203.483 59.02 203.493C59.1986 203.502 59.3734 203.547 59.5337 203.627C60.7426 204.14 62.3081 204.461 62.7252 204.279C63.4928 203.421 64.6715 198.235 63.1483 195.732C62.8038 195.176 62.4834 195.074 62.2719 195.049C61.4075 194.929 60.1261 195.817 59.6727 196.258C59.5465 196.377 59.3981 196.47 59.2359 196.532C59.0738 196.594 58.901 196.623 58.7276 196.618C58.5542 196.613 58.3834 196.574 58.2251 196.503C58.0668 196.432 57.9241 196.33 57.805 196.204C57.6859 196.078 57.5929 195.929 57.5312 195.767C57.4695 195.605 57.4403 195.432 57.4454 195.259C57.4504 195.085 57.4896 194.915 57.5606 194.756C57.6317 194.598 57.7332 194.455 57.8594 194.336C58.0951 194.106 60.2772 192.142 62.6043 192.456C63.1815 192.541 63.7315 192.757 64.2116 193.088C64.6917 193.419 65.089 193.857 65.3727 194.366C67.6152 198.023 66.0799 204.98 64.3572 206.359C63.7586 206.782 63.0343 206.991 62.3021 206.951V206.951Z" stroke="#263238" stroke-linecap="round" stroke-linejoin="round"/>
<path d="M59.993 191.356H45.4561V210.65H59.993V191.356Z" fill="white"/>
<path d="M51.4099 191.356H45.4561V210.65H51.4099V191.356Z" fill="#FA0E9B"/>
<path opacity="0.5" d="M51.4099 191.356H45.4561V210.65H51.4099V191.356Z" fill="white"/>
<path d="M59.993 191.356H45.4561V210.65H59.993V191.356Z" stroke="#263238" stroke-linecap="round" stroke-linejoin="round"/>
<path d="M139.877 210.384H77.7761L75.7512 176.245C75.6953 175.914 75.7118 175.574 75.7996 175.25C75.8874 174.926 76.0445 174.625 76.26 174.368C76.4755 174.11 76.7442 173.903 77.0477 173.759C77.3512 173.616 77.6822 173.54 78.0179 173.537H139.611C139.949 173.536 140.283 173.61 140.589 173.752C140.895 173.894 141.167 174.101 141.385 174.359C141.603 174.616 141.763 174.919 141.852 175.245C141.941 175.57 141.958 175.912 141.902 176.245L139.877 210.384Z" fill="#263238" stroke="#263238" stroke-linecap="round" stroke-linejoin="round"/>
<path d="M80.8345 174.353H139.164C139.493 174.349 139.819 174.418 140.12 174.554C140.42 174.69 140.687 174.89 140.901 175.14C141.116 175.39 141.274 175.683 141.363 176.001C141.452 176.318 141.471 176.651 141.418 176.976" stroke="white" stroke-linecap="round" stroke-linejoin="round"/>
<path d="M76.2046 176.438C76.2532 175.867 76.5155 175.335 76.939 174.948C77.3624 174.562 77.9161 174.349 78.4894 174.353" stroke="white" stroke-linecap="round" stroke-linejoin="round"/>
<path d="M140.137 207.059H77.5161V210.384H140.137V207.059Z" fill="white" stroke="#263238" stroke-linecap="round" stroke-linejoin="round"/>
<path d="M108.603 194.753C111.053 194.753 113.039 193.562 113.039 192.093C113.039 190.624 111.053 189.434 108.603 189.434C106.152 189.434 104.166 190.624 104.166 192.093C104.166 193.562 106.152 194.753 108.603 194.753Z" fill="white" stroke="#263238" stroke-linecap="round" stroke-linejoin="round"/>
<path d="M234.587 209.991H1.35547V215.655H234.587V209.991Z" fill="#263238"/>
<path d="M174.113 0H61.9094C58.1272 0 55.061 3.06613 55.061 6.84838V71.228C55.061 75.0103 58.1272 78.0764 61.9094 78.0764H174.113C177.895 78.0764 180.961 75.0103 180.961 71.228V6.84838C180.961 3.06613 177.895 0 174.113 0Z" fill="#FA0E9B"/>
<path d="M120.972 44.8681C131.15 43.2324 138.075 33.6555 136.439 23.4776C134.803 13.2996 125.226 6.37473 115.048 8.01045C104.871 9.64616 97.9456 19.223 99.5814 29.401C101.217 39.579 110.794 46.5039 120.972 44.8681Z" fill="#263238"/>
<path d="M117.869 29.8899L111.649 37.8746C111.438 38.207 111.147 38.4816 110.803 38.6736C110.459 38.8657 110.072 38.9691 109.679 38.9747C109.138 38.9821 108.617 38.7757 108.228 38.4005C108.03 38.2191 107.874 37.9973 107.769 37.7501C107.665 37.5029 107.615 37.2361 107.623 36.968C107.643 36.3674 107.855 35.7889 108.228 35.3178L115.318 26.5473L108.669 17.7707C108.36 17.3588 108.191 16.8591 108.186 16.3442C108.184 16.0372 108.246 15.7331 108.368 15.4512C108.489 15.1693 108.668 14.9156 108.893 14.7062C109.104 14.486 109.357 14.3108 109.638 14.1914C109.918 14.0719 110.22 14.0106 110.525 14.0111C110.915 14.0174 111.298 14.1214 111.638 14.3135C111.978 14.5057 112.264 14.7799 112.471 15.1112L118.479 23.0234L124.524 15.2441C124.74 14.8812 125.042 14.5772 125.404 14.3589C125.765 14.1407 126.175 14.015 126.597 13.9929C126.859 13.9923 127.118 14.0456 127.358 14.1496C127.598 14.2536 127.815 14.406 127.993 14.5974C128.184 14.7767 128.336 14.9931 128.44 15.2332C128.543 15.4732 128.597 15.732 128.598 15.9936C128.591 16.4618 128.43 16.9146 128.138 17.2811L121.024 26.3841L127.897 35.4508C128.221 35.8561 128.402 36.3579 128.41 36.8773C128.412 37.1776 128.349 37.4748 128.225 37.7482C128.101 38.0216 127.918 38.2648 127.691 38.4609C127.248 38.8874 126.656 39.1257 126.041 39.1258C125.649 39.121 125.264 39.0177 124.921 38.8255C124.579 38.6333 124.291 38.3583 124.082 38.0257L117.869 29.8899Z" fill="white"/>
<path d="M153.574 64.5549H82.4244C80.9816 64.5549 79.5979 63.9817 78.5777 62.9615C77.5575 61.9413 76.9844 60.5576 76.9844 59.1148C76.9844 57.672 77.5575 56.2883 78.5777 55.2681C79.5979 54.2479 80.9816 53.6748 82.4244 53.6748H153.574C155.017 53.6748 156.4 54.2479 157.421 55.2681C158.441 56.2883 159.014 57.672 159.014 59.1148C159.014 60.5576 158.441 61.9413 157.421 62.9615C156.4 63.9817 155.017 64.5549 153.574 64.5549Z" fill="white"/>
<path d="M92.1738 60.8676C92.1263 60.8676 92.0793 60.858 92.0357 60.8393C91.992 60.8206 91.9526 60.7932 91.9199 60.7588C91.8841 60.7233 91.856 60.6809 91.8373 60.6341C91.8186 60.5873 91.8097 60.5372 91.8111 60.4868C91.811 60.4017 91.834 60.3182 91.8776 60.245L92.4216 59.3988H91.3094C91.258 59.4015 91.2066 59.3931 91.1587 59.3744C91.1107 59.3556 91.0673 59.3268 91.0313 59.29C90.9692 59.2177 90.9351 59.1255 90.9351 59.0301C90.9351 58.9347 90.9692 58.8425 91.0313 58.7702C91.0673 58.7334 91.1107 58.7046 91.1587 58.6859C91.2066 58.6671 91.258 58.6588 91.3094 58.6614L92.4034 58.6916L91.9199 57.9058C91.8714 57.8253 91.8444 57.7338 91.8413 57.6399C91.8399 57.5895 91.8488 57.5394 91.8675 57.4926C91.8862 57.4458 91.9144 57.4034 91.9501 57.3679C91.984 57.3333 92.0244 57.3059 92.0691 57.2872C92.1137 57.2685 92.1616 57.2589 92.21 57.2591C92.2777 57.2581 92.3442 57.277 92.4011 57.3136C92.4581 57.3501 92.5031 57.4027 92.5304 57.4646L93.0623 58.4136L93.57 57.5069C93.602 57.4364 93.6527 57.3759 93.7167 57.3322C93.7806 57.2885 93.8554 57.2632 93.9327 57.2591C93.9802 57.2591 94.0272 57.2687 94.0708 57.2874C94.1144 57.3061 94.1538 57.3335 94.1866 57.3679C94.222 57.4011 94.25 57.4414 94.2687 57.4862C94.2875 57.531 94.2966 57.5792 94.2954 57.6278C94.2946 57.7136 94.2694 57.7975 94.2228 57.8696L93.6909 58.7218L94.797 58.6916C94.8485 58.6886 94.9 58.6967 94.948 58.7155C94.996 58.7343 95.0394 58.7633 95.0751 58.8004C95.1372 58.8728 95.1714 58.965 95.1714 59.0603C95.1714 59.1557 95.1372 59.2479 95.0751 59.3202C95.0394 59.3574 94.996 59.3864 94.948 59.4051C94.9 59.4239 94.8485 59.4321 94.797 59.429H93.6788L94.1745 60.2027C94.2304 60.2961 94.2616 60.4022 94.2651 60.511C94.2669 60.56 94.2587 60.6088 94.241 60.6545C94.2233 60.7002 94.1966 60.7419 94.1624 60.777C94.1306 60.8109 94.0922 60.838 94.0496 60.8567C94.007 60.8754 93.9611 60.8853 93.9146 60.8858C93.8397 60.8839 93.767 60.8608 93.7049 60.819C93.6428 60.7773 93.5939 60.7186 93.564 60.65L93.0623 59.7615L92.5606 60.65C92.5243 60.72 92.4684 60.7779 92.3996 60.8165C92.3309 60.8552 92.2524 60.8729 92.1738 60.8676Z" fill="black"/>
<path d="M97.7226 60.8678C97.6751 60.8678 97.6281 60.8582 97.5845 60.8395C97.5408 60.8208 97.5014 60.7934 97.4687 60.759C97.4329 60.7235 97.4049 60.6811 97.3861 60.6343C97.3674 60.5875 97.3585 60.5374 97.3599 60.487C97.3598 60.4019 97.3828 60.3183 97.4264 60.2452L97.9704 59.399H96.8582C96.8068 59.4017 96.7554 59.3933 96.7075 59.3746C96.6595 59.3558 96.6161 59.327 96.5802 59.2902C96.518 59.2179 96.4839 59.1257 96.4839 59.0303C96.4839 58.9349 96.518 58.8427 96.5802 58.7704C96.6161 58.7336 96.6595 58.7048 96.7075 58.686C96.7554 58.6673 96.8068 58.6589 96.8582 58.6616L97.9523 58.6918L97.4385 57.8758C97.39 57.7953 97.363 57.7038 97.3599 57.6098C97.3585 57.5595 97.3674 57.5094 97.3861 57.4626C97.4049 57.4158 97.4329 57.3733 97.4687 57.3378C97.5026 57.3033 97.543 57.2759 97.5877 57.2572C97.6323 57.2385 97.6802 57.2289 97.7286 57.229C97.7963 57.228 97.8628 57.247 97.9198 57.2836C97.9767 57.3201 98.0217 57.3726 98.049 57.4346L98.5809 58.3835L99.0886 57.4769C99.1206 57.4063 99.1713 57.3459 99.2353 57.3022C99.2992 57.2585 99.374 57.2332 99.4513 57.229C99.4988 57.229 99.5458 57.2387 99.5894 57.2574C99.633 57.2761 99.6724 57.3035 99.7052 57.3378C99.7406 57.3711 99.7686 57.4114 99.7873 57.4562C99.8061 57.501 99.8152 57.5492 99.814 57.5978C99.8132 57.6836 99.788 57.7674 99.7414 57.8395L99.2095 58.6918L100.316 58.6616C100.367 58.6586 100.419 58.6667 100.467 58.6855C100.515 58.7043 100.558 58.7332 100.594 58.7704C100.656 58.8427 100.69 58.9349 100.69 59.0303C100.69 59.1257 100.656 59.2179 100.594 59.2902C100.558 59.3274 100.515 59.3563 100.467 59.3751C100.419 59.3939 100.367 59.402 100.316 59.399H99.1974L99.6931 60.1727C99.749 60.2661 99.7802 60.3722 99.7837 60.481C99.7855 60.5299 99.7773 60.5788 99.7596 60.6245C99.7419 60.6702 99.7152 60.7118 99.681 60.7469C99.6492 60.7809 99.6108 60.808 99.5682 60.8267C99.5256 60.8454 99.4797 60.8553 99.4332 60.8557C99.3582 60.8546 99.2851 60.8318 99.2229 60.7899C99.1606 60.7481 99.1119 60.689 99.0826 60.62L98.5809 59.7315L98.0792 60.62C98.0494 60.6909 98.0001 60.7519 97.9369 60.7957C97.8738 60.8396 97.7994 60.8646 97.7226 60.8678Z" fill="black"/>
<path d="M103.271 60.8678C103.224 60.8678 103.177 60.8582 103.133 60.8395C103.09 60.8208 103.05 60.7934 103.018 60.759C102.982 60.7235 102.954 60.6811 102.935 60.6343C102.916 60.5875 102.907 60.5374 102.909 60.487C102.909 60.4019 102.932 60.3183 102.975 60.2452L103.519 59.399H102.407C102.356 59.4017 102.304 59.3933 102.256 59.3746C102.208 59.3558 102.165 59.327 102.129 59.2902C102.067 59.2179 102.033 59.1257 102.033 59.0303C102.033 58.9349 102.067 58.8427 102.129 58.7704C102.165 58.7336 102.208 58.7048 102.256 58.686C102.304 58.6673 102.356 58.6589 102.407 58.6616L103.501 58.6918L102.987 57.8758C102.939 57.7953 102.912 57.7038 102.909 57.6098C102.907 57.5595 102.916 57.5094 102.935 57.4626C102.954 57.4158 102.982 57.3733 103.018 57.3378C103.051 57.3033 103.092 57.2759 103.137 57.2572C103.181 57.2385 103.229 57.2289 103.277 57.229C103.345 57.228 103.412 57.247 103.469 57.2836C103.526 57.3201 103.571 57.3726 103.598 57.4346L104.13 58.3835L104.637 57.4769C104.669 57.4063 104.72 57.3459 104.784 57.3022C104.848 57.2585 104.923 57.2332 105 57.229C105.048 57.229 105.095 57.2387 105.138 57.2574C105.182 57.2761 105.221 57.3035 105.254 57.3378C105.289 57.3711 105.317 57.4114 105.336 57.4562C105.355 57.501 105.364 57.5492 105.363 57.5978C105.362 57.6836 105.337 57.7674 105.29 57.8395L104.758 58.6918L105.864 58.6616C105.916 58.6586 105.967 58.6667 106.015 58.6855C106.063 58.7043 106.107 58.7332 106.143 58.7704C106.205 58.8427 106.239 58.9349 106.239 59.0303C106.239 59.1257 106.205 59.2179 106.143 59.2902C106.107 59.3274 106.063 59.3563 106.015 59.3751C105.967 59.3939 105.916 59.402 105.864 59.399H104.746L105.242 60.1727C105.298 60.2661 105.329 60.3722 105.333 60.481C105.334 60.5299 105.326 60.5788 105.308 60.6245C105.291 60.6702 105.264 60.7118 105.23 60.7469C105.198 60.7809 105.16 60.808 105.117 60.8267C105.074 60.8454 105.029 60.8553 104.982 60.8557C104.907 60.8546 104.834 60.8318 104.772 60.7899C104.709 60.7481 104.661 60.689 104.631 60.62L104.13 59.7315L103.628 60.62C103.598 60.6909 103.549 60.7519 103.486 60.7957C103.423 60.8396 103.348 60.8646 103.271 60.8678Z" fill="black"/>
<path d="M108.845 60.8678C108.797 60.8678 108.75 60.8582 108.707 60.8395C108.663 60.8208 108.624 60.7934 108.591 60.759C108.555 60.7235 108.527 60.6811 108.508 60.6343C108.489 60.5875 108.481 60.5374 108.482 60.487C108.482 60.4019 108.505 60.3183 108.548 60.2452L109.092 59.399H107.98C107.929 59.4017 107.877 59.3933 107.83 59.3746C107.782 59.3558 107.738 59.327 107.702 59.2902C107.64 59.2179 107.606 59.1257 107.606 59.0303C107.606 58.9349 107.64 58.8427 107.702 58.7704C107.738 58.7336 107.782 58.7048 107.83 58.686C107.877 58.6673 107.929 58.6589 107.98 58.6616L109.074 58.6918L108.561 57.8758C108.512 57.7953 108.485 57.7038 108.482 57.6098C108.481 57.5595 108.489 57.5094 108.508 57.4626C108.527 57.4158 108.555 57.3733 108.591 57.3378C108.625 57.3033 108.665 57.2759 108.71 57.2572C108.754 57.2385 108.802 57.2289 108.851 57.229C108.918 57.228 108.985 57.247 109.042 57.2836C109.099 57.3201 109.144 57.3726 109.171 57.4346L109.703 58.3835L110.211 57.4769C110.243 57.4063 110.293 57.3459 110.357 57.3022C110.421 57.2585 110.496 57.2332 110.573 57.229C110.621 57.229 110.668 57.2387 110.711 57.2574C110.755 57.2761 110.794 57.3035 110.827 57.3378C110.863 57.3711 110.891 57.4114 110.909 57.4562C110.928 57.501 110.937 57.5492 110.936 57.5978C110.935 57.6836 110.91 57.7674 110.864 57.8395L110.332 58.6918L111.438 58.6616C111.489 58.6586 111.541 58.6667 111.589 58.6855C111.637 58.7043 111.68 58.7332 111.716 58.7704C111.778 58.8427 111.812 58.9349 111.812 59.0303C111.812 59.1257 111.778 59.2179 111.716 59.2902C111.68 59.3274 111.637 59.3563 111.589 59.3751C111.541 59.3939 111.489 59.402 111.438 59.399H110.32L110.815 60.1727C110.871 60.2661 110.902 60.3722 110.906 60.481C110.908 60.5299 110.899 60.5788 110.882 60.6245C110.864 60.6702 110.837 60.7118 110.803 60.7469C110.771 60.7809 110.733 60.808 110.69 60.8267C110.648 60.8454 110.602 60.8553 110.555 60.8557C110.48 60.8539 110.408 60.8308 110.346 60.789C110.283 60.7472 110.235 60.6886 110.205 60.62L109.703 59.7315L109.201 60.62C109.171 60.6909 109.122 60.7519 109.059 60.7957C108.996 60.8396 108.921 60.8646 108.845 60.8678Z" fill="black"/>
<path d="M114.369 60.8678C114.322 60.8678 114.275 60.8582 114.231 60.8395C114.187 60.8208 114.148 60.7934 114.115 60.759C114.079 60.7235 114.051 60.6811 114.033 60.6343C114.014 60.5875 114.005 60.5374 114.006 60.487C114.009 60.4023 114.032 60.3195 114.073 60.2452L114.617 59.399H113.505C113.453 59.4017 113.402 59.3933 113.354 59.3746C113.306 59.3558 113.263 59.327 113.227 59.2902C113.165 59.2179 113.13 59.1257 113.13 59.0303C113.13 58.9349 113.165 58.8427 113.227 58.7704C113.263 58.7336 113.306 58.7048 113.354 58.686C113.402 58.6673 113.453 58.659 113.505 58.6616L114.599 58.6918L114.085 57.8758C114.036 57.7953 114.009 57.7038 114.006 57.6098C114.005 57.5595 114.014 57.5094 114.033 57.4626C114.051 57.4158 114.079 57.3733 114.115 57.3378C114.149 57.3033 114.19 57.2759 114.234 57.2572C114.279 57.2385 114.327 57.2289 114.375 57.229C114.443 57.228 114.509 57.247 114.566 57.2836C114.623 57.3201 114.668 57.3726 114.695 57.4346L115.227 58.3835L115.735 57.4769C115.767 57.4063 115.818 57.3459 115.882 57.3022C115.946 57.2585 116.02 57.2332 116.098 57.229C116.145 57.2283 116.193 57.2376 116.236 57.2564C116.28 57.2751 116.319 57.3029 116.352 57.3378C116.387 57.3711 116.415 57.4114 116.434 57.4562C116.453 57.501 116.462 57.5492 116.46 57.5978C116.46 57.6836 116.434 57.7674 116.388 57.8395L115.856 58.6918L116.962 58.6616C117.014 58.6586 117.065 58.6667 117.113 58.6855C117.161 58.7043 117.204 58.7332 117.24 58.7704C117.302 58.8427 117.336 58.9349 117.336 59.0303C117.336 59.1257 117.302 59.2179 117.24 59.2902C117.204 59.3274 117.161 59.3563 117.113 59.3751C117.065 59.3939 117.014 59.4021 116.962 59.399H115.844L116.34 60.1727C116.395 60.2661 116.427 60.3722 116.43 60.481C116.432 60.5299 116.424 60.5788 116.406 60.6245C116.388 60.6702 116.362 60.7118 116.327 60.7469C116.296 60.7809 116.257 60.808 116.215 60.8267C116.172 60.8454 116.126 60.8553 116.08 60.8557C116.005 60.8539 115.932 60.8308 115.87 60.789C115.808 60.7472 115.759 60.6886 115.729 60.62L115.227 59.7315L114.726 60.62C114.696 60.6909 114.647 60.7519 114.583 60.7957C114.52 60.8396 114.446 60.8646 114.369 60.8678Z" fill="black"/>
<path d="M119.918 60.8678C119.871 60.8678 119.824 60.8582 119.78 60.8395C119.737 60.8208 119.697 60.7934 119.665 60.759C119.629 60.7235 119.601 60.6811 119.582 60.6343C119.563 60.5875 119.554 60.5374 119.556 60.487C119.559 60.4023 119.581 60.3195 119.622 60.2452L120.166 59.399H119.06C119.008 59.4021 118.955 59.394 118.906 59.3753C118.857 59.3565 118.813 59.3275 118.776 59.2902C118.714 59.2179 118.68 59.1257 118.68 59.0303C118.68 58.9349 118.714 58.8427 118.776 58.7704C118.813 58.7331 118.857 58.7041 118.906 58.6853C118.955 58.6666 119.008 58.6585 119.06 58.6616L120.148 58.6918L119.634 57.8758C119.586 57.7953 119.559 57.7038 119.556 57.6098C119.554 57.5595 119.563 57.5094 119.582 57.4626C119.601 57.4158 119.629 57.3733 119.665 57.3378C119.698 57.3033 119.739 57.2759 119.783 57.2572C119.828 57.2385 119.876 57.2289 119.924 57.229C119.992 57.228 120.059 57.247 120.116 57.2836C120.173 57.3201 120.217 57.3726 120.245 57.4346L120.777 58.3835L121.284 57.4769C121.316 57.4063 121.367 57.3459 121.431 57.3022C121.495 57.2585 121.57 57.2332 121.647 57.229C121.695 57.2283 121.742 57.2376 121.786 57.2564C121.829 57.2751 121.869 57.3029 121.901 57.3378C121.936 57.3711 121.964 57.4114 121.983 57.4562C122.002 57.501 122.011 57.5492 122.01 57.5978C122.009 57.6836 121.984 57.7674 121.937 57.8395L121.405 58.6918L122.511 58.6616C122.563 58.6586 122.614 58.6667 122.662 58.6855C122.71 58.7043 122.754 58.7332 122.79 58.7704C122.852 58.8427 122.886 58.9349 122.886 59.0303C122.886 59.1257 122.852 59.2179 122.79 59.2902C122.754 59.3274 122.71 59.3563 122.662 59.3751C122.614 59.3939 122.563 59.4021 122.511 59.399H121.393L121.889 60.1727C121.945 60.2661 121.976 60.3722 121.98 60.481C121.981 60.5299 121.973 60.5788 121.955 60.6245C121.938 60.6702 121.911 60.7118 121.877 60.7469C121.845 60.7809 121.807 60.808 121.764 60.8267C121.721 60.8454 121.675 60.8553 121.629 60.8557C121.554 60.8539 121.481 60.8308 121.419 60.789C121.357 60.7472 121.308 60.6886 121.278 60.62L120.777 59.7315L120.275 60.62C120.245 60.6909 120.196 60.7519 120.133 60.7957C120.07 60.8396 119.995 60.8646 119.918 60.8678Z" fill="black"/>
<path d="M125.467 60.8676C125.419 60.8676 125.372 60.858 125.329 60.8393C125.285 60.8206 125.246 60.7932 125.213 60.7588C125.177 60.7233 125.149 60.6809 125.13 60.6341C125.112 60.5873 125.103 60.5372 125.104 60.4868C125.104 60.4017 125.127 60.3182 125.171 60.245L125.715 59.3988H124.602C124.551 59.4015 124.5 59.3931 124.452 59.3744C124.404 59.3556 124.36 59.3268 124.324 59.29C124.262 59.2177 124.228 59.1255 124.228 59.0301C124.228 58.9347 124.262 58.8425 124.324 58.7702C124.36 58.7334 124.404 58.7046 124.452 58.6859C124.5 58.6671 124.551 58.6588 124.602 58.6614L125.696 58.6916L125.164 57.9058C125.116 57.8253 125.089 57.7338 125.086 57.6399C125.084 57.5895 125.093 57.5394 125.112 57.4926C125.131 57.4458 125.159 57.4034 125.195 57.3679C125.229 57.3333 125.269 57.3059 125.314 57.2872C125.358 57.2685 125.406 57.259 125.455 57.2591C125.522 57.2581 125.589 57.277 125.646 57.3136C125.703 57.3501 125.748 57.4027 125.775 57.4646L126.307 58.4136L126.815 57.5069C126.847 57.4364 126.897 57.3759 126.961 57.3322C127.025 57.2885 127.1 57.2632 127.177 57.2591C127.225 57.2583 127.272 57.2677 127.316 57.2864C127.36 57.3051 127.399 57.3329 127.431 57.3679C127.467 57.4011 127.495 57.4414 127.513 57.4862C127.532 57.531 127.541 57.5792 127.54 57.6278C127.539 57.7136 127.514 57.7975 127.467 57.8696L126.936 58.7218L128.042 58.6916C128.093 58.6886 128.145 58.6967 128.193 58.7155C128.241 58.7343 128.284 58.7633 128.32 58.8004C128.382 58.8728 128.416 58.965 128.416 59.0603C128.416 59.1557 128.382 59.2479 128.32 59.3202C128.284 59.3574 128.241 59.3864 128.193 59.4051C128.145 59.4239 128.093 59.4321 128.042 59.429H126.923L127.419 60.2027C127.475 60.2961 127.506 60.4022 127.51 60.511C127.511 60.56 127.503 60.6088 127.486 60.6545C127.468 60.7002 127.441 60.7419 127.407 60.777C127.375 60.8109 127.337 60.838 127.294 60.8567C127.252 60.8754 127.206 60.8853 127.159 60.8858C127.084 60.8839 127.012 60.8608 126.949 60.819C126.887 60.7773 126.838 60.7186 126.809 60.65L126.307 59.7615L125.805 60.65C125.773 60.7126 125.724 60.7657 125.665 60.8038C125.606 60.842 125.537 60.864 125.467 60.8676Z" fill="black"/>
<path d="M131.016 60.8677C130.968 60.8677 130.921 60.8581 130.878 60.8394C130.834 60.8207 130.795 60.7933 130.762 60.7589C130.726 60.7234 130.698 60.681 130.679 60.6342C130.661 60.5874 130.652 60.5373 130.653 60.4869C130.656 60.4022 130.679 60.3194 130.72 60.2451L131.264 59.3989H130.157C130.106 59.4028 130.054 59.395 130.006 59.3762C129.958 59.3573 129.915 59.3279 129.879 59.2901C129.813 59.2196 129.777 59.1267 129.777 59.0302C129.777 58.9337 129.813 58.8408 129.879 58.7703C129.915 58.7324 129.958 58.703 130.006 58.6842C130.054 58.6654 130.106 58.6576 130.157 58.6615L131.245 58.6917L130.732 57.8757C130.683 57.7952 130.656 57.7036 130.653 57.6097C130.651 57.5603 130.66 57.5111 130.678 57.4649C130.695 57.4188 130.722 57.3767 130.757 57.3412C130.791 57.3056 130.832 57.2774 130.878 57.2581C130.923 57.2388 130.972 57.2289 131.022 57.2289C131.089 57.2279 131.156 57.2469 131.213 57.2834C131.27 57.32 131.315 57.3725 131.342 57.4344L131.874 58.3834L132.382 57.4768C132.414 57.4062 132.464 57.3458 132.528 57.3021C132.592 57.2584 132.667 57.2331 132.744 57.2289C132.792 57.2274 132.84 57.2364 132.883 57.2552C132.927 57.274 132.967 57.3021 132.998 57.3377C133.034 57.3709 133.062 57.4113 133.08 57.4561C133.099 57.5008 133.108 57.5491 133.107 57.5976C133.106 57.6835 133.081 57.7673 133.035 57.8394L132.503 58.6917L133.609 58.6615C133.66 58.6584 133.712 58.6666 133.76 58.6854C133.808 58.7042 133.851 58.7331 133.887 58.7703C133.949 58.8426 133.983 58.9348 133.983 59.0302C133.983 59.1255 133.949 59.2177 133.887 59.2901C133.851 59.3272 133.808 59.3562 133.76 59.375C133.712 59.3938 133.66 59.4019 133.609 59.3989H132.491L132.986 60.1726C133.042 60.266 133.073 60.3721 133.077 60.4809C133.078 60.5285 133.071 60.576 133.054 60.6206C133.037 60.6652 133.012 60.7061 132.979 60.7409C132.947 60.7757 132.908 60.8037 132.864 60.8234C132.821 60.8431 132.774 60.854 132.726 60.8556C132.651 60.8538 132.579 60.8306 132.517 60.7889C132.455 60.7471 132.406 60.6885 132.376 60.6199L131.874 59.7313L131.372 60.6199C131.343 60.6908 131.293 60.7517 131.23 60.7956C131.167 60.8395 131.093 60.8645 131.016 60.8677Z" fill="black"/>
<path d="M136.565 60.8677C136.517 60.8677 136.47 60.8581 136.426 60.8394C136.383 60.8207 136.343 60.7933 136.311 60.7589C136.275 60.7234 136.247 60.681 136.228 60.6342C136.209 60.5874 136.2 60.5373 136.202 60.4869C136.205 60.4022 136.227 60.3194 136.268 60.2451L136.812 59.3989H135.7C135.65 59.4019 135.599 59.3936 135.552 59.3748C135.505 59.356 135.463 59.3271 135.428 59.2901C135.362 59.2196 135.326 59.1267 135.326 59.0302C135.326 58.9337 135.362 58.8408 135.428 58.7703C135.463 58.7333 135.505 58.7043 135.552 58.6855C135.599 58.6667 135.65 58.6585 135.7 58.6615L136.794 58.6917L136.28 57.8757C136.232 57.7952 136.205 57.7036 136.202 57.6097C136.2 57.5603 136.209 57.5111 136.226 57.4649C136.244 57.4188 136.271 57.3767 136.305 57.3412C136.34 57.3056 136.381 57.2774 136.427 57.2581C136.472 57.2388 136.521 57.2289 136.571 57.2289C136.638 57.2279 136.705 57.2469 136.762 57.2834C136.819 57.32 136.864 57.3725 136.891 57.4344L137.423 58.3834L137.931 57.4768C137.963 57.4062 138.013 57.3458 138.077 57.3021C138.141 57.2584 138.216 57.2331 138.293 57.2289C138.341 57.2274 138.388 57.2364 138.432 57.2552C138.476 57.274 138.515 57.3021 138.547 57.3377C138.583 57.3709 138.611 57.4113 138.629 57.4561C138.648 57.5008 138.657 57.5491 138.656 57.5976C138.655 57.6835 138.63 57.7673 138.583 57.8394L138.051 58.6917L139.158 58.6615C139.209 58.6584 139.261 58.6666 139.309 58.6854C139.357 58.7042 139.4 58.7331 139.436 58.7703C139.498 58.8426 139.532 58.9348 139.532 59.0302C139.532 59.1255 139.498 59.2177 139.436 59.2901C139.4 59.3272 139.357 59.3562 139.309 59.375C139.261 59.3938 139.209 59.4019 139.158 59.3989H138.039L138.535 60.1726C138.591 60.266 138.622 60.3721 138.626 60.4809C138.627 60.5285 138.62 60.576 138.603 60.6206C138.586 60.6652 138.561 60.7061 138.528 60.7409C138.496 60.7757 138.456 60.8037 138.413 60.8234C138.37 60.8431 138.323 60.854 138.275 60.8556C138.2 60.8538 138.128 60.8306 138.065 60.7889C138.003 60.7471 137.954 60.6885 137.925 60.6199L137.423 59.7313L136.921 60.6199C136.891 60.6908 136.842 60.7517 136.779 60.7956C136.716 60.8395 136.641 60.8645 136.565 60.8677Z" fill="black"/>
<path d="M142.089 60.8677C142.042 60.8677 141.995 60.8581 141.951 60.8394C141.908 60.8207 141.868 60.7933 141.836 60.7589C141.8 60.7234 141.772 60.681 141.753 60.6342C141.734 60.5874 141.725 60.5373 141.727 60.4869C141.73 60.4022 141.752 60.3194 141.793 60.2451L142.337 59.3989H141.225C141.175 59.4019 141.124 59.3936 141.077 59.3748C141.03 59.356 140.988 59.3271 140.953 59.2901C140.887 59.2196 140.851 59.1267 140.851 59.0302C140.851 58.9337 140.887 58.8408 140.953 58.7703C140.988 58.7333 141.03 58.7043 141.077 58.6855C141.124 58.6667 141.175 58.6585 141.225 58.6615L142.319 58.6917L141.805 57.8757C141.757 57.7952 141.73 57.7036 141.727 57.6097C141.725 57.5594 141.734 57.5092 141.753 57.4625C141.772 57.4157 141.8 57.3732 141.836 57.3377C141.869 57.3032 141.91 57.2757 141.955 57.2571C141.999 57.2384 142.047 57.2288 142.095 57.2289C142.163 57.2279 142.23 57.2469 142.287 57.2834C142.344 57.32 142.389 57.3725 142.416 57.4344L142.948 58.3834L143.455 57.4768C143.487 57.4062 143.538 57.3458 143.602 57.3021C143.666 57.2584 143.741 57.2331 143.818 57.2289C143.866 57.2274 143.913 57.2364 143.957 57.2552C144.001 57.274 144.04 57.3021 144.072 57.3377C144.107 57.3709 144.135 57.4113 144.154 57.4561C144.173 57.5008 144.182 57.5491 144.181 57.5976C144.18 57.6835 144.155 57.7673 144.108 57.8394L143.576 58.6917L144.683 58.6615C144.734 58.6584 144.785 58.6666 144.833 58.6854C144.881 58.7042 144.925 58.7331 144.961 58.7703C145.023 58.8426 145.057 58.9348 145.057 59.0302C145.057 59.1255 145.023 59.2177 144.961 59.2901C144.925 59.3272 144.881 59.3562 144.833 59.375C144.785 59.3938 144.734 59.4019 144.683 59.3989H143.564L144.06 60.1726C144.116 60.266 144.147 60.3721 144.151 60.4809C144.152 60.5298 144.144 60.5786 144.126 60.6244C144.109 60.6701 144.082 60.7117 144.048 60.7468C144.016 60.7807 143.978 60.8079 143.935 60.8266C143.892 60.8453 143.847 60.8551 143.8 60.8556C143.725 60.8538 143.652 60.8306 143.59 60.7889C143.528 60.7471 143.479 60.6885 143.449 60.6199L142.948 59.7313L142.446 60.6199C142.416 60.6908 142.367 60.7517 142.304 60.7956C142.241 60.8395 142.166 60.8645 142.089 60.8677Z" fill="black"/>
<path d="M161.105 74.238H168.497" stroke="white" stroke-width="3" stroke-linecap="round" stroke-linejoin="round"/>
<path d="M58.5728 19.8076V68.9068C58.5728 70.3288 59.1376 71.6925 60.1431 72.698C61.1485 73.7034 62.5123 74.2683 63.9342 74.2683H154.087" stroke="white" stroke-width="3" stroke-linecap="round" stroke-linejoin="round"/>
<path d="M58.5728 6.78784V14.15" stroke="white" stroke-width="3" stroke-linecap="round" stroke-linejoin="round"/>
</svg>
