<svg width="242" height="235" viewBox="0 0 242 235" fill="none" xmlns="http://www.w3.org/2000/svg">
<path d="M104.092 234.169C154.85 234.169 195.997 231.606 195.997 228.444C195.997 225.282 154.85 222.718 104.092 222.718C53.335 222.718 12.188 225.282 12.188 228.444C12.188 231.606 53.335 234.169 104.092 234.169Z" fill="#FA0E9B"/>
<path opacity="0.8" d="M104.092 234.169C154.85 234.169 195.997 231.606 195.997 228.444C195.997 225.282 154.85 222.718 104.092 222.718C53.335 222.718 12.188 225.282 12.188 228.444C12.188 231.606 53.335 234.169 104.092 234.169Z" fill="white"/>
<path d="M173.154 10.728H80.7446C74.3646 10.728 69.1926 15.9 69.1926 22.28V217.373C69.1926 223.753 74.3646 228.925 80.7446 228.925H173.154C179.534 228.925 184.706 223.753 184.706 217.373V22.28C184.706 15.9 179.534 10.728 173.154 10.728Z" fill="#263238"/>
<path d="M179.569 34.688H74.3235V204.965H179.569V34.688Z" fill="white" stroke="#263238" stroke-width="1.33739" stroke-miterlimit="10"/>
<path d="M143.08 103.638C151.989 94.7294 151.989 80.2853 143.08 71.3764C134.171 62.4675 119.727 62.4675 110.818 71.3764C101.91 80.2853 101.91 94.7294 110.818 103.638C119.727 112.547 134.171 112.547 143.08 103.638Z" fill="#FA0E9B"/>
<path d="M156.899 194.257H97.0051C96.8703 194.258 96.7367 194.232 96.612 194.181C96.4872 194.13 96.3738 194.055 96.2782 193.96C96.1826 193.865 96.1067 193.752 96.055 193.627C96.0032 193.503 95.9766 193.369 95.9766 193.235C95.9758 193.099 96.0019 192.965 96.0533 192.84C96.1047 192.715 96.1804 192.601 96.2761 192.506C96.3717 192.41 96.4854 192.334 96.6106 192.283C96.7357 192.231 96.8698 192.205 97.0051 192.206H156.899C157.034 192.206 157.168 192.233 157.292 192.284C157.417 192.336 157.53 192.412 157.625 192.508C157.72 192.603 157.795 192.717 157.846 192.841C157.897 192.966 157.923 193.1 157.922 193.235C157.922 193.506 157.814 193.766 157.622 193.958C157.431 194.15 157.171 194.257 156.899 194.257Z" fill="#FA0E9B"/>
<path d="M158.85 123.144H95.0494C93.7327 123.144 92.6653 124.211 92.6653 125.528V133.049C92.6653 134.366 93.7327 135.433 95.0494 135.433H158.85C160.166 135.433 161.234 134.366 161.234 133.049V125.528C161.234 124.211 160.166 123.144 158.85 123.144Z" fill="#FA0E9B"/>
<path d="M158.85 146.129H95.0494C93.7327 146.129 92.6653 147.197 92.6653 148.513V156.034C92.6653 157.351 93.7327 158.419 95.0494 158.419H158.85C160.166 158.419 161.234 157.351 161.234 156.034V148.513C161.234 147.197 160.166 146.129 158.85 146.129Z" fill="#FA0E9B"/>
<path d="M138.309 98.8869L131.596 95.0223V91.8297C132.568 90.6538 133.272 89.2802 133.659 87.8046C133.89 87.8867 134.133 87.9289 134.379 87.9295C135.211 87.9295 135.74 85.3491 135.829 83.5061C136.798 81.4549 135.479 80.2539 135.479 80.2539C135.479 80.2539 136.025 79.7069 136.388 77.5131C136.751 75.3192 135.11 76.2348 133.832 74.2252C132.553 72.2157 131.638 70.0278 127.44 70.0278C126.284 69.9897 125.142 70.3005 124.165 70.9198C123.187 71.539 122.418 72.438 121.959 73.4999C120.914 73.5037 119.873 73.6253 118.855 73.8626C117.571 74.2252 117.208 78.4287 118.302 80.0755C118.792 80.9756 119.053 81.982 119.063 83.0066C118.772 82.6499 118.469 82.5548 118.302 83.3634C117.94 85.1886 119.402 87.7451 119.402 87.7451L120.157 87.5311C120.538 89.1081 121.271 90.578 122.303 91.8297V95.0223L115.591 98.8869C114.807 99.3395 114.156 99.9903 113.703 100.774C113.25 101.558 113.011 102.447 113.011 103.352V105.564C117.003 108.648 121.905 110.321 126.95 110.321C131.994 110.321 136.897 108.648 140.889 105.564V103.352C140.889 102.446 140.651 101.557 140.198 100.773C139.745 99.9891 139.093 99.3385 138.309 98.8869Z" fill="#263238"/>
<path d="M101.352 155.363C101.198 155.36 101.051 155.299 100.941 155.19C100.883 155.138 100.836 155.074 100.804 155.002C100.773 154.93 100.756 154.853 100.757 154.774C100.759 154.667 100.79 154.562 100.846 154.471L101.916 152.759L99.8296 152.824C99.7509 152.829 99.6721 152.817 99.5984 152.789C99.5246 152.762 99.4575 152.719 99.4015 152.663C99.3045 152.555 99.251 152.414 99.251 152.268C99.251 152.122 99.3045 151.982 99.4015 151.873C99.4563 151.815 99.523 151.771 99.597 151.742C99.671 151.713 99.7504 151.701 99.8296 151.706L101.887 151.783L100.828 150.077C100.771 149.984 100.74 149.877 100.739 149.768C100.739 149.689 100.755 149.612 100.787 149.54C100.818 149.468 100.865 149.404 100.924 149.352C101.033 149.243 101.18 149.182 101.334 149.179C101.435 149.18 101.534 149.209 101.619 149.264C101.705 149.319 101.773 149.397 101.815 149.489L102.832 151.326L103.837 149.5C103.884 149.403 103.958 149.321 104.049 149.262C104.14 149.203 104.246 149.171 104.354 149.167C104.429 149.168 104.503 149.184 104.572 149.215C104.641 149.245 104.702 149.29 104.752 149.346C104.861 149.459 104.921 149.611 104.919 149.768C104.919 149.87 104.892 149.97 104.842 150.059L103.765 151.783L105.852 151.706C105.931 151.701 106.011 151.713 106.085 151.742C106.159 151.771 106.226 151.815 106.28 151.873C106.382 151.978 106.437 152.119 106.435 152.265C106.435 152.412 106.379 152.554 106.28 152.663C106.224 152.719 106.157 152.762 106.083 152.789C106.01 152.817 105.931 152.829 105.852 152.824L103.754 152.759L104.8 154.453C104.859 154.548 104.889 154.657 104.889 154.768C104.889 154.926 104.826 155.077 104.715 155.188C104.603 155.3 104.452 155.363 104.295 155.363C104.193 155.361 104.093 155.33 104.009 155.273C103.924 155.216 103.858 155.136 103.819 155.042L102.826 153.258L101.839 155.042C101.795 155.135 101.727 155.214 101.641 155.271C101.555 155.327 101.455 155.359 101.352 155.363Z" fill="#263238"/>
<path d="M110.995 155.363C110.841 155.36 110.694 155.299 110.585 155.19C110.526 155.138 110.48 155.074 110.448 155.002C110.416 154.93 110.4 154.853 110.401 154.774C110.402 154.667 110.433 154.562 110.49 154.471L111.56 152.759L109.479 152.824C109.4 152.828 109.32 152.815 109.246 152.788C109.171 152.76 109.103 152.718 109.045 152.663C108.966 152.582 108.913 152.479 108.894 152.367C108.875 152.255 108.889 152.14 108.936 152.037C108.983 151.934 109.06 151.847 109.157 151.788C109.253 151.729 109.366 151.7 109.479 151.706L111.53 151.783L110.472 150.077C110.414 149.984 110.383 149.877 110.383 149.768C110.382 149.69 110.398 149.612 110.43 149.54C110.462 149.468 110.509 149.404 110.567 149.352C110.676 149.243 110.823 149.182 110.977 149.179C111.079 149.18 111.178 149.209 111.263 149.264C111.348 149.319 111.416 149.397 111.459 149.489L112.476 151.326L113.48 149.5C113.528 149.403 113.601 149.321 113.693 149.262C113.784 149.203 113.889 149.171 113.998 149.167C114.073 149.167 114.147 149.183 114.216 149.214C114.285 149.244 114.346 149.29 114.396 149.346C114.451 149.401 114.495 149.467 114.524 149.54C114.554 149.612 114.569 149.69 114.568 149.768C114.566 149.871 114.538 149.971 114.485 150.059L113.409 151.783L115.502 151.718C115.58 151.713 115.659 151.725 115.732 151.754C115.805 151.783 115.87 151.827 115.924 151.885C116.025 151.99 116.081 152.131 116.078 152.277C116.078 152.424 116.023 152.566 115.924 152.675C115.869 152.731 115.803 152.773 115.73 152.801C115.657 152.829 115.579 152.841 115.502 152.836L113.397 152.77L114.443 154.465C114.502 154.559 114.533 154.669 114.533 154.78C114.533 154.938 114.47 155.089 114.358 155.2C114.247 155.312 114.096 155.375 113.938 155.375C113.836 155.373 113.737 155.342 113.652 155.285C113.568 155.228 113.502 155.147 113.462 155.053L112.47 153.27L111.483 155.053C111.437 155.144 111.368 155.221 111.282 155.276C111.196 155.33 111.097 155.36 110.995 155.363Z" fill="#263238"/>
<path d="M120.644 155.363C120.488 155.362 120.339 155.3 120.228 155.19C120.17 155.138 120.123 155.074 120.091 155.002C120.059 154.93 120.043 154.853 120.044 154.774C120.046 154.667 120.076 154.562 120.133 154.471L121.203 152.759L119.122 152.824C119.01 152.828 118.899 152.799 118.804 152.741C118.708 152.682 118.632 152.596 118.586 152.494C118.539 152.392 118.524 152.278 118.542 152.168C118.561 152.057 118.611 151.954 118.688 151.873C118.744 151.815 118.812 151.771 118.887 151.742C118.962 151.713 119.042 151.701 119.122 151.706L121.173 151.783L120.115 150.077C120.058 149.984 120.027 149.877 120.026 149.768C120.028 149.69 120.045 149.613 120.077 149.542C120.108 149.47 120.154 149.406 120.21 149.352C120.321 149.242 120.47 149.18 120.626 149.179C120.727 149.181 120.825 149.211 120.909 149.266C120.993 149.32 121.06 149.398 121.102 149.489L122.119 151.326L123.124 149.5C123.171 149.403 123.245 149.321 123.336 149.262C123.427 149.203 123.532 149.171 123.641 149.167C123.716 149.167 123.791 149.183 123.859 149.214C123.928 149.244 123.989 149.29 124.039 149.346C124.094 149.401 124.138 149.467 124.167 149.54C124.197 149.612 124.212 149.69 124.212 149.768C124.209 149.871 124.181 149.971 124.128 150.059L123.052 151.783L125.145 151.706C125.222 151.698 125.3 151.707 125.373 151.732C125.446 151.757 125.513 151.797 125.569 151.85C125.626 151.903 125.67 151.968 125.699 152.039C125.729 152.111 125.742 152.188 125.74 152.265C125.741 152.412 125.688 152.553 125.591 152.663C125.535 152.719 125.468 152.762 125.394 152.789C125.32 152.817 125.241 152.829 125.163 152.824L123.064 152.759L124.105 154.453C124.163 154.548 124.194 154.657 124.194 154.768C124.192 154.846 124.175 154.923 124.143 154.995C124.111 155.066 124.066 155.13 124.009 155.184C123.958 155.24 123.895 155.284 123.826 155.315C123.756 155.346 123.681 155.362 123.605 155.363C123.504 155.361 123.406 155.33 123.322 155.272C123.239 155.215 123.174 155.135 123.135 155.042L122.137 153.258L121.15 155.042C121.105 155.138 121.034 155.219 120.944 155.276C120.855 155.333 120.75 155.363 120.644 155.363Z" fill="#263238"/>
<path d="M130.288 155.363C130.132 155.362 129.983 155.3 129.872 155.19C129.76 155.08 129.696 154.931 129.693 154.774C129.692 154.667 129.72 154.562 129.777 154.471L130.847 152.759L128.766 152.824C128.687 152.828 128.607 152.815 128.533 152.788C128.458 152.76 128.39 152.718 128.332 152.663C128.235 152.555 128.181 152.414 128.181 152.268C128.181 152.122 128.235 151.982 128.332 151.873C128.389 151.817 128.457 151.774 128.532 151.745C128.607 151.717 128.686 151.703 128.766 151.706L130.823 151.783L129.771 150.077C129.713 149.984 129.682 149.877 129.682 149.768C129.683 149.69 129.701 149.613 129.732 149.542C129.764 149.47 129.809 149.406 129.866 149.352C129.977 149.242 130.126 149.18 130.282 149.179C130.383 149.18 130.482 149.209 130.568 149.264C130.653 149.319 130.721 149.397 130.764 149.489L131.774 151.326L132.779 149.5C132.827 149.403 132.9 149.321 132.991 149.262C133.082 149.203 133.188 149.171 133.296 149.167C133.372 149.167 133.446 149.183 133.515 149.214C133.583 149.244 133.645 149.29 133.695 149.346C133.75 149.401 133.793 149.467 133.823 149.54C133.853 149.612 133.868 149.69 133.867 149.768C133.865 149.871 133.836 149.971 133.784 150.059L132.708 151.783L134.801 151.706C134.877 151.698 134.955 151.707 135.028 151.732C135.102 151.757 135.169 151.797 135.225 151.85C135.281 151.903 135.326 151.968 135.355 152.039C135.384 152.111 135.398 152.188 135.395 152.265C135.396 152.412 135.343 152.553 135.246 152.663C135.19 152.719 135.123 152.762 135.05 152.789C134.976 152.817 134.897 152.829 134.818 152.824L132.72 152.759L133.76 154.453C133.819 154.548 133.85 154.657 133.849 154.768C133.85 154.847 133.834 154.924 133.802 154.996C133.77 155.068 133.723 155.132 133.665 155.184C133.613 155.24 133.551 155.284 133.481 155.315C133.412 155.346 133.337 155.362 133.261 155.363C133.16 155.361 133.061 155.33 132.978 155.272C132.894 155.215 132.829 155.135 132.791 155.042L131.792 153.258L130.805 155.042C130.76 155.14 130.687 155.223 130.595 155.28C130.503 155.337 130.396 155.366 130.288 155.363Z" fill="#263238"/>
<path d="M139.931 155.363C139.775 155.362 139.626 155.3 139.515 155.19C139.423 155.097 139.364 154.976 139.348 154.846C139.332 154.716 139.359 154.584 139.426 154.471L140.49 152.759L138.409 152.824C138.33 152.828 138.251 152.815 138.176 152.788C138.101 152.76 138.033 152.718 137.975 152.663C137.878 152.555 137.825 152.414 137.825 152.268C137.825 152.122 137.878 151.982 137.975 151.873C138.033 151.817 138.101 151.774 138.175 151.745C138.25 151.717 138.329 151.703 138.409 151.706L140.466 151.783L139.408 150.077C139.35 149.984 139.32 149.877 139.319 149.768C139.321 149.611 139.385 149.462 139.497 149.352C139.608 149.242 139.757 149.18 139.913 149.179C140.015 149.18 140.114 149.209 140.199 149.264C140.284 149.319 140.352 149.397 140.395 149.489L141.406 151.326L142.411 149.5C142.458 149.403 142.532 149.321 142.623 149.262C142.714 149.203 142.819 149.171 142.928 149.167C143.004 149.167 143.079 149.183 143.149 149.214C143.219 149.244 143.281 149.289 143.332 149.346C143.441 149.459 143.501 149.611 143.499 149.768C143.496 149.871 143.468 149.971 143.415 150.059L142.339 151.783L144.432 151.706C144.509 151.698 144.587 151.707 144.66 151.732C144.733 151.757 144.8 151.797 144.856 151.85C144.913 151.903 144.957 151.968 144.986 152.039C145.016 152.111 145.029 152.188 145.026 152.265C145.028 152.412 144.975 152.553 144.878 152.663C144.822 152.719 144.755 152.762 144.681 152.789C144.607 152.817 144.528 152.829 144.45 152.824L142.351 152.759L143.392 154.453C143.45 154.548 143.481 154.657 143.481 154.768C143.481 154.847 143.465 154.924 143.433 154.996C143.402 155.068 143.355 155.132 143.296 155.184C143.245 155.24 143.182 155.284 143.113 155.315C143.043 155.346 142.968 155.362 142.892 155.363C142.791 155.361 142.693 155.33 142.609 155.272C142.526 155.215 142.461 155.135 142.422 155.042L141.424 153.258L140.437 155.042C140.392 155.138 140.321 155.219 140.231 155.276C140.142 155.333 140.037 155.363 139.931 155.363Z" fill="#263238"/>
<path d="M149.575 155.363C149.421 155.36 149.274 155.299 149.165 155.19C149.106 155.138 149.059 155.074 149.028 155.002C148.996 154.93 148.98 154.853 148.98 154.774C148.982 154.667 149.013 154.562 149.07 154.471L150.134 152.759L148.053 152.824C147.976 152.83 147.899 152.819 147.827 152.794C147.755 152.768 147.688 152.728 147.632 152.675C147.577 152.623 147.532 152.559 147.502 152.489C147.472 152.418 147.457 152.342 147.458 152.265C147.458 152.192 147.472 152.12 147.499 152.053C147.527 151.986 147.568 151.924 147.619 151.873C147.674 151.815 147.74 151.771 147.814 151.742C147.888 151.713 147.968 151.701 148.047 151.706L150.104 151.783L149.046 150.077C148.988 149.984 148.957 149.877 148.957 149.768C148.959 149.611 149.023 149.462 149.135 149.352C149.246 149.242 149.395 149.18 149.551 149.179C149.652 149.18 149.751 149.209 149.837 149.264C149.922 149.319 149.99 149.397 150.033 149.489L151.043 151.326L152.054 149.5C152.101 149.404 152.174 149.322 152.264 149.263C152.354 149.205 152.458 149.172 152.565 149.167C152.642 149.167 152.717 149.183 152.787 149.214C152.856 149.244 152.919 149.289 152.97 149.346C153.079 149.459 153.139 149.611 153.136 149.768C153.136 149.87 153.109 149.97 153.059 150.059L151.983 151.783L154.07 151.706C154.149 151.701 154.228 151.713 154.302 151.742C154.376 151.771 154.443 151.815 154.498 151.873C154.599 151.978 154.655 152.119 154.652 152.265C154.652 152.412 154.597 152.554 154.498 152.663C154.442 152.719 154.375 152.762 154.301 152.789C154.227 152.817 154.148 152.829 154.07 152.824L151.971 152.759L153.011 154.453C153.07 154.548 153.101 154.657 153.101 154.768C153.098 154.925 153.034 155.074 152.922 155.184C152.814 155.295 152.667 155.359 152.512 155.363C152.411 155.361 152.312 155.33 152.229 155.272C152.145 155.215 152.081 155.135 152.042 155.042L151.043 153.258L150.056 155.042C150.014 155.134 149.946 155.213 149.861 155.27C149.776 155.327 149.677 155.359 149.575 155.363Z" fill="#263238"/>
<g style="mix-blend-mode:multiply">
<path d="M179.569 34.9141H74.3235V41.5075H179.569V34.9141Z" fill="#FA0E9B"/>
</g>
<path d="M138.392 22.7675H115.502C115.089 22.7675 114.692 22.6034 114.4 22.3113C114.108 22.0191 113.944 21.6229 113.944 21.2098C113.944 20.7967 114.108 20.4005 114.4 20.1083C114.692 19.8162 115.089 19.6521 115.502 19.6521H138.392C138.805 19.6521 139.201 19.8162 139.493 20.1083C139.785 20.4005 139.949 20.7967 139.949 21.2098C139.949 21.6229 139.785 22.0191 139.493 22.3113C139.201 22.6034 138.805 22.7675 138.392 22.7675Z" fill="#FA0E9B" stroke="#263238" stroke-width="1.33739" stroke-linecap="round" stroke-linejoin="round"/>
<path d="M133.189 214.585C133.191 213.349 132.825 212.142 132.14 211.114C131.454 210.087 130.479 209.286 129.339 208.812C128.198 208.339 126.942 208.215 125.73 208.456C124.519 208.696 123.406 209.291 122.533 210.164C121.659 211.038 121.064 212.151 120.824 213.362C120.583 214.574 120.707 215.829 121.18 216.97C121.654 218.111 122.455 219.086 123.482 219.772C124.51 220.457 125.718 220.823 126.953 220.821C128.606 220.82 130.192 220.162 131.361 218.993C132.53 217.824 133.188 216.238 133.189 214.585Z" fill="#FA0E9B"/>
<path d="M130.116 211.422H123.79V217.748H130.116V211.422Z" fill="#FA0E9B" stroke="#263238" stroke-width="1.33739" stroke-linecap="round" stroke-linejoin="round"/>
<path d="M202.305 142.8C202.305 142.8 194.017 121.741 201.395 119.238C209.077 116.628 208.738 130.534 208.44 137.312C207.816 151.795 206.217 154.488 205.022 150.951L202.305 142.8ZM199.814 159.227C202.091 162.199 202.733 159.12 198.625 145.213C196.698 138.673 192.513 125.445 186.092 130.409C179.926 135.166 194.6 152.407 194.6 152.407L199.814 159.227ZM195.414 171.296C197.584 173.222 197.626 170.791 192.471 160.749C190.051 156.046 184.932 146.527 180.741 151.236C176.716 155.778 190.432 166.819 190.432 166.819L195.414 171.296ZM190.658 185.648C192.828 187.581 192.869 185.143 187.715 175.107C185.295 170.404 180.176 160.88 175.984 165.594C171.983 170.149 185.658 181.189 185.658 181.189L190.658 185.648ZM204.392 156.432C200.92 157.788 203.678 159.262 218.179 159.221C224.981 159.221 238.869 158.912 235.908 151.355C233.072 144.096 212.418 153.341 212.418 153.341L204.392 156.432ZM200.438 166.088C196.764 166.724 199.178 168.722 213.399 171.564C220.064 172.901 233.732 175.369 232.335 167.402C230.997 159.72 208.916 164.679 208.916 164.679L200.438 166.088ZM196.015 177.878C192.887 178.329 194.885 180.071 206.841 182.806C212.448 184.091 223.952 186.498 222.953 179.703C222.002 173.163 203.214 176.861 203.214 176.861L196.015 177.878ZM192.655 188.799C189.593 189.578 191.764 191.1 203.952 192.551C209.659 193.229 221.354 194.406 219.648 187.753C218.001 181.368 199.713 187.022 199.713 187.022L192.655 188.799ZM210.575 144.583C208.791 148.579 212.495 147.972 225.088 136.985C230.986 131.83 242.817 121.045 233.447 115.677C224.452 110.516 214.778 135.415 214.778 135.415L210.575 144.583ZM193.119 203.027C191.234 204.127 193.083 204.555 201.728 202.831C205.783 202.028 214.029 200.244 211.241 196.725C208.542 193.336 197.483 200.47 197.483 200.47L193.119 203.027Z" fill="#FA0E9B"/>
<path opacity="0.3" d="M202.305 142.8C202.305 142.8 194.017 121.741 201.395 119.238C209.077 116.628 208.738 130.534 208.44 137.312C207.816 151.795 206.217 154.488 205.022 150.951L202.305 142.8ZM199.814 159.227C202.091 162.199 202.733 159.12 198.625 145.213C196.698 138.673 192.513 125.445 186.092 130.409C179.926 135.166 194.6 152.407 194.6 152.407L199.814 159.227ZM195.414 171.296C197.584 173.222 197.626 170.791 192.471 160.749C190.051 156.046 184.932 146.527 180.741 151.236C176.716 155.778 190.432 166.819 190.432 166.819L195.414 171.296ZM190.658 185.648C192.828 187.581 192.869 185.143 187.715 175.107C185.295 170.404 180.176 160.88 175.984 165.594C171.983 170.149 185.658 181.189 185.658 181.189L190.658 185.648ZM204.392 156.432C200.92 157.788 203.678 159.262 218.179 159.221C224.981 159.221 238.869 158.912 235.908 151.355C233.072 144.096 212.418 153.341 212.418 153.341L204.392 156.432ZM200.438 166.088C196.764 166.724 199.178 168.722 213.399 171.564C220.064 172.901 233.732 175.369 232.335 167.402C230.997 159.72 208.916 164.679 208.916 164.679L200.438 166.088ZM196.015 177.878C192.887 178.329 194.885 180.071 206.841 182.806C212.448 184.091 223.952 186.498 222.953 179.703C222.002 173.163 203.214 176.861 203.214 176.861L196.015 177.878ZM192.655 188.799C189.593 189.578 191.764 191.1 203.952 192.551C209.659 193.229 221.354 194.406 219.648 187.753C218.001 181.368 199.713 187.022 199.713 187.022L192.655 188.799ZM210.575 144.583C208.791 148.579 212.495 147.972 225.088 136.985C230.986 131.83 242.817 121.045 233.447 115.677C224.452 110.516 214.778 135.415 214.778 135.415L210.575 144.583ZM193.119 203.027C191.234 204.127 193.083 204.555 201.728 202.831C205.783 202.028 214.029 200.244 211.241 196.725C208.542 193.336 197.483 200.47 197.483 200.47L193.119 203.027Z" fill="white"/>
<path d="M205.961 152.603L204.517 128.566L205.961 152.603ZM201.389 160.535L192.257 139.862L201.389 160.535ZM224.957 154.524L203.072 157.663L224.957 154.524ZM196.657 171.676L184.808 156.474L196.657 171.676ZM198.738 167.015L215.064 167.836L198.738 167.015ZM194.873 178.674L207.359 179.911L194.873 178.674ZM191.859 186.082L185.658 176.754L191.859 186.082ZM191.145 189.376L205.825 189.513L191.145 189.376ZM188.173 216.915C188.271 216.908 188.362 216.861 188.427 216.787C188.491 216.712 188.524 216.615 188.517 216.517C187.584 202.497 193.006 179.536 201.704 160.689C207.263 148.644 229.053 124.969 229.285 124.731C229.355 124.661 229.395 124.566 229.395 124.467C229.395 124.368 229.355 124.272 229.285 124.202C229.251 124.168 229.21 124.14 229.165 124.122C229.12 124.103 229.072 124.093 229.024 124.093C228.975 124.093 228.927 124.103 228.882 124.122C228.837 124.14 228.796 124.168 228.762 124.202C228.542 124.44 206.663 148.204 201.056 160.356C192.198 179.661 186.847 202.206 187.798 216.564C187.805 216.659 187.848 216.747 187.917 216.812C187.987 216.877 188.078 216.914 188.173 216.915ZM205.955 152.972C206.054 152.966 206.146 152.921 206.211 152.848C206.277 152.774 206.311 152.678 206.306 152.58L204.885 128.53C204.883 128.481 204.871 128.433 204.85 128.389C204.829 128.345 204.799 128.305 204.763 128.273C204.726 128.24 204.683 128.215 204.637 128.199C204.591 128.183 204.542 128.176 204.493 128.18C204.394 128.186 204.303 128.23 204.237 128.304C204.171 128.377 204.137 128.474 204.142 128.572L205.587 152.609C205.591 152.704 205.632 152.793 205.701 152.859C205.769 152.924 205.861 152.96 205.955 152.96V152.972ZM201.52 160.874C201.609 160.833 201.679 160.76 201.714 160.669C201.75 160.577 201.749 160.476 201.71 160.386L192.572 139.714C192.533 139.624 192.459 139.553 192.368 139.518C192.276 139.482 192.175 139.484 192.085 139.524C191.995 139.563 191.924 139.636 191.889 139.728C191.853 139.819 191.855 139.921 191.894 140.011L201.027 160.683C201.055 160.75 201.103 160.806 201.163 160.846C201.223 160.886 201.293 160.908 201.366 160.909C201.427 160.912 201.488 160.9 201.544 160.874H201.52ZM203.102 158.02L224.975 154.892C225.028 154.891 225.08 154.879 225.127 154.857C225.175 154.834 225.218 154.801 225.252 154.761C225.286 154.721 225.312 154.674 225.326 154.623C225.341 154.573 225.345 154.519 225.338 154.467C225.331 154.415 225.313 154.365 225.285 154.32C225.257 154.275 225.22 154.236 225.176 154.207C225.132 154.178 225.082 154.158 225.03 154.149C224.978 154.14 224.925 154.142 224.874 154.155L203.001 157.283C202.903 157.289 202.812 157.334 202.747 157.407C202.682 157.481 202.649 157.577 202.656 157.675C202.662 157.773 202.707 157.864 202.78 157.929C202.854 157.993 202.95 158.026 203.048 158.02H203.102ZM196.865 171.974C196.943 171.913 196.993 171.824 197.005 171.726C197.017 171.628 196.99 171.529 196.93 171.45L185.075 156.218C185.014 156.139 184.925 156.088 184.826 156.075C184.727 156.062 184.628 156.089 184.549 156.15C184.47 156.211 184.419 156.3 184.406 156.399C184.393 156.498 184.42 156.597 184.481 156.676L196.359 171.932C196.394 171.976 196.438 172.012 196.489 172.037C196.539 172.062 196.595 172.075 196.651 172.075C196.74 172.07 196.824 172.035 196.889 171.974H196.865ZM215.391 167.854C215.394 167.755 215.358 167.659 215.292 167.587C215.225 167.515 215.132 167.472 215.034 167.467L198.738 166.641C198.646 166.647 198.56 166.687 198.496 166.752C198.432 166.818 198.394 166.905 198.389 166.996C198.385 167.088 198.414 167.178 198.472 167.25C198.53 167.321 198.611 167.369 198.702 167.384L215.028 168.21C215.126 168.213 215.222 168.178 215.294 168.111C215.367 168.044 215.41 167.952 215.415 167.854H215.391ZM207.703 179.946C207.709 179.898 207.705 179.848 207.691 179.801C207.678 179.753 207.655 179.709 207.623 179.671C207.592 179.633 207.554 179.601 207.511 179.578C207.467 179.555 207.419 179.541 207.37 179.536L194.885 178.306C194.837 178.301 194.788 178.305 194.741 178.319C194.694 178.334 194.651 178.357 194.613 178.388C194.576 178.419 194.545 178.457 194.522 178.5C194.499 178.543 194.485 178.59 194.481 178.638C194.472 178.736 194.503 178.833 194.565 178.908C194.627 178.984 194.716 179.032 194.814 179.043L207.299 180.279H207.335C207.431 180.286 207.525 180.255 207.599 180.193C207.672 180.131 207.718 180.042 207.727 179.946H207.703ZM192.037 186.391C192.12 186.337 192.177 186.252 192.197 186.155C192.217 186.058 192.198 185.957 192.144 185.874L185.973 176.546C185.916 176.465 185.831 176.41 185.735 176.391C185.638 176.372 185.538 176.391 185.456 176.445C185.373 176.499 185.315 176.584 185.295 176.681C185.275 176.778 185.294 176.879 185.349 176.962L191.52 186.29C191.555 186.341 191.602 186.383 191.657 186.412C191.712 186.441 191.773 186.456 191.835 186.457C191.916 186.461 191.995 186.438 192.061 186.391H192.037ZM206.199 189.513C206.198 189.415 206.159 189.321 206.09 189.252C206.021 189.182 205.928 189.141 205.831 189.138L191.151 189.001C191.054 189.001 190.96 189.04 190.891 189.109C190.822 189.178 190.783 189.272 190.783 189.37C190.781 189.419 190.789 189.468 190.807 189.514C190.825 189.56 190.852 189.601 190.887 189.636C190.921 189.671 190.962 189.699 191.008 189.718C191.053 189.736 191.102 189.745 191.151 189.745L205.831 189.881C205.881 189.884 205.931 189.876 205.978 189.859C206.025 189.841 206.068 189.815 206.105 189.78C206.141 189.746 206.171 189.704 206.191 189.658C206.211 189.612 206.222 189.563 206.223 189.513H206.199ZM186.502 211.463C186.532 211.398 189.035 204.501 196.562 202.854C196.659 202.833 196.743 202.774 196.797 202.69C196.85 202.607 196.868 202.505 196.847 202.408C196.823 202.313 196.763 202.231 196.68 202.179C196.597 202.127 196.497 202.109 196.401 202.129C188.464 203.865 185.83 211.148 185.8 211.219C185.77 211.313 185.777 211.415 185.82 211.504C185.863 211.593 185.939 211.661 186.032 211.695H186.151C186.23 211.702 186.309 211.683 186.377 211.641C186.444 211.599 186.497 211.537 186.526 211.463H186.502ZM188.173 216.915C188.271 216.908 188.362 216.861 188.427 216.787C188.491 216.712 188.524 216.615 188.517 216.517C187.584 202.497 193.006 179.536 201.704 160.689C207.263 148.644 229.053 124.969 229.285 124.731C229.355 124.661 229.395 124.566 229.395 124.467C229.395 124.368 229.355 124.272 229.285 124.202C229.251 124.168 229.21 124.14 229.165 124.122C229.12 124.103 229.072 124.093 229.024 124.093C228.975 124.093 228.927 124.103 228.882 124.122C228.837 124.14 228.796 124.168 228.762 124.202C228.542 124.44 206.663 148.204 201.056 160.356C192.198 179.661 186.847 202.206 187.798 216.564C187.805 216.659 187.848 216.747 187.917 216.812C187.987 216.877 188.078 216.914 188.173 216.915ZM205.955 152.972C206.054 152.966 206.146 152.921 206.211 152.848C206.277 152.774 206.311 152.678 206.306 152.58L204.885 128.53C204.883 128.481 204.871 128.433 204.85 128.389C204.829 128.345 204.799 128.305 204.763 128.273C204.726 128.24 204.683 128.215 204.637 128.199C204.591 128.183 204.542 128.176 204.493 128.18C204.394 128.186 204.303 128.23 204.237 128.304C204.171 128.377 204.137 128.474 204.142 128.572L205.587 152.609C205.591 152.704 205.632 152.793 205.701 152.859C205.769 152.924 205.861 152.96 205.955 152.96V152.972ZM201.52 160.874C201.609 160.833 201.679 160.76 201.714 160.669C201.75 160.577 201.749 160.476 201.71 160.386L192.572 139.714C192.533 139.624 192.459 139.553 192.368 139.518C192.276 139.482 192.175 139.484 192.085 139.524C191.995 139.563 191.924 139.636 191.889 139.728C191.853 139.819 191.855 139.921 191.894 140.011L201.027 160.683C201.055 160.75 201.103 160.806 201.163 160.846C201.223 160.886 201.293 160.908 201.366 160.909C201.427 160.912 201.488 160.9 201.544 160.874H201.52ZM203.102 158.02L224.975 154.892C225.028 154.891 225.08 154.879 225.127 154.857C225.175 154.834 225.218 154.801 225.252 154.761C225.286 154.721 225.312 154.674 225.326 154.623C225.341 154.573 225.345 154.519 225.338 154.467C225.331 154.415 225.313 154.365 225.285 154.32C225.257 154.275 225.22 154.236 225.176 154.207C225.132 154.178 225.082 154.158 225.03 154.149C224.978 154.14 224.925 154.142 224.874 154.155L203.001 157.283C202.903 157.289 202.812 157.334 202.747 157.407C202.682 157.481 202.649 157.577 202.656 157.675C202.662 157.773 202.707 157.864 202.78 157.929C202.854 157.993 202.95 158.026 203.048 158.02H203.102ZM196.865 171.974C196.943 171.913 196.993 171.824 197.005 171.726C197.017 171.628 196.99 171.529 196.93 171.45L185.075 156.218C185.045 156.179 185.008 156.147 184.965 156.122C184.922 156.097 184.875 156.081 184.826 156.075C184.777 156.069 184.728 156.072 184.68 156.085C184.633 156.098 184.588 156.12 184.549 156.15C184.51 156.18 184.477 156.217 184.453 156.26C184.428 156.303 184.412 156.35 184.406 156.399C184.399 156.448 184.403 156.497 184.416 156.545C184.428 156.592 184.45 156.637 184.481 156.676L196.359 171.932C196.394 171.976 196.438 172.012 196.489 172.037C196.539 172.062 196.595 172.075 196.651 172.075C196.74 172.07 196.824 172.035 196.889 171.974H196.865ZM215.391 167.854C215.394 167.755 215.358 167.659 215.292 167.587C215.225 167.515 215.132 167.472 215.034 167.467L198.738 166.641C198.646 166.647 198.56 166.687 198.496 166.752C198.432 166.818 198.394 166.905 198.389 166.996C198.385 167.088 198.414 167.178 198.472 167.25C198.53 167.321 198.611 167.369 198.702 167.384L215.028 168.21C215.126 168.213 215.222 168.178 215.294 168.111C215.367 168.044 215.41 167.952 215.415 167.854H215.391ZM207.703 179.946C207.709 179.898 207.705 179.848 207.691 179.801C207.678 179.753 207.655 179.709 207.623 179.671C207.592 179.633 207.554 179.601 207.511 179.578C207.467 179.555 207.419 179.541 207.37 179.536L194.885 178.306C194.837 178.301 194.788 178.305 194.741 178.319C194.694 178.334 194.651 178.357 194.613 178.388C194.576 178.419 194.545 178.457 194.522 178.5C194.499 178.543 194.485 178.59 194.481 178.638C194.472 178.736 194.503 178.833 194.565 178.908C194.627 178.984 194.716 179.032 194.814 179.043L207.299 180.279H207.335C207.431 180.286 207.525 180.255 207.599 180.193C207.672 180.131 207.718 180.042 207.727 179.946H207.703ZM192.037 186.391C192.12 186.337 192.177 186.252 192.197 186.155C192.217 186.058 192.198 185.957 192.144 185.874L185.973 176.546C185.916 176.465 185.831 176.41 185.735 176.391C185.638 176.372 185.538 176.391 185.456 176.445C185.373 176.499 185.315 176.584 185.295 176.681C185.275 176.778 185.294 176.879 185.349 176.962L191.52 186.29C191.555 186.341 191.602 186.383 191.657 186.412C191.712 186.441 191.773 186.456 191.835 186.457C191.916 186.461 191.995 186.438 192.061 186.391H192.037ZM206.199 189.513C206.198 189.415 206.159 189.321 206.09 189.252C206.021 189.182 205.928 189.141 205.831 189.138L191.151 189.001C191.054 189.001 190.96 189.04 190.891 189.109C190.822 189.178 190.783 189.272 190.783 189.37C190.781 189.419 190.789 189.468 190.807 189.514C190.825 189.56 190.852 189.601 190.887 189.636C190.921 189.671 190.962 189.699 191.008 189.718C191.053 189.736 191.102 189.745 191.151 189.745L205.831 189.881C205.881 189.884 205.931 189.876 205.978 189.859C206.025 189.841 206.068 189.815 206.105 189.78C206.141 189.746 206.171 189.704 206.191 189.658C206.211 189.612 206.222 189.563 206.223 189.513H206.199ZM186.502 211.463C186.532 211.398 189.035 204.501 196.562 202.854C196.659 202.833 196.743 202.774 196.797 202.69C196.85 202.607 196.868 202.505 196.847 202.408C196.823 202.313 196.763 202.231 196.68 202.179C196.597 202.127 196.497 202.109 196.401 202.129C188.464 203.865 185.83 211.148 185.8 211.219C185.77 211.313 185.777 211.415 185.82 211.504C185.863 211.593 185.939 211.661 186.032 211.695H186.151C186.23 211.702 186.309 211.683 186.377 211.641C186.444 211.599 186.497 211.537 186.526 211.463H186.502Z" fill="#FA0E9B"/>
<path opacity="0.2" d="M205.961 152.603L204.517 128.566L205.961 152.603ZM201.389 160.535L192.257 139.862L201.389 160.535ZM224.957 154.524L203.072 157.663L224.957 154.524ZM196.657 171.676L184.808 156.474L196.657 171.676ZM198.738 167.015L215.064 167.836L198.738 167.015ZM194.873 178.674L207.359 179.911L194.873 178.674ZM191.859 186.082L185.658 176.754L191.859 186.082ZM191.145 189.376L205.825 189.513L191.145 189.376ZM188.173 216.915C188.271 216.908 188.362 216.861 188.427 216.787C188.491 216.712 188.524 216.615 188.517 216.517C187.584 202.497 193.006 179.536 201.704 160.689C207.263 148.644 229.053 124.969 229.285 124.731C229.355 124.661 229.395 124.566 229.395 124.467C229.395 124.368 229.355 124.272 229.285 124.202C229.251 124.168 229.21 124.14 229.165 124.122C229.12 124.103 229.072 124.093 229.024 124.093C228.975 124.093 228.927 124.103 228.882 124.122C228.837 124.14 228.796 124.168 228.762 124.202C228.542 124.44 206.663 148.204 201.056 160.356C192.198 179.661 186.847 202.206 187.798 216.564C187.805 216.659 187.848 216.747 187.917 216.812C187.987 216.877 188.078 216.914 188.173 216.915ZM205.955 152.972C206.054 152.966 206.146 152.921 206.211 152.848C206.277 152.774 206.311 152.678 206.306 152.58L204.885 128.53C204.883 128.481 204.871 128.433 204.85 128.389C204.829 128.345 204.799 128.305 204.763 128.273C204.726 128.24 204.683 128.215 204.637 128.199C204.591 128.183 204.542 128.176 204.493 128.18C204.394 128.186 204.303 128.23 204.237 128.304C204.171 128.377 204.137 128.474 204.142 128.572L205.587 152.609C205.591 152.704 205.632 152.793 205.701 152.859C205.769 152.924 205.861 152.96 205.955 152.96V152.972ZM201.52 160.874C201.609 160.833 201.679 160.76 201.714 160.669C201.75 160.577 201.749 160.476 201.71 160.386L192.572 139.714C192.533 139.624 192.459 139.553 192.368 139.518C192.276 139.482 192.175 139.484 192.085 139.524C191.995 139.563 191.924 139.636 191.889 139.728C191.853 139.819 191.855 139.921 191.894 140.011L201.027 160.683C201.055 160.75 201.103 160.806 201.163 160.846C201.223 160.886 201.293 160.908 201.366 160.909C201.427 160.912 201.488 160.9 201.544 160.874H201.52ZM203.102 158.02L224.975 154.892C225.028 154.891 225.08 154.879 225.127 154.857C225.175 154.834 225.218 154.801 225.252 154.761C225.286 154.721 225.312 154.674 225.326 154.623C225.341 154.573 225.345 154.519 225.338 154.467C225.331 154.415 225.313 154.365 225.285 154.32C225.257 154.275 225.22 154.236 225.176 154.207C225.132 154.178 225.082 154.158 225.03 154.149C224.978 154.14 224.925 154.142 224.874 154.155L203.001 157.283C202.903 157.289 202.812 157.334 202.747 157.407C202.682 157.481 202.649 157.577 202.656 157.675C202.662 157.773 202.707 157.864 202.78 157.929C202.854 157.993 202.95 158.026 203.048 158.02H203.102ZM196.865 171.974C196.943 171.913 196.993 171.824 197.005 171.726C197.017 171.628 196.99 171.529 196.93 171.45L185.075 156.218C185.014 156.139 184.925 156.088 184.826 156.075C184.727 156.062 184.628 156.089 184.549 156.15C184.47 156.211 184.419 156.3 184.406 156.399C184.393 156.498 184.42 156.597 184.481 156.676L196.359 171.932C196.394 171.976 196.438 172.012 196.489 172.037C196.539 172.062 196.595 172.075 196.651 172.075C196.74 172.07 196.824 172.035 196.889 171.974H196.865ZM215.391 167.854C215.394 167.755 215.358 167.659 215.292 167.587C215.225 167.515 215.132 167.472 215.034 167.467L198.738 166.641C198.646 166.647 198.56 166.687 198.496 166.752C198.432 166.818 198.394 166.905 198.389 166.996C198.385 167.088 198.414 167.178 198.472 167.25C198.53 167.321 198.611 167.369 198.702 167.384L215.028 168.21C215.126 168.213 215.222 168.178 215.294 168.111C215.367 168.044 215.41 167.952 215.415 167.854H215.391ZM207.703 179.946C207.709 179.898 207.705 179.848 207.691 179.801C207.678 179.753 207.655 179.709 207.623 179.671C207.592 179.633 207.554 179.601 207.511 179.578C207.467 179.555 207.419 179.541 207.37 179.536L194.885 178.306C194.837 178.301 194.788 178.305 194.741 178.319C194.694 178.334 194.651 178.357 194.613 178.388C194.576 178.419 194.545 178.457 194.522 178.5C194.499 178.543 194.485 178.59 194.481 178.638C194.472 178.736 194.503 178.833 194.565 178.908C194.627 178.984 194.716 179.032 194.814 179.043L207.299 180.279H207.335C207.431 180.286 207.525 180.255 207.599 180.193C207.672 180.131 207.718 180.042 207.727 179.946H207.703ZM192.037 186.391C192.12 186.337 192.177 186.252 192.197 186.155C192.217 186.058 192.198 185.957 192.144 185.874L185.973 176.546C185.916 176.465 185.831 176.41 185.735 176.391C185.638 176.372 185.538 176.391 185.456 176.445C185.373 176.499 185.315 176.584 185.295 176.681C185.275 176.778 185.294 176.879 185.349 176.962L191.52 186.29C191.555 186.341 191.602 186.383 191.657 186.412C191.712 186.441 191.773 186.456 191.835 186.457C191.916 186.461 191.995 186.438 192.061 186.391H192.037ZM206.199 189.513C206.198 189.415 206.159 189.321 206.09 189.252C206.021 189.182 205.928 189.141 205.831 189.138L191.151 189.001C191.054 189.001 190.96 189.04 190.891 189.109C190.822 189.178 190.783 189.272 190.783 189.37C190.781 189.419 190.789 189.468 190.807 189.514C190.825 189.56 190.852 189.601 190.887 189.636C190.921 189.671 190.962 189.699 191.008 189.718C191.053 189.736 191.102 189.745 191.151 189.745L205.831 189.881C205.881 189.884 205.931 189.876 205.978 189.859C206.025 189.841 206.068 189.815 206.105 189.78C206.141 189.746 206.171 189.704 206.191 189.658C206.211 189.612 206.222 189.563 206.223 189.513H206.199ZM186.502 211.463C186.532 211.398 189.035 204.501 196.562 202.854C196.659 202.833 196.743 202.774 196.797 202.69C196.85 202.607 196.868 202.505 196.847 202.408C196.823 202.313 196.763 202.231 196.68 202.179C196.597 202.127 196.497 202.109 196.401 202.129C188.464 203.865 185.83 211.148 185.8 211.219C185.77 211.313 185.777 211.415 185.82 211.504C185.863 211.593 185.939 211.661 186.032 211.695H186.151C186.23 211.702 186.309 211.683 186.377 211.641C186.444 211.599 186.497 211.537 186.526 211.463H186.502ZM188.173 216.915C188.271 216.908 188.362 216.861 188.427 216.787C188.491 216.712 188.524 216.615 188.517 216.517C187.584 202.497 193.006 179.536 201.704 160.689C207.263 148.644 229.053 124.969 229.285 124.731C229.355 124.661 229.395 124.566 229.395 124.467C229.395 124.368 229.355 124.272 229.285 124.202C229.251 124.168 229.21 124.14 229.165 124.122C229.12 124.103 229.072 124.093 229.024 124.093C228.975 124.093 228.927 124.103 228.882 124.122C228.837 124.14 228.796 124.168 228.762 124.202C228.542 124.44 206.663 148.204 201.056 160.356C192.198 179.661 186.847 202.206 187.798 216.564C187.805 216.659 187.848 216.747 187.917 216.812C187.987 216.877 188.078 216.914 188.173 216.915ZM205.955 152.972C206.054 152.966 206.146 152.921 206.211 152.848C206.277 152.774 206.311 152.678 206.306 152.58L204.885 128.53C204.883 128.481 204.871 128.433 204.85 128.389C204.829 128.345 204.799 128.305 204.763 128.273C204.726 128.24 204.683 128.215 204.637 128.199C204.591 128.183 204.542 128.176 204.493 128.18C204.394 128.186 204.303 128.23 204.237 128.304C204.171 128.377 204.137 128.474 204.142 128.572L205.587 152.609C205.591 152.704 205.632 152.793 205.701 152.859C205.769 152.924 205.861 152.96 205.955 152.96V152.972ZM201.52 160.874C201.609 160.833 201.679 160.76 201.714 160.669C201.75 160.577 201.749 160.476 201.71 160.386L192.572 139.714C192.533 139.624 192.459 139.553 192.368 139.518C192.276 139.482 192.175 139.484 192.085 139.524C191.995 139.563 191.924 139.636 191.889 139.728C191.853 139.819 191.855 139.921 191.894 140.011L201.027 160.683C201.055 160.75 201.103 160.806 201.163 160.846C201.223 160.886 201.293 160.908 201.366 160.909C201.427 160.912 201.488 160.9 201.544 160.874H201.52ZM203.102 158.02L224.975 154.892C225.028 154.891 225.08 154.879 225.127 154.857C225.175 154.834 225.218 154.801 225.252 154.761C225.286 154.721 225.312 154.674 225.326 154.623C225.341 154.573 225.345 154.519 225.338 154.467C225.331 154.415 225.313 154.365 225.285 154.32C225.257 154.275 225.22 154.236 225.176 154.207C225.132 154.178 225.082 154.158 225.03 154.149C224.978 154.14 224.925 154.142 224.874 154.155L203.001 157.283C202.903 157.289 202.812 157.334 202.747 157.407C202.682 157.481 202.649 157.577 202.656 157.675C202.662 157.773 202.707 157.864 202.78 157.929C202.854 157.993 202.95 158.026 203.048 158.02H203.102ZM196.865 171.974C196.943 171.913 196.993 171.824 197.005 171.726C197.017 171.628 196.99 171.529 196.93 171.45L185.075 156.218C185.045 156.179 185.008 156.147 184.965 156.122C184.922 156.097 184.875 156.081 184.826 156.075C184.777 156.069 184.728 156.072 184.68 156.085C184.633 156.098 184.588 156.12 184.549 156.15C184.51 156.18 184.477 156.217 184.453 156.26C184.428 156.303 184.412 156.35 184.406 156.399C184.399 156.448 184.403 156.497 184.416 156.545C184.428 156.592 184.45 156.637 184.481 156.676L196.359 171.932C196.394 171.976 196.438 172.012 196.489 172.037C196.539 172.062 196.595 172.075 196.651 172.075C196.74 172.07 196.824 172.035 196.889 171.974H196.865ZM215.391 167.854C215.394 167.755 215.358 167.659 215.292 167.587C215.225 167.515 215.132 167.472 215.034 167.467L198.738 166.641C198.646 166.647 198.56 166.687 198.496 166.752C198.432 166.818 198.394 166.905 198.389 166.996C198.385 167.088 198.414 167.178 198.472 167.25C198.53 167.321 198.611 167.369 198.702 167.384L215.028 168.21C215.126 168.213 215.222 168.178 215.294 168.111C215.367 168.044 215.41 167.952 215.415 167.854H215.391ZM207.703 179.946C207.709 179.898 207.705 179.848 207.691 179.801C207.678 179.753 207.655 179.709 207.623 179.671C207.592 179.633 207.554 179.601 207.511 179.578C207.467 179.555 207.419 179.541 207.37 179.536L194.885 178.306C194.837 178.301 194.788 178.305 194.741 178.319C194.694 178.334 194.651 178.357 194.613 178.388C194.576 178.419 194.545 178.457 194.522 178.5C194.499 178.543 194.485 178.59 194.481 178.638C194.472 178.736 194.503 178.833 194.565 178.908C194.627 178.984 194.716 179.032 194.814 179.043L207.299 180.279H207.335C207.431 180.286 207.525 180.255 207.599 180.193C207.672 180.131 207.718 180.042 207.727 179.946H207.703ZM192.037 186.391C192.12 186.337 192.177 186.252 192.197 186.155C192.217 186.058 192.198 185.957 192.144 185.874L185.973 176.546C185.916 176.465 185.831 176.41 185.735 176.391C185.638 176.372 185.538 176.391 185.456 176.445C185.373 176.499 185.315 176.584 185.295 176.681C185.275 176.778 185.294 176.879 185.349 176.962L191.52 186.29C191.555 186.341 191.602 186.383 191.657 186.412C191.712 186.441 191.773 186.456 191.835 186.457C191.916 186.461 191.995 186.438 192.061 186.391H192.037ZM206.199 189.513C206.198 189.415 206.159 189.321 206.09 189.252C206.021 189.182 205.928 189.141 205.831 189.138L191.151 189.001C191.054 189.001 190.96 189.04 190.891 189.109C190.822 189.178 190.783 189.272 190.783 189.37C190.781 189.419 190.789 189.468 190.807 189.514C190.825 189.56 190.852 189.601 190.887 189.636C190.921 189.671 190.962 189.699 191.008 189.718C191.053 189.736 191.102 189.745 191.151 189.745L205.831 189.881C205.881 189.884 205.931 189.876 205.978 189.859C206.025 189.841 206.068 189.815 206.105 189.78C206.141 189.746 206.171 189.704 206.191 189.658C206.211 189.612 206.222 189.563 206.223 189.513H206.199ZM186.502 211.463C186.532 211.398 189.035 204.501 196.562 202.854C196.659 202.833 196.743 202.774 196.797 202.69C196.85 202.607 196.868 202.505 196.847 202.408C196.823 202.313 196.763 202.231 196.68 202.179C196.597 202.127 196.497 202.109 196.401 202.129C188.464 203.865 185.83 211.148 185.8 211.219C185.77 211.313 185.777 211.415 185.82 211.504C185.863 211.593 185.939 211.661 186.032 211.695H186.151C186.23 211.702 186.309 211.683 186.377 211.641C186.444 211.599 186.497 211.537 186.526 211.463H186.502Z" fill="black"/>
<path d="M197.882 206.433H181.05V209.917H182.519L185.557 228.925H193.375L196.413 209.917H197.882V206.433Z" fill="#FA0E9B"/>
<path opacity="0.3" d="M197.882 206.433H181.05V209.917H182.519L185.557 228.925H193.375L196.413 209.917H197.882V206.433Z" fill="white"/>
<path d="M46.3446 101.08L26.7663 94.689L25.0243 90.0873L21.0468 89.9624L13.8291 88.595L14.6971 90.0873L23.7817 96.6807L26.0232 97.7985L46.4992 108.494L46.3446 101.08Z" fill="white" stroke="#263238" stroke-width="1.00396" stroke-miterlimit="10"/>
<path d="M25.0241 90.0872L23.1572 88.9695L19.4294 90.3369L20.0478 91.0801L25.0241 90.0872Z" fill="white" stroke="#263238" stroke-width="1.00396" stroke-linejoin="round"/>
<path d="M46.3446 101.08L26.7663 94.689L25.0243 90.0873L21.0468 89.9624L13.8291 88.595L14.6971 90.0873L23.7817 96.6807L26.0232 97.7985L46.4992 108.494L46.3446 101.08Z" fill="white"/>
<path opacity="0.5" d="M46.3446 101.08L26.7663 94.689L25.0243 90.0873L21.0468 89.9624L13.8291 88.595L14.6971 90.0873L23.7817 96.6807L26.0232 97.7985L46.4992 108.494L46.3446 101.08Z" fill="#FA0E9B" stroke="#263238" stroke-width="1.00396" stroke-miterlimit="10"/>
<path d="M46.3446 101.08L26.7663 94.689L25.0243 90.0873L21.0468 89.9624L13.8291 88.595L14.6971 90.0873L23.7817 96.6807L26.0232 97.7985L46.4992 108.494L46.3446 101.08Z" stroke="#263238" stroke-width="1.00396" stroke-miterlimit="10"/>
<path d="M25.0241 90.0872L23.1572 88.9695L19.4294 90.3369L20.0478 91.0801L25.0241 90.0872Z" fill="white"/>
<path opacity="0.5" d="M25.0241 90.0872L23.1572 88.9695L19.4294 90.3369L20.0478 91.0801L25.0241 90.0872Z" fill="#FA0E9B" stroke="#263238" stroke-width="1.00396" stroke-linejoin="round"/>
<path d="M25.0241 90.0872L23.1572 88.9695L19.4294 90.3369L20.0478 91.0801L25.0241 90.0872Z" stroke="#263238" stroke-width="1.00396" stroke-linejoin="round"/>
<path d="M50.5005 59.5992C50.5005 59.5992 50.1973 62.2746 50.9524 63.9928C51.7075 65.7111 55.899 71.5316 55.899 71.5316L48.0748 77.8041C48.0748 77.8041 44.8286 71.2641 44.2103 70.2058C43.592 69.1475 42.8488 64.5933 44.8643 61.3293C46.8798 58.0652 49.7811 57.1853 50.5005 59.5992Z" fill="white"/>
<g style="mix-blend-mode:multiply" opacity="0.5">
<path d="M46.4813 68.1963L49.8761 75.2357L48.0687 77.81L44.656 71.716L46.4813 68.1963Z" fill="#FA0E9B"/>
</g>
<path d="M50.5005 59.5992C50.5005 59.5992 50.1973 62.2746 50.9524 63.9928C51.7075 65.7111 55.899 71.5316 55.899 71.5316L48.0748 77.8041C48.0748 77.8041 44.8286 71.2641 44.2103 70.2058C43.592 69.1475 42.8488 64.5933 44.8643 61.3293C46.8798 58.0652 49.7811 57.1853 50.5005 59.5992Z" stroke="#263238" stroke-width="1.00396" stroke-miterlimit="10"/>
<path d="M52.926 54.7003C52.4445 51.7276 49.0377 45.6811 43.6333 45.913C40.1255 46.0676 38.4846 46.7751 36.9626 47.6372C35.7219 48.3681 34.5655 49.2334 33.5142 50.2175C30.8744 53.3864 29.947 54.2544 30.4583 56.6801C30.4163 57.6477 30.5679 58.6139 30.9042 59.5221C31.7128 61.6802 32.2657 63.0893 32.9672 64.1179C32.7532 65.1226 32.1943 67.7743 32.1646 68.3807C32.1349 68.9872 33.9482 68.565 34.8638 68.3332C36.5642 72.1382 39.6796 74.778 40.6487 75.0812C42.3372 75.6104 45.0067 72.8339 46.4217 70.6816C47.8367 68.5294 46.7666 66.1096 46.7725 65.1464C46.7785 64.1833 49.9533 62.0667 51.1305 61.3949C52.3077 60.723 53.4017 57.6671 52.926 54.7003Z" fill="white"/>
<g style="mix-blend-mode:multiply" opacity="0.5">
<path d="M30.482 56.6801C30.4401 57.6476 30.5917 58.6138 30.9279 59.522C31.7365 61.6802 32.2894 63.0893 32.991 64.1178C32.7769 65.1226 32.2181 67.7743 32.1883 68.3807C32.1586 68.9871 33.972 68.565 34.8876 68.3331C36.588 72.1382 39.7034 74.778 40.6725 75.0812C42.361 75.6103 45.0305 72.8338 46.4455 70.6816C46.799 70.1442 47.0285 69.535 47.1173 68.8979C47.04 68.6185 46.9865 68.4461 46.9865 68.4461C46.9865 68.4461 46.1898 71.508 44.6083 71.1096C43.0269 70.7113 40.6071 67.5424 39.2575 66.4484C37.9078 65.3545 38.4608 63.9157 38.1932 62.2866C37.9257 60.6576 33.9303 59.2247 33.6628 58.2913C33.3953 57.3579 34.3287 53.4933 34.3287 53.4933C34.3287 53.4933 35.8448 51.4719 35.5178 52.3043C35.2867 53.026 35.2028 53.7868 35.2713 54.5415C35.3397 55.2962 35.559 56.0295 35.9161 56.6979C36.1667 57.2253 36.5643 57.6691 37.0611 57.9761C37.5578 58.283 38.1326 58.4399 38.7164 58.428L40.1671 51.24L37.1052 48.7073L33.5379 50.1936C30.8744 53.3863 29.9647 54.2544 30.482 56.6801Z" fill="#FA0E9B"/>
</g>
<path d="M52.926 54.7003C52.4445 51.7276 49.0377 45.6811 43.6333 45.913C40.1255 46.0676 38.4846 46.7751 36.9626 47.6372C35.7219 48.3681 34.5655 49.2334 33.5142 50.2175C30.8744 53.3864 29.947 54.2544 30.4583 56.6801C30.4163 57.6477 30.5679 58.6139 30.9042 59.5221C31.7128 61.6802 32.2657 63.0893 32.9672 64.1179C32.7532 65.1226 32.1943 67.7743 32.1646 68.3807C32.1349 68.9872 33.9482 68.565 34.8638 68.3332C36.5642 72.1382 39.6796 74.778 40.6487 75.0812C42.3372 75.6104 45.0067 72.8339 46.4217 70.6816C47.8367 68.5294 46.7666 66.1096 46.7725 65.1464C46.7785 64.1833 49.9533 62.0667 51.1305 61.3949C52.3077 60.723 53.4017 57.6671 52.926 54.7003Z" stroke="#263238" stroke-miterlimit="10"/>
<path d="M33.7043 62.3223L34.2989 64.0227C34.2989 64.0227 35.5772 64.4448 37.1349 62.7444" stroke="#263238" stroke-miterlimit="10" stroke-linecap="round"/>
<path d="M38.0981 70.2652C38.0981 70.2652 39.5132 70.1225 40.0839 68.1367" stroke="#263238" stroke-miterlimit="10" stroke-linecap="round"/>
<path d="M32.7117 60.9013C32.7117 60.9013 33.1338 59.623 35.6844 59.623" stroke="#263238" stroke-miterlimit="10" stroke-linecap="round"/>
<path d="M45.7856 43.5466C43.9322 43.2801 42.0632 43.1371 40.1909 43.1186C40.1909 43.1186 34.5903 39.8902 29.2097 43.3326C23.8291 46.775 26.4154 52.8037 26.4154 54.3079C26.4154 55.8121 24.6912 55.818 25.7673 57.7562C26.8434 59.6944 30.482 58.6242 30.482 58.6242C30.5205 57.8932 30.7137 57.1787 31.0488 56.5279C31.384 55.877 31.8534 55.3048 32.4262 54.8489C34.3644 53.3447 35.9102 53.0177 36.5523 53.4517C36.5523 53.4517 36.1242 56.6801 36.7663 57.9702C36.7663 57.9702 38.9186 59.0464 39.5666 59.0464C40.2147 59.0464 39.1445 59.956 41.2908 60.7646C41.6818 60.905 42.1001 60.9529 42.5127 60.9044C42.9254 60.8559 43.3212 60.7124 43.669 60.4852C43.9841 59.1772 44.6738 57.2092 45.958 57.667C47.8427 58.3389 49.5609 62.9763 47.0103 64.5578C50.0782 65.1166 53.794 59.6885 54.014 54.7419C54.234 49.7953 48.9723 44.1055 45.7856 43.5466Z" fill="#263238"/>
<path d="M36.6475 51.329C36.6475 51.329 38.2289 50.4789 40.1672 52.2982C42.1054 54.1175 45.8748 56.5491 50.8689 55.2114" stroke="white" stroke-width="0.5" stroke-linecap="round" stroke-linejoin="round"/>
<path d="M36.4275 49.8725C36.4275 49.8725 37.5155 48.1721 39.3348 48.1721C41.1541 48.1721 45.4051 50.7227 48.7999 50.7227" stroke="white" stroke-width="0.5" stroke-linecap="round" stroke-linejoin="round"/>
<path d="M35.1909 53.1485C35.1909 53.1485 33.1278 50.6038 31.1896 52.6669C29.2514 54.73 30.4821 56.6801 30.4821 56.6801" stroke="white" stroke-width="0.5" stroke-linecap="round" stroke-linejoin="round"/>
<path d="M26.9448 54.8489C28.1271 53.7827 28.862 52.3086 29.0019 50.7228C29.2457 48.0533 32.8902 45.7465 35.1911 47.9344" stroke="white" stroke-width="0.5" stroke-linecap="round" stroke-linejoin="round"/>
<path d="M30.7019 45.14C30.7019 45.14 34.3464 41.6203 37.3786 46.1091" stroke="white" stroke-width="0.5" stroke-linecap="round" stroke-linejoin="round"/>
<path d="M60.3638 218.193C60.3638 218.193 62.6053 221.677 62.3555 223.919L62.1118 226.16C62.1118 226.16 53.8893 228.414 52.1473 228.414C50.4052 228.414 41.1839 227.54 41.1839 227.54L40.7855 225.958C40.7577 225.841 40.7708 225.718 40.8228 225.61C40.8747 225.502 40.9623 225.415 41.0709 225.364L49.2934 221.529L51.8857 218.693L60.3638 218.193Z" fill="white" stroke="#263238" stroke-width="1.00396" stroke-miterlimit="10"/>
<path d="M53.3957 226.66C55.6253 226.832 59.8584 225.471 62.3139 224.603L62.1414 226.16C62.1414 226.16 53.8892 228.414 52.1472 228.414C50.4052 228.414 41.1838 227.54 41.1838 227.54L40.8984 226.41C42.3729 226.416 50.4468 226.434 53.3957 226.66Z" fill="#FA0E9B" stroke="#263238" stroke-width="1.00396" stroke-miterlimit="10"/>
<path d="M49.3055 221.529L37.3373 226.737C37.3373 226.737 36.3147 229.3 37.3373 229.811C38.3599 230.322 60.6553 229.811 60.6553 229.811C60.6553 229.811 62.1951 225.762 59.7635 223.045C57.3318 220.328 49.3055 221.529 49.3055 221.529Z" fill="white" stroke="#263238" stroke-width="1.00396" stroke-miterlimit="10"/>
<path d="M60.655 229.811C60.655 229.811 38.3596 230.322 37.337 229.811C36.8435 229.561 36.8257 228.842 36.9387 228.158H61.0474C60.9686 228.72 60.8372 229.274 60.655 229.811Z" fill="#FA0E9B" stroke="#263238" stroke-width="1.00396" stroke-miterlimit="10"/>
<path d="M43.6453 131.033C43.6453 131.033 40.518 144.892 39.3349 153.561C38.1518 162.229 37.4561 179.596 37.7059 181.587C37.9556 183.579 50.4053 216.951 50.4053 216.951L51.6479 219.924L60.3639 218.182C60.3639 218.182 56.3804 205.482 54.8881 198.508C53.3958 191.534 50.1318 180.077 50.1318 178.086C50.1318 176.094 57.8608 138.055 58.4138 135.558C58.9667 133.061 61.4757 129.226 61.4757 129.226L44.7869 128.887L43.6453 131.033Z" fill="#FA0E9B" stroke="#263238" stroke-width="1.00396" stroke-miterlimit="10"/>
<path d="M43.6452 131.033C43.6452 131.033 41.814 143.691 42.569 152.491C43.3241 161.29 44.9472 180.024 44.9472 182.812C44.9472 185.601 49.4479 202.254 49.7035 207.486C50.1019 215.042 49.543 218.782 49.543 218.782L49.2755 221.523C49.2755 221.523 54.5253 222.272 55.6728 222.599C56.9981 222.94 58.3658 223.089 59.7335 223.039C59.7335 223.039 61.642 214.638 61.642 207.48C61.642 200.321 60.0545 185.589 59.2638 179.62C58.4731 173.65 60.9642 150.624 62.3792 146.325C63.7942 142.027 66.8858 132.924 64.8049 128.275C62.724 123.626 43.6452 131.033 43.6452 131.033Z" fill="#FA0E9B" stroke="#263238" stroke-width="1.00396" stroke-miterlimit="10"/>
<path d="M67.1177 125.944L66.9275 131.604C66.9275 131.604 63.5386 132.276 58.9725 133.067C55.2031 133.721 45.738 132.894 42.5512 132.585C42.2608 132.559 41.9923 132.42 41.8042 132.197C41.616 131.975 41.5234 131.687 41.5464 131.396L41.8556 126.283L67.1177 125.944Z" fill="#263238"/>
<path d="M53.8715 69.5222C53.8715 69.5222 48.5207 75.3071 46.5052 78.9041C44.4897 82.5011 43.693 88.0125 42.9379 92.3526C42.1828 96.6928 44.2281 106.883 43.6514 111.562L41.8261 126.301C41.8261 126.301 41.4337 127.3 42.7476 128.394C44.0616 129.488 50.4767 129.886 56.2735 130.177C58.3901 130.284 64.7101 128.923 65.7446 128.858C66.9931 128.78 67.0347 127.193 67.0882 125.944C67.3379 120.076 68.3962 104.434 69.0918 97.6203C70.5247 83.7258 62.6827 70.313 53.8715 69.5222Z" fill="white" stroke="#263238" stroke-width="1.00396" stroke-miterlimit="10"/>
<g style="mix-blend-mode:multiply">
<path d="M68.4377 105.522C68.6755 102.436 68.9133 99.6357 69.1214 97.6202C69.1809 97.0257 69.2165 96.4311 69.2463 95.8366L55.0307 98.2148L42.8188 94.053C42.8202 96.5799 42.9631 99.1047 43.2469 101.616L55.2269 104.969L68.4377 105.522Z" fill="#FA0E9B"/>
</g>
<g style="mix-blend-mode:multiply">
<path d="M53.3422 70.1047C52.5336 71.0025 50.9284 72.8277 49.4004 74.766L58.4255 83.9397L61.3983 82.7507L53.3422 70.1047Z" fill="#FA0E9B"/>
</g>
<path d="M53.8714 69.5222C53.8714 69.5222 48.5205 75.3071 46.505 78.9041C45.9074 79.9973 45.4233 81.1487 45.0603 82.3406L55.8215 69.9087C55.1858 69.7161 54.5326 69.5866 53.8714 69.5222Z" fill="#263238"/>
<g style="mix-blend-mode:multiply">
<path d="M43.354 90.0102L55.0308 93.851L69.2107 92.2219C68.9884 88.6895 68.2037 85.2153 66.886 81.9304L55.4529 86.5143L45.2328 81.8828C44.3971 84.5392 43.7689 87.2565 43.354 90.0102Z" fill="#FA0E9B"/>
</g>
<g style="mix-blend-mode:multiply">
<path d="M63.4552 120.076C57.5328 121.07 51.456 120.574 45.7735 118.631L42.9257 117.656L42.0398 124.791L45.286 125.7C51.4572 127.426 57.9071 127.923 64.2697 127.163L66.8917 126.848C67.0281 126.559 67.105 126.246 67.1176 125.926C67.1889 124.339 67.3138 122.032 67.4743 119.386L63.4552 120.076Z" fill="#FA0E9B"/>
</g>
<g style="mix-blend-mode:multiply">
<path d="M65.0428 110.361C59.1202 111.36 53.0419 110.861 47.3611 108.911L43.7344 107.668C43.8244 108.963 43.8065 110.264 43.6809 111.556L43.2588 114.987L46.8736 115.998C53.0424 117.725 59.4903 118.224 65.8514 117.466L67.635 117.252C67.7837 114.874 67.9561 112.341 68.1404 109.838L65.0428 110.361Z" fill="#FA0E9B"/>
</g>
<path d="M9.26357 85.2194L20.7593 94.4622L21.2548 93.8459L9.75906 84.6031L9.26357 85.2194Z" fill="#263238"/>
<path d="M59.4065 75.9373C59.4065 75.9373 63.6218 78.8089 63.717 85.5926C63.7586 88.5653 63.4494 91.3419 62.7657 96.2112C62.082 101.08 57.837 116.937 54.5313 118.863C51.2256 120.79 46.0947 117.151 46.0947 117.151L21.2785 100.676L15.2796 95.8307L12.3069 90.2182L13.2403 88.4345L20.5591 94.047L16.6173 90.4025L17.3902 89.4215L18.8171 90.4144L22.9789 91.9721L23.8886 97.9175L25.1728 98.7974L48.9129 107.472C48.9129 107.472 48.6156 94.6951 48.8356 92.2515C49.0556 89.8079 49.3588 83.6663 51.9748 79.2132" fill="white"/>
<g style="mix-blend-mode:multiply" opacity="0.5">
<path d="M48.7464 97.8165C48.7464 102.228 48.8951 107.472 48.8951 107.472L25.1788 98.8331L23.8946 97.9532L22.9849 92.0078L18.8231 90.4501L17.4022 89.4393L16.6293 90.4203L20.5592 94.0471L13.2404 88.4346L12.3545 90.1885L15.3272 95.801L21.3261 100.676L22.8363 101.681L55.6253 112.246L48.7464 97.8165Z" fill="#FA0E9B"/>
</g>
<path d="M59.4065 75.9373C59.4065 75.9373 63.6218 78.8089 63.717 85.5926C63.7586 88.5653 63.4494 91.3419 62.7657 96.2112C62.082 101.08 57.837 116.937 54.5313 118.863C51.2256 120.79 46.0947 117.151 46.0947 117.151L21.2785 100.676L15.2796 95.8307L12.3069 90.2182L13.2403 88.4345L20.5591 94.047L16.6173 90.4025L17.3902 89.4215L18.8171 90.4144L22.9789 91.9721L23.8886 97.9175L25.1728 98.7974L48.9129 107.472C48.9129 107.472 48.6156 94.6951 48.8356 92.2515C49.0556 89.8079 49.3588 83.6663 51.9748 79.2132" stroke="#263238" stroke-width="1.00396" stroke-miterlimit="10"/>
<path d="M48.9129 107.472L57.9737 114.012L60.3222 109.85C60.3222 109.85 61.9453 108.572 62.1831 107.609C62.4209 106.645 62.1177 105.082 62.3614 104.119C62.6052 103.156 63.8181 102.252 63.931 99.9212C64.044 97.5906 63.931 95.6464 63.931 95.6464C63.931 95.6464 65.893 87.5785 65.679 84.0707C65.465 80.5629 62.082 74.3618 59.3709 74.2251C56.6598 74.0883 53.1341 74.4986 50.3992 78.6366C47.6643 82.7746 48.2232 94.8557 47.7951 95.6108C47.3671 96.3658 47.9616 100.094 47.9616 100.094C47.724 100.271 47.5269 100.497 47.3834 100.756C47.2398 101.015 47.1532 101.302 47.1293 101.598C47.0817 102.567 48.1281 104.951 48.1281 104.951L48.9129 107.472Z" fill="white" stroke="#263238" stroke-width="1.00396" stroke-miterlimit="10"/>
<g style="mix-blend-mode:multiply">
<path d="M48.033 92.5071C48.0517 93.5446 47.9741 94.5815 47.8012 95.6046C47.4207 96.2824 47.8547 99.3443 47.9498 99.9686C53.0461 101.551 58.435 101.958 63.7111 101.158C63.8245 100.744 63.8923 100.32 63.9133 99.8913C64.0322 97.5666 63.9133 95.6165 63.9133 95.6165C63.9133 95.6165 64.0857 94.8971 64.3235 93.8032C58.8593 94.1505 53.3736 93.7141 48.033 92.5071Z" fill="#FA0E9B"/>
</g>
<g style="mix-blend-mode:multiply">
<path d="M50.0307 79.2964C49.1805 81.0027 48.7049 83.5652 48.4314 86.1634C53.8287 88.2232 59.648 88.9315 65.3818 88.2264C65.6106 86.8514 65.7121 85.4583 65.685 84.0646C65.5821 82.963 65.3218 81.8819 64.9121 80.8541C59.9055 80.9709 54.9046 80.4475 50.0307 79.2964Z" fill="#FA0E9B"/>
</g>
<path d="M48.1282 105.016L48.8951 107.472L57.956 114.012L60.3044 109.85C60.3044 109.85 61.9275 108.572 62.1653 107.609C62.2078 107.441 62.2336 107.27 62.2426 107.097C57.4678 107.015 52.7236 106.315 48.1282 105.016Z" fill="#263238"/>
<path d="M54.6861 222.522C54.6861 222.522 54.8882 217.373 55.8751 209.846C56.8621 202.319 54.4899 191.629 54.0915 189.846C53.6932 188.062 54.2937 184.102 53.8953 182.711C53.497 181.32 51.5707 175.386 52.7062 168.501C53.8418 161.617 54.7633 143.418 54.7633 143.418C54.7633 143.418 51.9036 141.093 51.0653 138.067C50.227 135.041 50.8691 134.089 50.8691 134.089" stroke="#263238" stroke-width="1.00396" stroke-miterlimit="10"/>
<path d="M56.0118 134.369L54.9119 140.457" stroke="#263238" stroke-width="1.00396" stroke-miterlimit="10"/>
</svg>
